<svg viewBox="0 0 330 200" xmlns="http://www.w3.org/2000/svg"><g><g><g><g><g><line x1="53.1875" y1="176" x2="48.1875" y2="176" style="visibility: inherit;" fill="rgb(0, 0, 0)" stroke="rgb(204, 204, 204)" stroke-width="1px"></line><line x1="53.1875" y1="158.4" x2="48.1875" y2="158.4" style="visibility: inherit;" fill="rgb(0, 0, 0)" stroke="rgb(204, 204, 204)" stroke-width="1px"></line><line x1="53.1875" y1="140.8" x2="48.1875" y2="140.8" style="visibility: inherit;" fill="rgb(0, 0, 0)" stroke="rgb(204, 204, 204)" stroke-width="1px"></line><line x1="53.1875" y1="123.19999999999999" x2="48.1875" y2="123.19999999999999" style="visibility: inherit;" fill="rgb(0, 0, 0)" stroke="rgb(204, 204, 204)" stroke-width="1px"></line><line x1="53.1875" y1="105.6" x2="48.1875" y2="105.6" style="visibility: inherit;" fill="rgb(0, 0, 0)" stroke="rgb(204, 204, 204)" stroke-width="1px"></line><line x1="53.1875" y1="88" x2="48.1875" y2="88" style="visibility: inherit;" fill="rgb(0, 0, 0)" stroke="rgb(204, 204, 204)" stroke-width="1px"></line><line x1="53.1875" y1="70.4" x2="48.1875" y2="70.4" style="visibility: inherit;" fill="rgb(0, 0, 0)" stroke="rgb(204, 204, 204)" stroke-width="1px"></line><line x1="53.1875" y1="52.79999999999999" x2="48.1875" y2="52.79999999999999" style="visibility: inherit;" fill="rgb(0, 0, 0)" stroke="rgb(204, 204, 204)" stroke-width="1px"></line><line x1="53.1875" y1="35.19999999999999" x2="48.1875" y2="35.19999999999999" style="visibility: inherit;" fill="rgb(0, 0, 0)" stroke="rgb(204, 204, 204)" stroke-width="1px"></line><line x1="53.1875" y1="17.599999999999994" x2="48.1875" y2="17.599999999999994" style="visibility: inherit;" fill="rgb(0, 0, 0)" stroke="rgb(204, 204, 204)" stroke-width="1px"></line><line x1="53.1875" y1="0" x2="48.1875" y2="0" style="visibility: inherit;" fill="rgb(0, 0, 0)" stroke="rgb(204, 204, 204)" stroke-width="1px"></line></g><g transform="translate(43.1875, 0)"><text x="0" y="176" dx="0em" dy="0.3em" style="text-anchor: end; visibility: hidden; font-family: Roboto, sans-serif; font-size: 12px; font-weight: 200;" fill="rgb(33, 33, 33)" stroke="none" stroke-width="1px">0.05</text><text x="0" y="158.4" dx="0em" dy="0.3em" style="text-anchor: end; visibility: inherit; font-family: Roboto, sans-serif; font-size: 12px; font-weight: 200;" fill="rgb(33, 33, 33)" stroke="none" stroke-width="1px">0.1</text><text x="0" y="140.8" dx="0em" dy="0.3em" style="text-anchor: end; visibility: hidden; font-family: Roboto, sans-serif; font-size: 12px; font-weight: 200;" fill="rgb(33, 33, 33)" stroke="none" stroke-width="1px">0.15</text><text x="0" y="123.19999999999999" dx="0em" dy="0.3em" style="text-anchor: end; visibility: inherit; font-family: Roboto, sans-serif; font-size: 12px; font-weight: 200;" fill="rgb(33, 33, 33)" stroke="none" stroke-width="1px">0.2</text><text x="0" y="105.6" dx="0em" dy="0.3em" style="text-anchor: end; visibility: hidden; font-family: Roboto, sans-serif; font-size: 12px; font-weight: 200;" fill="rgb(33, 33, 33)" stroke="none" stroke-width="1px">0.25</text><text x="0" y="88" dx="0em" dy="0.3em" style="text-anchor: end; visibility: inherit; font-family: Roboto, sans-serif; font-size: 12px; font-weight: 200;" fill="rgb(33, 33, 33)" stroke="none" stroke-width="1px">0.3</text><text x="0" y="70.4" dx="0em" dy="0.3em" style="text-anchor: end; visibility: hidden; font-family: Roboto, sans-serif; font-size: 12px; font-weight: 200;" fill="rgb(33, 33, 33)" stroke="none" stroke-width="1px">0.35</text><text x="0" y="52.79999999999999" dx="0em" dy="0.3em" style="text-anchor: end; visibility: inherit; font-family: Roboto, sans-serif; font-size: 12px; font-weight: 200;" fill="rgb(33, 33, 33)" stroke="none" stroke-width="1px">0.4</text><text x="0" y="35.19999999999999" dx="0em" dy="0.3em" style="text-anchor: end; visibility: hidden; font-family: Roboto, sans-serif; font-size: 12px; font-weight: 200;" fill="rgb(33, 33, 33)" stroke="none" stroke-width="1px">0.45</text><text x="0" y="17.599999999999994" dx="0em" dy="0.3em" style="text-anchor: end; visibility: inherit; font-family: Roboto, sans-serif; font-size: 12px; font-weight: 200;" fill="rgb(33, 33, 33)" stroke="none" stroke-width="1px">0.5</text><text x="0" y="0" dx="0em" dy="0.3em" style="text-anchor: end; visibility: hidden; font-family: Roboto, sans-serif; font-size: 12px; font-weight: 200;" fill="rgb(33, 33, 33)" stroke="none" stroke-width="1px">0.55</text></g><line x1="53.1875" y1="0" x2="53.1875" y2="176" fill="rgb(0, 0, 0)" stroke="rgb(204, 204, 204)" stroke-width="1px"></line></g></g><g transform="translate(53, 0)" clip-path="url(#clip_0)"><clipPath id="clip_0"><rect width="276" height="176"></rect></clipPath><g><g><g><line x1="0" y1="0" x2="0" y2="176" fill="rgb(0, 0, 0)" stroke="rgb(66, 66, 66)" stroke-width="1px" opacity="0.25"></line><line x1="25.164772727272727" y1="0" x2="25.164772727272727" y2="176" fill="rgb(0, 0, 0)" stroke="rgb(66, 66, 66)" stroke-width="1px" opacity="0.25"></line><line x1="50.32954545454545" y1="0" x2="50.32954545454545" y2="176" fill="rgb(0, 0, 0)" stroke="rgb(66, 66, 66)" stroke-width="1px" opacity="0.25"></line><line x1="75.49431818181817" y1="0" x2="75.49431818181817" y2="176" fill="rgb(0, 0, 0)" stroke="rgb(66, 66, 66)" stroke-width="1px" opacity="0.25"></line><line x1="100.6590909090909" y1="0" x2="100.6590909090909" y2="176" fill="rgb(0, 0, 0)" stroke="rgb(66, 66, 66)" stroke-width="1px" opacity="0.25"></line><line x1="125.82386363636363" y1="0" x2="125.82386363636363" y2="176" fill="rgb(0, 0, 0)" stroke="rgb(66, 66, 66)" stroke-width="1px" opacity="0.25"></line><line x1="150.98863636363635" y1="0" x2="150.98863636363635" y2="176" fill="rgb(0, 0, 0)" stroke="rgb(66, 66, 66)" stroke-width="1px" opacity="0.25"></line><line x1="176.1534090909091" y1="0" x2="176.1534090909091" y2="176" fill="rgb(0, 0, 0)" stroke="rgb(66, 66, 66)" stroke-width="1px" opacity="0.25"></line><line x1="201.3181818181818" y1="0" x2="201.3181818181818" y2="176" fill="rgb(0, 0, 0)" stroke="rgb(66, 66, 66)" stroke-width="1px" opacity="0.25"></line><line x1="226.48295454545456" y1="0" x2="226.48295454545456" y2="176" fill="rgb(0, 0, 0)" stroke="rgb(66, 66, 66)" stroke-width="1px" opacity="0.25"></line><line x1="251.64772727272725" y1="0" x2="251.64772727272725" y2="176" fill="rgb(0, 0, 0)" stroke="rgb(66, 66, 66)" stroke-width="1px" opacity="0.25"></line><line x1="276.8125" y1="0" x2="276.8125" y2="176" fill="rgb(0, 0, 0)" stroke="rgb(66, 66, 66)" stroke-width="1px" opacity="0.25"></line></g><g><line x1="0" y1="176" x2="276.8125" y2="176" fill="rgb(0, 0, 0)" stroke="rgb(66, 66, 66)" stroke-width="1px" opacity="0.25"></line><line x1="0" y1="158.4" x2="276.8125" y2="158.4" fill="rgb(0, 0, 0)" stroke="rgb(66, 66, 66)" stroke-width="1px" opacity="0.25"></line><line x1="0" y1="140.8" x2="276.8125" y2="140.8" fill="rgb(0, 0, 0)" stroke="rgb(66, 66, 66)" stroke-width="1px" opacity="0.25"></line><line x1="0" y1="123.19999999999999" x2="276.8125" y2="123.19999999999999" fill="rgb(0, 0, 0)" stroke="rgb(66, 66, 66)" stroke-width="1px" opacity="0.25"></line><line x1="0" y1="105.6" x2="276.8125" y2="105.6" fill="rgb(0, 0, 0)" stroke="rgb(66, 66, 66)" stroke-width="1px" opacity="0.25"></line><line x1="0" y1="88" x2="276.8125" y2="88" fill="rgb(0, 0, 0)" stroke="rgb(66, 66, 66)" stroke-width="1px" opacity="0.25"></line><line x1="0" y1="70.4" x2="276.8125" y2="70.4" fill="rgb(0, 0, 0)" stroke="rgb(66, 66, 66)" stroke-width="1px" opacity="0.25"></line><line x1="0" y1="52.79999999999999" x2="276.8125" y2="52.79999999999999" fill="rgb(0, 0, 0)" stroke="rgb(66, 66, 66)" stroke-width="1px" opacity="0.25"></line><line x1="0" y1="35.19999999999999" x2="276.8125" y2="35.19999999999999" fill="rgb(0, 0, 0)" stroke="rgb(66, 66, 66)" stroke-width="1px" opacity="0.25"></line><line x1="0" y1="17.599999999999994" x2="276.8125" y2="17.599999999999994" fill="rgb(0, 0, 0)" stroke="rgb(66, 66, 66)" stroke-width="1px" opacity="0.25"></line><line x1="0" y1="0" x2="276.8125" y2="0" fill="rgb(0, 0, 0)" stroke="rgb(66, 66, 66)" stroke-width="1px" opacity="0.25"></line></g></g></g><g><g><line x1="0" y1="193.60000000000002" x2="276.8125" y2="193.60000000000002" fill="rgb(0, 0, 0)" stroke="rgb(153, 153, 153)" stroke-width="1.5px"></line></g></g><g><g><line x1="25.164772727272727" y1="0" x2="25.164772727272727" y2="176" fill="rgb(0, 0, 0)" stroke="rgb(153, 153, 153)" stroke-width="1.5px"></line></g></g><g><g><g><g><g><path stroke="rgb(0, 119, 187)" stroke-width="2px" d="M25.66806818181818,26.047996139526383L25.768727272727272,24.4732630077161L26.171363636363637,15.663346841678392L26.27202272727273,28.877611251902017L26.574,24.91169672248238L26.67465909090909,33.92117208381701L26.976636363636366,37.46564489007315L27.077295454545453,41.14079036929184L27.177954545454543,49.451092110714995L27.58059090909091,39.648270061209914L28.486522727272728,40.892901414167866L28.7885,43.75409789528786L29.191136363636364,42.81481485324622L29.392454545454545,47.73800090048244L29.59377272727273,53.49071373219906L29.69443181818182,56.7414499811976L29.89575,61.756084836802074L30.097068181818184,67.26266412276115L30.19772727272727,66.16842163509195L30.499704545454545,69.93603279752396L30.600363636363635,59.94884219083461L30.70102272727273,62.54497797722891L30.80168181818182,65.70494677936429L30.902340909090906,71.86484540249982L31.506295454545455,74.10373004240233L31.707613636363636,75.64955343834765L31.808272727272726,76.2769189236501L31.90893181818182,79.18544417998191L32.00959090909091,82.99178312420187L32.31156818181818,85.91876314440985L32.41222727272727,84.70422978765195L32.51288636363636,87.42581773357863L32.61354545454545,88.91254083692286L33.11684090909091,88.50367520544046L33.62013636363636,90.27525280039676L33.92211363636363,91.18764183081836L34.02277272727273,92.60481118006422L34.62672727272727,91.70193460538664L35.432,89.8833137853315L35.73397727272727,92.84694726875345L35.83463636363636,93.92183154358204L36.53925,89.95932722597874L36.841227272727274,81.292406584715L37.042545454545454,83.30621526850851L37.747159090909086,86.40746144376448L37.847818181818184,85.8867849781001L38.149795454545455,88.99947215618454L38.250454545454545,89.1185225483264L38.955068181818184,82.09541275186785L39.15638636363636,85.4133713172313L39.357704545454546,85.23826207839096L39.45836363636364,87.7212814239398L39.559022727272726,92.05632029662539L40.26363636363636,87.78183445439342L40.76693181818182,86.77274009490384L40.96825,87.44996096270107L41.06890909090909,88.8565921082814L41.169568181818185,91.3601669373695L41.471545454545456,93.36896102453859L41.77352272727273,92.86988779365213L41.97484090909091,92.67474321044133L42.0755,93.81757242727971L42.37747727272727,85.33285925411947L42.98143181818182,87.07650901821985L43.08209090909091,90.10423079247104L43.283409090909096,91.26067174072135L43.58538636363637,87.05899333121977L43.78670454545454,87.92464314158156L43.88736363636364,89.49263073347257L44.08868181818181,92.07650684745691L44.29,93.99665912856388L44.3906590909091,95.75628644087173L45.09527272727273,97.04748752506748L45.79988636363637,97.69532525365784L45.90054545454545,98.90159924810587L46.00120454545455,99.61743794025277L46.40384090909091,100.52572635011373L47.41043181818182,102.05788700214586L47.51109090909091,99.72577235191932L47.71240909090909,100.61610951184409L47.91372727272728,101.67438667930782L48.11504545454545,102.56694603137566L48.41702272727272,105.49311728039615L48.51768181818182,108.4751129311706L48.61834090909091,107.68413999311971L48.92031818181818,107.33840615069515L49.92690909090909,107.82637671358869L50.12822727272727,106.69899291378397L50.73218181818182,105.93430935498677L51.03415909090909,107.4849966096733L51.13481818181818,106.57483439727469L51.23547727272727,104.08007683222804L51.33613636363636,104.2954411323912L51.537454545454544,104.57023057352089L51.940090909090905,102.30766556363746L52.14140909090909,102.35882109166987L52.342727272727274,105.4779327326151L52.54404545454546,107.75005393032514L53.047340909090906,108.93956381410348L53.24865909090909,109.96083442059557L53.65129545454545,105.07887402391675L54.35590909090909,106.83118425319483L54.45656818181818,107.28535442822752L54.959863636363636,109.22181269668704L55.060522727272726,111.26382323871964L55.16118181818182,110.0075030415497L55.362500000000004,112.6327060600562L55.46315909090909,110.70797322713946L55.563818181818185,102.14684738546292L55.966454545454546,104.22050173517889L56.067113636363636,103.28132333390062L56.26843181818182,103.91799581022083L56.57040909090909,104.83244244677219L56.973045454545456,106.13416586682592L57.07370454545455,109.42828731251527L57.17436363636363,107.58112987917926L57.27502272727273,109.00574339572442L57.476340909090915,108.21812621658565L57.778318181818186,109.8782395649264L57.87897727272727,110.94993927566719L57.97963636363636,112.73111039299658L58.28161363636363,114.1405627785456L58.583590909090915,115.42314949655598L59.18754545454546,114.92307325827399L59.38886363636364,114.08932443745647L59.69084090909091,114.09927186307706L59.7915,116.69542879909059L59.99281818181819,115.50844400733152L60.09347727272727,113.37711651717191L60.59677272727273,112.7859642107459L60.69743181818182,113.09520819284836L61.10006818181818,109.61064457989035L61.30138636363637,109.90654062326584L61.60336363636364,111.33444760573175L62.006,110.1238822702362L62.40863636363637,108.15085334765698L62.60995454545454,111.47912961901542L63.01259090909091,112.24641689053875L63.11325,113.54241591117793L63.21390909090909,114.77569503167891L63.41522727272727,114.63604553455656L63.51588636363637,116.28092163342454L63.91852272727272,117.96898992636203L64.01918181818182,118.30553090459969L64.42181818181818,116.83785728422671L64.52247727272727,116.42159138167229L64.62313636363636,117.74359227606715L65.52906818181819,116.99035285905833L66.03236363636363,118.72715773829384L66.73697727272727,120.15652241945541L66.83763636363636,120.91143044927301L67.34093181818182,122.92492783489719L67.4415909090909,122.64971503988832L67.64290909090909,122.45834343898439L67.84422727272727,119.99810837589294L68.24686363636363,120.48021758680471L69.15279545454545,114.87379498268197L69.25345454545455,115.62545562689743L69.35411363636365,118.65331026255413L69.45477272727273,117.98509897445432L69.75675,117.49634915923889L70.36070454545454,120.69967424799142L71.06531818181818,121.06938665897853L71.16597727272728,120.74036814307058L71.26663636363637,118.96585106558395L71.36729545454546,120.4628662319846L71.56861363636364,123.44697955732161L71.66927272727273,124.1614814358349L71.97125,114.77253358860163L72.07190909090909,114.02775998991409L72.57520454545454,117.54978397234258L72.67586363636363,120.30072579346728L73.0785,123.17785340428581L73.78311363636364,125.8271082119565L74.08509090909091,126.27191720294772L74.18575,125.82744567258466L74.38706818181818,125.64566132040137L74.58838636363636,125.61581504631695L74.89036363636363,127.70799361643917L75.99761363636364,129.566314434265L76.29959090909091,130.16872288236664L76.40025,125.89553025010008L76.50090909090909,124.11589725197011L76.70222727272728,124.01726730232225L76.90354545454545,123.0520207190053L77.00420454545456,123.8588188384204L77.20552272727272,120.7234968099203L77.70881818181817,114.0332270568266L77.80947727272728,115.21038446205154L78.41343181818182,117.42086620578961L78.61474999999999,120.11429962872022L78.71540909090909,116.83950921736579L78.81606818181818,119.88323803911727L78.91672727272729,116.29715389642999L79.01738636363636,116.70583835621326L79.11804545454545,118.0803746278134L79.31936363636363,116.19521739315759L79.42002272727272,117.67009554602609L79.52068181818183,118.0435659950732L80.02397727272727,118.52048916007776L80.12463636363637,117.79164033592288L80.22529545454545,116.55839606328352L80.42661363636364,120.03151643398408L80.82925,123.16788468377634L81.03056818181818,123.67445623910825L81.23188636363636,123.36653082153342L81.63452272727272,120.47403825705027L81.73518181818183,118.94791429996135L81.8358409090909,119.22880294473376L82.23847727272727,121.08672262134425L82.64111363636364,118.70381039896546L82.74177272727273,119.03726938599083L83.04375,120.11882258941615L83.24506818181818,122.77126057092339L83.34572727272727,120.90629410904964L83.44638636363636,119.34750422125632L83.54704545454545,120.2924337270678L83.64770454545454,120.9633503905191L83.74836363636364,123.34125552121895L83.94968181818182,125.98473000499122L84.0503409090909,125.15009692637898L84.55363636363637,127.00020712980465L84.65429545454546,125.17346647461707L84.95627272727273,126.85228001020273L85.05693181818181,125.3219321131699L85.35890909090908,126.0178989589525L85.55519431818182,126.51402901356283L85.86220454545455,126.10166621038164L86.06352272727273,124.8258995851049L86.26484090909092,120.76666964997155L86.46615909090909,117.60616265803385L86.76813636363636,120.40778647790013L87.17077272727273,122.031647932532L87.27143181818181,125.18624305373889L87.47275,126.56457858725653L87.77472727272728,126.49212089637642L88.17736363636362,128.51778870102436L88.68065909090909,129.90440967987774L89.38527272727273,131.06436864476473L89.48593181818181,132.87569158980116L89.68725,131.7180422554104L89.78790909090908,132.65791783181822L89.88856818181819,134.56332595213902L89.98922727272728,135.67979309677042L90.08988636363635,132.34797355040905L90.19054545454546,132.7285359880796L90.49252272727273,134.31008217527503L90.89515909090909,136.02915402825084L90.99581818181818,134.24639845169725L91.39845454545454,135.25727864513593L91.70043181818181,135.0688305867588L91.90175,135.39554734345256L92.10306818181817,135.6508728180771L92.40504545454544,135.04290572593467L92.50570454545455,136.6710951881729L92.60636363636364,137.79502543185475L92.70702272727273,139.06352280474815L92.80768181818182,140.1910904642699L93.009,139.31918167800404L93.10965909090909,137.15110343215218L93.21031818181818,138.0087928287756L93.41163636363636,137.8795937674555L93.51229545454545,139.61131442344168L93.61295454545454,140.36378300627513L93.71361363636363,140.8474046007438L93.91493181818183,139.11082398792777L94.11625000000001,138.27654170662717L94.2169090909091,134.49848781290942L94.92152272727272,135.83615925905139L95.22349999999999,133.5834232693635L95.32415909090909,134.36492069653207L95.42481818181818,134.6106685026724L95.62613636363636,133.92720142581194L95.92811363636363,134.07592139820576L96.12943181818183,132.36176903766636L96.33075,134.71215224971448L96.73338636363637,134.44093712964715L97.13602272727272,136.57988347291146L97.43799999999999,136.7273349888253L97.53865909090909,136.45172125999278L97.63931818181818,135.50318911049484L97.73997727272726,133.41751030183158L97.84063636363636,135.27863918688607L98.34393181818183,135.19013522875346L98.94788636363637,131.34760196100473L99.14920454545454,132.63076150558126L99.24986363636364,134.2643253315247L99.35052272727272,137.23053292173975L99.45118181818182,138.02747952466163L99.6525,135.81257166199333L99.95447727272727,134.88571428178943L100.05513636363636,135.0301029442477L100.35711363636364,135.1811725734527L100.45777272727273,136.30977525820037L100.55843181818182,136.0442374906811L100.75975,137.64621371643602L100.96106818181818,133.17791245892806L101.56502272727273,133.84860102756468L101.867,132.3191008224217L101.96765909090908,130.74895050771184L102.26963636363637,132.12365520936683L102.37029545454546,128.64408984788446L102.47095454545455,130.91568095750978L102.67227272727273,131.9815529137913L102.77293181818182,132.88451777011724L102.87359090909091,133.59862604597726L103.37688636363636,134.54052331381604L103.77952272727273,135.71911121070593L103.88018181818181,133.17888020628877L104.0815,135.29267230231335L104.28281818181819,136.45588526426647L104.48413636363635,136.1194165918132L104.58479545454546,135.54907497878972L104.68545454545455,135.07448765798898L104.78611363636362,136.58687885610306L104.88677272727273,137.15603116519492L105.18875,137.17898782879627L105.3900681818182,135.9676489519225L105.59138636363636,135.52512391154286L105.79270454545454,136.46093140373515L105.99402272727274,137.16587844547527L106.09468181818181,138.44801073184814L106.1953409090909,137.74336979965454L106.59797727272728,134.60295302194436L106.79929545454546,135.09593746294448L106.89995454545455,136.12042385008814L107.10127272727273,135.55350157082273L107.40325,137.74663138562613L107.80588636363636,138.26316846526422L108.10786363636363,138.3866118268677L108.4098409090909,139.66987076251283L108.51050000000001,141.15920369549312L108.71181818181817,140.38760325125205L108.91313636363635,139.82340295801768L109.11445454545455,136.27786215028354L109.61775,136.2161559428083L109.81906818181818,135.00606021928553L109.91972727272727,136.77169413609295L110.02038636363636,138.16012467422772L110.12104545454545,138.4487524140956L110.42302272727274,138.409317035891L111.02697727272728,139.06374533481957L111.22829545454545,139.73017054117528L111.32895454545455,140.88611346230036L111.42961363636364,139.61030196081214L111.63093181818182,140.5564719199891L112.03356818181818,138.5321849822779L112.23488636363636,139.96280645845349L112.33554545454545,139.0609257035078L112.73818181818183,138.86523296111417L112.8388409090909,139.44942977494233L112.9395,137.64496680080504L113.0401590909091,139.18191013079533L113.34213636363637,140.06883911855502L113.44279545454545,141.3387553241922L113.54345454545455,139.31367978338065L113.74477272727272,136.95607165649827L114.04674999999999,138.85406446357337L114.24806818181818,140.99521797567397L114.34872727272726,140.3244959599059L114.55004545454545,141.24148618515858L114.65070454545456,141.81685735347745L114.95268181818183,141.22237145867535L115.2546590909091,141.25405430525473L115.35531818181818,141.65920894858178L116.05993181818182,142.01328794881942L116.16059090909091,142.52203911952893L116.26124999999999,142.27239526044772L116.3619090909091,141.9033959668706L116.56322727272726,143.32777643816144L116.66388636363637,143.89163877084675L116.86520454545455,142.57575495166918L116.96586363636364,143.67945943048602L117.06652272727273,142.06095330868072L117.3685,143.3604580344609L117.4691590909091,140.39401229815348L117.56981818181818,136.80197125968334L117.67047727272727,136.4977740707725L117.87179545454545,137.10047675097553L118.47574999999999,137.6675490557364L118.5764090909091,135.47103394203285L118.87838636363637,136.05321064769836L119.583,137.04884979945072L119.88497727272727,136.98044496972844L120.58959090909092,137.83760043918625L120.69025,137.3911202014047L120.79090909090908,138.0945683390401L120.99222727272728,137.65407132302246L121.09288636363635,137.28930402035584L121.19354545454546,140.3930135843313L121.49552272727273,141.31723228548375L121.59618181818182,139.48438911903864L121.7975,141.18235028686195L121.99881818181818,139.2714753446168L122.09947727272727,137.57984784875984L122.50211363636363,138.8804231587172L122.60277272727274,138.41062097040896L123.00540909090908,138.34331872482377L123.10606818181819,135.87858691948006L123.20672727272728,136.62064805213228L123.30738636363635,138.98866326496258L123.60936363636363,137.80403668837477L123.71002272727273,138.24795315465386L123.81068181818182,140.2631577867364L124.11265909090909,140.1373219065155L124.2133181818182,138.85542976370027L125.0185909090909,139.8911666564098L125.42122727272728,140.01372979270977L125.62254545454546,140.93363668251837L125.81883068181818,141.72635281201127L125.82386363636363,144.29131746157339L126.1258409090909,143.26634560463722L126.2265,144.0510709837487L126.42781818181818,144.71860395628906L126.52847727272727,146.0832234486225L126.62913636363636,146.9805011604085L126.72979545454545,148.11541113500488L127.03177272727274,148.6053100315752L127.83704545454545,149.04621903848846L128.03836363636364,148.66159702973545L128.23968181818182,147.86839752230327L128.441,148.14715772181702L128.5416590909091,148.1586817834671L128.64231818181818,148.4999335325267L128.84363636363636,148.92322023718114L129.04495454545454,149.5505782461931L129.14561363636363,150.488320476124L129.24627272727272,150.25164854852196L129.54825,151.5487236743674L129.74956818181818,150.30489138414012L130.4541818181818,151.44176222726298L130.5548409090909,151.929906108182L130.85681818181817,150.86971565681816L131.05813636363638,148.88066404162157L131.66209090909092,149.7586776450125L131.76274999999998,148.04617000891398L131.9640681818182,146.6421928376582L132.16538636363637,146.39941335415483L132.56802272727273,147.2545118966309L132.9706590909091,147.08426067339846L133.17197727272728,148.09967468536615L133.37329545454546,149.01002723655154L133.67527272727273,148.79798464549526L133.77593181818182,149.45546624934326L133.8765909090909,149.0193598652689L133.97725,149.56670376880245L134.58120454545454,150.42187338730645L134.68186363636363,149.39984587485446L135.28581818181817,150.5427414124148L135.48713636363638,150.01550728544026L135.68845454545453,149.34387638149647L135.78911363636365,149.22516892294277L135.8897727272727,150.16729213303498L136.79570454545456,150.70192296421087L136.99702272727274,150.78533079787096L137.299,148.7871178951621L137.70163636363637,149.40696604312302L137.90295454545455,148.77154937083282L138.00361363636364,149.62175431038222L138.10427272727273,148.31717886255933L138.40625,148.9277010094531L138.5069090909091,147.38277089340158L138.7082272727273,146.11905383595231L138.80888636363636,144.89370856817126L138.90954545454545,147.1700975942811L139.21152272727272,147.51164792968635L139.31218181818184,147.6817630057973L140.31877272727272,146.30718694020294L140.52009090909092,147.4003083254902L140.62075000000002,146.22987756007984L140.92272727272726,146.1656098300881L141.02338636363638,147.89592872035504L141.12404545454547,148.5239357266307L141.4260227272727,149.63122202934147L141.52668181818183,145.85818000180709L141.62734090909092,145.3418021375822L143.13722727272727,146.79546201362194L143.43920454545454,147.4314357984124L143.64052272727272,146.2332523931317L143.74118181818181,147.245767054789L143.9425,144.84119024440594L144.04315909090909,144.929870959803L144.34513636363639,145.30536388816046L144.64711363636363,145.5729073810125L144.74777272727272,145.44409656234484L144.8484318181818,143.37104674078137L144.94909090909093,143.40610208180945L145.15040909090908,143.427091709978L145.35172727272726,144.5055024768769L145.55304545454547,145.03255226485663L145.75436363636362,145.943377119357L145.8550227272727,145.5416795307886L145.9556818181818,148.9007916093908L146.157,150.1675125134923L146.3583181818182,150.55428116437238L146.45897727272725,151.33181313857236L146.55963636363634,150.8594320051503L146.66029545454546,148.30820866280484L146.76095454545455,148.771787687424L147.76754545454546,149.41780901099727L148.17018181818182,147.19378791939158L148.57281818181818,146.9732891895557L148.67347727272727,147.77452020807723L148.77413636363636,144.95802829888754L148.97545454545454,144.6443054136094L149.2774318181818,144.39011476902274L149.57940909090908,145.99526328624583L149.78072727272726,145.60597685439552L149.98204545454547,146.1250590967819L150.08270454545456,147.37015317031907L150.2840227272727,147.74801785244793L150.6866590909091,147.4615359505497L150.7873181818182,148.91794240836643L150.88797727272726,150.538468218723L151.08929545454546,151.07470130999005L151.18995454545455,150.78643141817258L151.4919318181818,150.32634826628453L151.5925909090909,150.78875331754762L151.69325,150.81771786578247L151.7939090909091,151.82234600157514L151.8945681818182,149.9809112671403L151.99522727272728,150.60810012490043L152.49852272727273,148.59241021815382L152.59918181818182,149.52036929914453L152.8005,150.46817228069096L153.20313636363636,150.64887512269783L153.30379545454545,151.87102751979086L153.50511363636363,151.14408469899462L153.90775000000002,152.13015612754793L154.10906818181817,153.31330043548556L154.51170454545456,153.73045036382268L154.61236363636365,152.9513254247915L154.71302272727272,152.98579284454684L154.8136818181818,153.7454535302994L155.01500000000001,151.93346812523694L155.31697727272726,152.44284129676785L155.41763636363635,152.82383715156524L155.61895454545456,151.81153329709596L155.71961363636365,150.58717977016653L155.82027272727274,148.98542205163375L156.42422727272728,146.80111959637884L156.62554545454543,147.10916758890465L156.72620454545455,146.52753092988297L156.92752272727273,145.20501804838148L157.02818181818182,145.51779619654627L157.3301590909091,146.65465658486437L157.43081818181818,147.35751101953284L157.93411363636363,148.38431986554707L158.03477272727272,147.73500794277413L158.13543181818181,147.9883872315808L158.4374090909091,147.8785086410216L158.63872727272727,147.81833751591785L158.73938636363636,147.28898385160633L158.84004545454545,147.75240546518685L158.94070454545454,148.936844794042L159.04136363636366,149.6578803826157L159.14202272727275,150.06745229441975L159.444,148.2712668241178L159.7459772727273,146.51390014002754L160.24927272727274,146.1783502368036L160.34993181818183,144.3416350461158L160.4505909090909,143.86779140386994L160.55124999999998,145.7539721967639L160.95388636363637,147.69793488519144L161.35652272727273,148.60622148814875L161.5578409090909,149.42015937122474L161.6585,150.17734335857125L162.06113636363636,150.74616913852836L162.46377272727273,151.5819523148931L163.16838636363636,151.57735721348496L163.36970454545454,151.41130150388574L163.6716818181818,153.61321130482162L163.873,153.69765026707475L163.97365909090908,153.4955653465303L164.1749772727273,153.95432874767593L164.27563636363635,151.89265561945984L164.37629545454544,152.8742700986363L164.57761363636365,153.59932307114877L164.67827272727274,153.17123081187017L164.98024999999998,151.08226778775105L166.59079545454546,151.553561005619L166.69145454545455,150.9921250024082L166.7921136363636,151.39499249923006L166.89277272727273,151.38445322454965L167.2954090909091,152.5436079902142L167.59738636363636,152.21052706027237L167.69804545454545,151.43907410667128L168.00002272727275,152.6807667002003L168.1006818181818,154.01300999745018L168.2013409090909,154.73330899141092L168.6039772727273,155.41325809772485L168.70463636363638,155.91257222249214L168.80529545454544,154.92579475182984L169.00661363636362,156.15673523132827L169.10727272727274,156.6802617375686L169.20793181818183,154.89159562927196L169.40925,155.52755611963607L169.61056818181817,154.4138406058628L170.21452272727274,155.8297366661261L170.41584090909092,155.54468294999873L170.91913636363637,155.2881346054841L171.01979545454546,156.5567610396119L171.92572727272727,155.4774047350739L172.02638636363636,156.6461443593372L173.13363636363638,157.27560995193744L173.53627272727272,156.52212893282552L173.63693181818184,157.13231605632765L173.93890909090908,157.07604444691833L174.03956818181817,156.30028005006278L174.34154545454547,155.86609210338324L174.54286363636362,156.1194828405928L174.6435227272727,154.46785441889926L174.74418181818183,153.18906920779852L175.44879545454546,153.8967222454766L175.54945454545455,153.74513000750122L175.65011363636364,153.74949701640227L175.7507727272727,155.33742738735575L175.9520909090909,156.18576459323077L176.05275,155.79470820398367L176.25406818181818,155.8792374989799L176.35472727272725,156.38827385020954L176.45538636363636,154.2732862822357L176.55604545454545,154.29171774674742L177.0593409090909,153.72046581765375L177.2606590909091,153.9807393395337L177.76395454545454,154.82042552978686L177.86461363636363,153.31278307751617L178.16659090909093,153.53286481424394L178.87120454545456,153.7133383416315L179.0725227272727,152.54520428507152L180.07911363636364,153.02156379278262L180.2804318181818,153.78116744329714L180.38109090909091,154.78161058399246L180.5824090909091,155.33352954363673L180.6830681818182,155.3620965502487L180.88438636363634,155.9756468410933L180.98504545454546,156.80944214901123L181.589,156.989617976911L181.6896590909091,156.86665611627743L182.29361363636363,156.84399062004425L182.39427272727272,156.0139913440353L183.30020454545456,155.8161121118611L183.70284090909092,156.23642096655482L183.9041590909091,156.8646189701877L184.30679545454547,157.08855716338653L184.91075,156.2693013043782L185.1120681818182,154.7927711068017L185.21272727272728,155.5195741085788L185.41404545454546,155.41689658778134L185.71602272727273,156.36992694452903L185.91734090909088,155.5697342626646L186.018,156.09212090185838L186.31997727272727,155.2176286698421L186.42063636363636,154.19474586496116L186.62195454545454,155.16087128266122L186.72261363636363,156.23806426475429L186.82327272727272,156.792177736312L186.9239318181818,156.87199985106275L187.22590909090908,157.90127996372718L187.32656818181817,156.88459195644444L187.42722727272727,157.50429276541576L187.82986363636365,156.24570343180633L188.0311818181818,157.44321313814046L188.1318409090909,156.65889182432642L188.23250000000002,156.12548267672196L188.4338181818182,155.67005433645608L188.63513636363635,153.41216875678387L188.83645454545456,154.32983183830456L189.1384318181818,154.59252878161797L189.4404090909091,154.96975579141852L189.5410681818182,154.74958032976934L189.64172727272728,154.2205420584501L189.94370454545455,152.64616790631607L190.14502272727273,153.7002710367965L190.24568181818182,154.68064386597817L190.5476590909091,153.69737930314133L190.64831818181818,154.8998013879334L190.95029545454545,154.51414133180458L191.25227272727273,155.91648725988813L191.35293181818182,156.1472384457798L191.4535909090909,156.97795456931098L191.55425,156.3598390402058L191.85622727272727,155.15937517478994L192.25886363636366,156.62391776557206L192.4601818181818,156.88248599572873L192.5608409090909,155.95359714690352L192.6615,154.43471768734014L192.96347727272726,155.78164595637162L193.06413636363635,154.2271612465987L193.26545454545456,153.17660513704504L193.6680909090909,154.0368645213737L193.76874999999998,154.895578086021L193.8694090909091,155.42202031938055L194.17138636363637,154.84333834702807L194.57402272727273,154.0022043948326L194.67468181818182,153.30150374218402L194.87599999999998,154.05775329033656L194.9766590909091,153.98861804270854L195.07731818181819,154.58815624473195L195.17797727272728,154.77222064040035L195.37929545454546,154.90619858475264L195.68127272727273,156.0088588366366L195.78193181818182,155.43837283338218L195.8825909090909,155.56909558193482L195.98325,154.9757060833269L196.38588636363636,154.5613354624057L196.48654545454545,156.16312202400664L196.9898409090909,155.56664978551893L197.19115909090908,153.66758479018236L197.2918181818182,153.7747463560631L197.3924772727273,154.7054317250726L197.79511363636365,153.5155285920093L198.0970909090909,152.268615940099L198.29840909090908,152.73743447323298L198.60038636363637,154.34913109892298L198.70104545454544,153.50109796721063L198.80170454545453,153.44538806138922L198.90236363636365,153.5430892884L199.00302272727274,153.91262043886755L199.20434090909092,152.91815830266515L199.40565909090907,154.02602245267664L199.70763636363637,155.6496603035012L199.80829545454546,156.29077438560836L200.0096136363636,156.81145689291696L200.11027272727273,154.47815118851906L200.21093181818182,154.84921618422254L200.5129090909091,155.8484546648298L200.71422727272727,155.8818493259103L200.81488636363636,156.52438439835467L200.91554545454545,156.6098660139086L201.01620454545454,158.19687945972464L201.7208181818182,158.15031164047642L201.8214772727273,157.08056051335504L202.12345454545454,157.54338450314197L202.62675,157.91768616570465L203.02938636363638,158.17007754325954L203.23070454545453,157.41866974067767L203.63334090909092,156.3939228513725L203.734,156.1650905876357L203.93531818181816,154.05834163209784L204.33795454545455,154.85154746217418L204.4386136363636,154.84735261776646L204.53927272727273,155.21669727961958L204.7405909090909,155.83774764061636L204.84125,156.43189277458785L204.9419090909091,157.20246345348895L205.34454545454545,156.69565720213416L205.74718181818182,156.01777149367004L205.9485,154.55231456334295L206.0491590909091,154.77868299581021L206.2504772727273,154.82753458587L206.75377272727272,156.08238105804625L206.85443181818184,157.02166307476972L207.15640909090908,157.83533687807156L207.45838636363638,159.4194831652972L207.8610227272727,160.1447348991215L208.06234090909092,160.22722151033696L208.46497727272728,160.53377945917202L208.86761363636364,161.34120143142957L208.9682727272727,159.81860115904468L209.06893181818182,160.9193010435598L209.47156818181818,160.8046508502451L209.57222727272725,161.6624256829757L209.87420454545455,161.92754310670543L209.97486363636364,162.1837488237296L210.07552272727273,161.48153391450117L210.3775,161.17338047059897L210.67947727272727,159.9843624117898L210.7801363636364,160.50880613830034L210.98145454545454,159.25600540613837L211.18277272727272,159.92368497588373L211.28343181818184,160.93643647913458L211.38409090909093,161.80567290381484L212.08870454545453,162.6583855664363L212.2900227272727,161.45814696153673L212.3906818181818,161.08193233252175L212.99463636363637,162.13373909926955L213.09529545454546,163.12260524871837L213.19595454545455,162.86858469405374L213.29661363636365,162.21756612561884L213.3972727272727,160.37148958774873L213.59859090909092,158.78746044098557L213.9005681818182,158.69239444010753L214.6051818181818,157.63179505652158L214.7058409090909,157.46221552359435L214.8065,157.28143399179612L215.7124318181818,157.51649052757594L216.01440909090908,156.42564165525351L216.11506818181817,156.4611575812046L216.41704545454547,155.87712171524265L216.51770454545456,156.69612964316755L216.61836363636363,157.21499675564064L216.71902272727272,157.56229696678005L216.8196818181818,157.08990724450544L217.1216590909091,157.93899655907927L217.22231818181817,158.53773702653865L217.32297727272726,158.49932337885454L217.42363636363635,158.26411110894702L217.8262727272727,159.72793997350473L217.9269318181818,159.06010604581064L218.02759090909092,158.53297545088074L218.3295681818182,158.93855786299176L218.53088636363634,160.00054203011513L218.73220454545455,159.77360795382788L218.93352272727273,160.2909671739709L219.03418181818182,158.4580306395267L219.13484090909088,157.79750745514403L219.3361590909091,158.48431677299175L219.43681818181818,158.62372518549057L219.94011363636363,156.76039266022764L220.2420909090909,157.53683348148513L220.44340909090909,157.42251009389267L220.74538636363636,158.06233902911399L221.04736363636363,157.79690525418567L221.14802272727272,157.58265474932833L221.3493409090909,157.30886923579078L221.5506590909091,158.11846231556862L222.15461363636365,158.73797607603905L222.25527272727274,159.79537852927956L222.4565909090909,159.8494407539807L222.6579090909091,160.0811367075362L223.16120454545455,159.94470299607974L223.56384090909089,159.90639277452047L223.6645,160.92791361707881L223.7651590909091,161.35096236614973L223.86581818181818,161.2705860401564L225.07372727272727,161.84240749824403L225.27504545454545,161.8924068130406L225.47636363636366,159.20236605620553L225.6776818181818,158.7525294358984L226.0803181818182,159.27695647258656L226.18097727272726,158.8971008102217L226.28163636363635,159.097310711156L226.38229545454544,159.4006996094084L226.4779215909091,160.26862972190048L226.48295454545456,160.02544679293095L226.58361363636365,160.79218205615038L226.7849318181818,160.5600039172544L226.8855909090909,160.5587234361506L226.98624999999998,161.72973104448943L227.1875681818182,162.49851791738118L227.69086363636364,162.4195461667655L227.99284090909092,162.82367150518996L228.1941590909091,162.50802434921596L228.2948181818182,163.07930196380914L228.49613636363637,164.02641180267602L228.79811363636364,164.57609051624542L229.1000909090909,163.1312815716231L229.30140909090912,163.84791330787814L229.60338636363636,163.97544202828357L229.70404545454545,164.81181776545003L229.90536363636366,164.80423590917786L230.00602272727272,165.0543723921126L230.308,164.51565514744632L230.5093181818182,164.30536955423338L230.60997727272726,163.48955266678794L231.41525,164.2125974840325L231.51590909090908,164.57821771380915L231.71722727272729,164.59399586270106L232.22052272727274,163.99923637881744L232.7238181818182,164.5410727182764L232.82447727272728,164.63800536630197L232.92513636363637,165.52428476903714L233.12645454545452,165.22369639242183L233.22711363636364,164.8229267468854L233.42843181818182,163.68783407009877L233.62975,164.25729058084403L233.93172727272727,162.70004154709738L234.03238636363636,161.77723739028957L234.43502272727272,161.36207359922815L234.9383181818182,160.96378629469473L235.13963636363636,160.5278877210343L235.7435909090909,160.50517896697437L235.84425,160.44954101698562L235.94490909090908,160.73034695557024L236.0455681818182,160.62051219497266L236.1462272727273,160.0746209486199L236.44820454545453,159.4741988155728L236.64952272727274,160.4438990187781L236.95149999999998,159.595349175227L237.05215909090907,159.47933426483777L237.35413636363637,160.98708086059366L237.55545454545455,161.36197269480715L237.75677272727273,162.38225536574086L237.85743181818182,161.19906986441458L237.9580909090909,160.64108283894876L238.36072727272727,159.31169441322345L238.76336363636364,160.30820497315995L238.86402272727275,160.28282460130936L238.96468181818182,158.53518218062237L239.36731818181818,158.4583038866095L239.4679772727273,157.34015323694697L239.66929545454545,157.18565790989533L239.76995454545454,157.6309320408571L239.97127272727275,159.03135889635695L240.07193181818184,158.05302293538642L240.1725909090909,158.29540069555873L240.37390909090908,158.2495406692234L240.47456818181817,158.97914658173983L240.5752272727273,156.50651217030045L240.67588636363638,155.3547410153737L240.97786363636362,154.61734679550443L241.17918181818183,154.38665224561552L241.27984090909092,154.7105469690215L241.88379545454546,156.10733230946525L241.98445454545455,156.5020392039841L242.08511363636362,156.75519525463216L242.48775,157.74687577952292L242.68906818181816,157.03426809372914L242.89038636363637,156.62172137793075L243.29302272727273,158.3553892984644L243.99763636363636,156.8603303719749L244.29961363636363,156.4088572617641L244.50093181818184,156.6290915783886L244.70225,156.45418244153058L244.80290909090908,156.18412414744313L245.00422727272726,157.1660316999687L245.20554545454547,156.3460685064733L245.40686363636362,156.8823416969484L245.50752272727271,156.150587467668L245.60818181818183,157.8468886604764L245.91015909090908,158.47947981037422L246.01081818181817,158.98193176219812L246.31279545454547,159.5890185180004L246.41345454545456,160.15651669347542L246.6147727272727,153.72230524400703L246.91675,154.82367463987916L247.31938636363637,155.91698725058302L247.9233409090909,157.31984860986768L248.024,158.3113837035623L248.32597727272727,159.33048533488454L248.4266363636364,158.4313567413909L248.62795454545454,159.80806103116478L248.82927272727272,160.5894950136501L248.9299318181818,161.28926553830132L249.13125,162.10913908098303L249.23190909090908,163.089905184634L249.43322727272727,163.0679545755334L249.53388636363638,162.35827915029054L249.63454545454547,163.6414912809997L249.73520454545454,163.93750208408258L249.93652272727272,164.67207186392505L250.13784090909093,164.25606479082907L250.23850000000002,163.30789841623073L250.64113636363635,163.42606860230234L250.74179545454547,164.70458167996884L250.94311363636365,163.97556362694695L251.24509090909092,164.35784738552147L251.4464090909091,163.156622573956L251.74838636363634,163.50816036691444L252.3523409090909,163.44790429917134L252.95629545454545,163.48167375427923L253.35893181818182,163.3255062529663L253.6609090909091,164.05087573551117L254.16420454545457,163.42946820518057L254.36552272727272,162.46188133472813L254.66750000000002,160.57377297801924L255.27145454545456,160.4831156747623L255.37211363636365,160.18328407917176L255.5734318181818,160.36751572412626L255.8754090909091,161.5998841630433L256.17738636363634,161.40661574128393L256.27804545454546,162.26755410840923L256.3787045454546,162.20463861951959L257.28463636363637,162.91889487799762L257.3852954545454,163.23788527396403L257.48595454545455,163.21521663201227L257.58661363636367,161.1109749847565L257.7879318181818,161.42771741872252L257.98925,162.2443056898584L258.29122727272727,162.10627504324347L258.39188636363633,162.3762875783631L258.79452272727275,162.37289888514775L258.9958409090909,162.98232893872589L259.0965,163.6328961413651L259.1971590909091,161.9480064810708L259.2978181818182,162.23736593199322L260.1030909090909,161.90994945292965L261.00902272727274,162.72759456806148L261.2103409090909,163.3543551603505L261.5123181818182,163.69667961116573L262.01561363636364,162.80093169494813L262.3175909090909,163.2267584444673L262.41825,163.08200249805373L262.7202272727273,163.82820229650426L262.82088636363636,163.86970193970998L263.12286363636366,163.84369185735704L263.4248409090909,164.2990027568035L263.6261590909091,164.68062235188123L263.82747727272726,164.35880000297698L264.1294545454545,164.28739991162246L264.4314318181818,164.4308199355664L264.5320909090909,161.93749815013965L264.63275,161.46054829526207L264.83406818181817,162.37945343048807L265.6393409090909,161.1719079678485L265.84065909090907,161.73951725708508L266.04197727272725,162.26092553389427L266.24329545454543,161.1989930270823L266.74155795454544,160.4755737696927" style="fill: none;" fill="none"></path></g><g><path stroke="rgb(204, 51, 17)" stroke-width="2px" d="M45.29155795454546,54.48210487365722L65.42337613636364,57.06931788795871L85.55519431818182,59.83649524674641L105.6870125,61.112565768641986L125.81883068181818,61.42171610575366L145.95064886363636,61.92373507676774L166.08246704545454,61.333588604793846L186.21428522727274,60.6483831013294L206.34610340909092,59.544723732100934L226.4779215909091,58.617049756319304L246.60973977272727,57.46306461603269L266.74155795454544,56.386249316809504" style="fill: none;" fill="none"></path></g></g></g></g><g opacity="0.2"><g><g><g><path stroke="rgb(0, 119, 187)" stroke-width="2px" d="M25.66806818181818,26.04799613952636L25.768727272727272,23.05600318908691L26.171363636363637,0.5983901977539023L26.27202272727273,61.107202148437494L26.574,12.636794662475582L26.67465909090909,67.12640438079833L26.976636363636366,52.4127965927124L27.077295454545453,58.396803474426264L27.177954545454543,92.04799613952636L27.58059090909091,-14.396801376342758L28.486522727272728,48.18879852294921L28.7885,61.42400226593017L29.191136363636364,36.74879894256591L29.392454545454545,80.78400478363037L29.59377272727273,93.42080364227294L29.69443181818182,79.97439632415771L29.89575,98.52480087280273L30.097068181818184,108.55679759979247L30.19772727272727,57.798398590087885L30.499704545454545,99.26399765014648L30.600363636363635,-19.007990264892562L30.70102272727273,83.35360107421874L30.80168181818182,91.34400520324706L30.902340909090906,122.39040098190307L31.506295454545455,92.64640102386474L31.707613636363636,88.56319484710693L31.808272727272726,81.55839691162109L31.90893181818182,103.84000167846679L32.00959090909091,115.45599899291992L32.31156818181818,111.0208025932312L32.41222727272727,74.23679885864257L32.51288636363636,110.98560199737548L32.61354545454545,101.83360443115234L33.11684090909091,84.93760166168212L33.62013636363636,105.77599773406982L33.92211363636363,99.19359645843505L34.02277272727273,105.07199630737304L34.62672727272727,83.74080238342285L35.432,73.8144021987915L35.73397727272727,119.08159742355346L35.83463636363636,103.45280036926269L36.53925,54.77119979858398L36.841227272727274,4.224004364013668L37.042545454545454,101.23519954681396L37.747159090909086,114.0480013847351L37.847818181818184,81.24159679412841L38.149795454545455,116.79360065460205L38.250454545454545,90.18240127563476L38.955068181818184,19.28959712982177L39.15638636363636,115.10399827957153L39.357704545454546,83.67040119171142L39.45836363636364,109.96480045318603L39.559022727272726,130.90879831314086L40.26363636363636,49.455998992919916L40.76693181818182,77.721600151062L40.96825,93.52640018463134L41.06890909090909,101.48159847259521L41.169568181818185,113.83679780960082L41.471545454545456,111.40799865722656L41.77352272727273,88.3871971130371L41.97484090909091,90.92159805297851L42.0755,104.08640060424804L42.37747727272727,9.081592178344723L42.98143181818182,102.74879894256591L43.08209090909091,117.32159910202026L43.283409090909096,101.65759620666503L43.58538636363637,49.28000125885009L43.78670454545454,95.70879516601562L43.88736363636364,103.59360275268554L44.08868181818181,115.3152018547058L44.29,111.26720151901245L44.3906590909091,111.58400163650512L45.09527272727273,108.66239938735961L45.79988636363637,103.52320156097412L45.90054545454545,109.75360212326049L46.00120454545455,106.05760250091552L46.40384090909091,108.69759998321533L47.41043181818182,115.84320030212402L47.51109090909091,78.74240169525146L47.71240909090909,108.6271987915039L47.91372727272728,111.19680032730102L48.11504545454545,110.59840068817138L48.41702272727272,131.82399806976318L48.51768181818182,135.3087993621826L48.61834090909091,100.56640396118163L48.92031818181818,104.22720298767089L49.92690909090909,112.21760187149047L50.12822727272727,96.55359897613525L50.73218181818182,99.05280456542968L51.03415909090909,121.44000062942504L51.13481818181818,98.38399848937988L51.23547727272727,81.62879810333251L51.33613636363636,106.23360023498535L51.537454545454544,107.04319820404052L51.940090909090905,81.94559822082519L52.14140909090909,102.81920013427734L52.342727272727274,133.5488010406494L52.54404545454546,128.19839963912963L53.047340909090906,119.64480171203613L53.24865909090909,119.15199861526489L53.65129545454545,61.14239749908447L54.35590909090909,122.60159931182861L54.45656818181818,111.37279806137084L54.959863636363636,126.64959964752197L55.060522727272726,129.64159784317016L55.16118181818182,98.70079860687255L55.362500000000004,136.25919971466064L55.46315909090909,93.38559780120849L55.563818181818185,25.097595787048334L55.966454545454546,122.88319883346557L56.067113636363636,94.82879600524902L56.26843181818182,109.64800033569335L56.57040909090909,113.06240043640136L56.973045454545456,117.84959754943847L57.07370454545455,139.075200176239L57.17436363636363,90.95680389404296L57.27502272727273,121.82720193862914L57.476340909090915,101.12960300445556L57.778318181818186,124.81920013427734L57.87897727272727,120.59520206451415L57.97963636363636,128.76159868240356L58.28161363636363,126.82559738159179L58.583590909090915,126.96639976501464L59.18754545454546,110.42239770889282L59.38886363636364,106.58560094833373L59.69084090909091,114.18879852294921L59.7915,140.06080112457275L59.99281818181819,104.82559738159179L60.09347727272727,94.19519577026367L60.59677272727273,107.46560010910034L60.69743181818182,115.87840089797973L61.10006818181818,78.24960384368896L61.30138636363637,112.56960258483886L61.60336363636364,124.18559989929199L62.006,99.2288022994995L62.40863636363637,90.39360485076904L62.60995454545454,141.43359813690185L63.01259090909091,119.15199861526489L63.11325,125.20640144348144L63.21390909090909,125.8752022743225L63.41522727272727,113.37920055389404L63.51588636363637,131.08480129241943L63.91852272727272,133.1615997314453L64.01918181818182,121.3343988418579L64.42181818181818,103.62879810333251L64.52247727272727,112.67519912719726L64.62313636363636,129.64159784317016L65.52906818181819,110.21119937896728L66.03236363636363,134.35839900970458L66.73697727272727,133.0208025932312L66.83763636363636,127.70560178756713L67.34093181818182,141.0464020729065L67.4415909090909,120.17280015945434L67.64290909090909,120.73599920272827L67.84422727272727,97.85599479675292L68.24686363636363,124.81920013427734L69.15279545454545,64.41599521636962L69.25345454545455,122.39040098190307L69.35411363636365,145.90400037765502L69.45477272727273,111.97119770050048L69.75675,113.09760103225707L70.36070454545454,149.52959880828857L71.06531818181818,124.39679822921752L71.16597727272728,117.77920160293579L71.26663636363637,102.99519786834716L71.36729545454546,133.9360023498535L71.56861363636364,150.3039988040924L71.66927272727273,130.5919981956482L71.97125,30.272004699707026L72.07190909090909,107.32479772567748L72.57520454545454,149.2479992866516L72.67586363636363,145.05920181274413L73.0785,149.07200155258178L73.78311363636364,149.67040119171142L74.08509090909091,130.2751980781555L74.18575,121.82720193862914L74.38706818181818,124.00960216522216L74.58838636363636,125.34719858169555L74.89036363636363,146.53760061264038L75.99761363636364,146.29120168685913L76.29959090909091,135.59039888381957L76.40025,87.43679676055908L76.50090909090909,108.09920034408569L76.70222727272728,123.12959775924682L76.90354545454545,114.36480150222778L77.00420454545456,131.12000188827514L77.20552272727272,92.50559864044189L77.70881818181817,53.82079944610595L77.80947727272728,125.80480108261108L78.41343181818182,137.3152018547058L78.61474999999999,144.35520038604736L78.71540909090909,87.36639556884765L78.81606818181818,147.27679738998413L78.91672727272729,84.02239665985107L79.01738636363636,120.38399848937988L79.11804545454545,130.45120105743408L79.31936363636363,99.2288022994995L79.42002272727272,130.94399890899658L79.52068181818183,121.40480003356933L80.02397727272727,122.81279764175414L80.12463636363637,111.23200092315673L80.22529545454545,105.45919761657714L80.42661363636364,151.28959975242614L80.82925,151.3951989173889L81.03056818181818,128.23360023498535L81.23188636363636,120.59520206451415L81.63452272727272,94.4416051864624L81.73518181818183,105.21279869079589L81.8358409090909,121.75680074691772L82.23847727272727,137.8079997062683L82.64111363636364,97.25760040283203L82.74177272727273,122.03840026855468L83.04375,129.85280141830444L83.24506818181818,146.6432024002075L83.34572727272727,104.12159595489501L83.44638636363636,105.31839523315429L83.54704545454545,128.79679927825927L83.64770454545454,127.00160036087036L83.74836363636364,144.74240169525146L83.94968181818182,149.7760003566742L84.0503409090909,117.63839921951293L84.55363636363637,143.65119895935058L84.65429545454546,108.73280057907104L84.95627272727273,141.9616018295288L85.05693181818181,111.54880104064941L85.35890909090908,132.2816005706787L85.55519431818182,130.9791995048523L85.86220454545455,122.39040098190307L86.06352272727273,113.34399995803832L86.26484090909092,84.23360023498535L86.46615909090909,89.1615997314453L86.76813636363636,145.62240085601806L87.17077272727273,136.64640102386474L87.27143181818181,153.57759914398193L87.47275,138.96959838867187L87.77472727272728,125.84000167846679L88.17736363636362,146.7487989425659L88.68065909090909,142.38399848937988L89.38527272727273,141.50399932861328L89.48593181818181,149.17759809494018L89.68725,121.29919824600219L89.78790909090908,141.11679801940917L89.88856818181819,151.7119990348816L89.98922727272728,145.72799739837646L90.08988636363635,102.36159763336181L90.19054545454546,136.1535979270935L90.49252272727273,148.54399785995483L90.89515909090909,151.50080070495605L90.99581818181818,118.20159826278686L91.39845454545454,144.35520038604736L91.70043181818181,133.37279806137084L91.90175,138.33599815368652L92.10306818181817,137.94880208969116L92.40504545454544,129.57120189666747L92.50570454545455,151.32480034828185L92.60636363636364,147.91039762496948L92.70702272727273,150.4799991607666L92.80768181818182,150.33919939994811L93.009,131.47200260162353L93.10965909090909,117.63839921951293L93.21031818181818,145.72799739837646L93.41163636363636,136.71680221557617L93.51229545454545,155.19680032730102L93.61295454545454,147.13600025177L93.71361363636363,145.19999895095825L93.91493181818183,123.48159847259521L94.11625000000001,130.76800117492675L94.2169090909091,100.49600276947021L94.92152272727272,147.8752022743225L95.22349999999999,113.30879936218261L95.32415909090909,141.39839754104614L95.42481818181818,136.82239875793456L95.62613636363636,127.77599773406982L95.92811363636363,135.41440114974975L96.12943181818183,116.93439779281616L96.33075,155.86560115814208L96.73338636363637,132.00000104904174L97.13602272727272,155.83040056228637L97.43799999999999,138.05439863204955L97.53865909090909,133.97119770050048L97.63931818181818,126.96639976501464L97.73997727272726,114.64640102386474L97.84063636363636,152.02879915237426L98.34393181818183,134.3935996055603L98.94788636363637,96.76480255126953L99.14920454545454,144.1791974067688L99.24986363636364,148.96639976501464L99.35052272727272,163.9264012336731L99.45118181818182,145.19999895095825L99.6525,115.87840089797973L99.95447727272727,126.54399785995483L100.05513636363636,136.32960090637206L100.35711363636364,136.5407992362976L100.45777272727273,146.46719942092895L100.55843181818182,133.6543975830078L100.75975,152.06399974822997L100.96106818181818,92.96320114135742L101.56502272727273,139.88479814529418L101.867,118.55359897613525L101.96765909090908,116.61759767532348L102.26963636363637,144.49599752426147L102.37029545454546,97.32800159454345L102.47095454545455,151.36000094413757L102.67227272727273,141.5744005203247L102.77293181818182,141.01120147705078L102.87359090909091,140.02560052871704L103.37688636363636,143.01759872436523L103.77952272727273,146.32640228271484L103.88018181818181,110.31680116653442L104.0815,154.31680116653442L104.28281818181819,146.92480192184448L104.48413636363635,133.09119853973388L104.58479545454546,130.41600046157836L104.68545454545455,130.80320177078247L104.78611363636362,150.19839963912963L104.88677272727273,142.27840194702148L105.18875,137.3855978012085L105.3900681818182,125.06559906005859L105.59138636363636,131.54239854812622L105.79270454545454,144.88319883346557L105.99402272727274,143.51040182113647L106.09468181818181,149.9872013092041L106.1953409090909,131.4016014099121L106.59797727272728,106.33920202255248L106.79929545454546,139.5327974319458L106.89995454545455,145.3408013343811L107.10127272727273,130.45120105743408L107.40325,157.4847997188568L107.80588636363636,142.91200218200683L108.10786363636363,139.49760208129882L108.4098409090909,151.2192011833191L108.51050000000001,154.56320009231567L108.71181818181817,133.44319925308227L108.91313636363635,134.74560031890869L109.11445454545455,104.36799488067626L109.61775,135.660800075531L109.81906818181818,124.11519870758056L109.91972727272727,152.6623993873596L110.02038636363636,150.6559995174408L110.12104545454545,141.0464020729065L110.42302272727274,138.05439863204955L111.02697727272728,144.953600025177L111.22829545454545,145.72799739837646L111.32895454545455,151.28959975242614L111.42961363636364,128.1279984474182L111.63093181818182,149.07200155258178L112.03356818181818,120.31360254287719L112.23488636363636,152.8383997440338L112.33554545454545,130.94399890899658L112.73818181818183,137.10399827957153L112.8388409090909,144.70720109939575L112.9395,121.40480003356933L113.0401590909091,153.014400100708L113.34213636363637,148.05120000839233L113.44279545454545,152.76800117492675L113.54345454545455,121.08799991607665L113.74477272727272,115.73759851455688L114.04674999999999,155.93599972724914L114.24806818181818,160.26559958457946L114.34872727272726,134.28799781799316L114.55004545454545,149.49439821243286L114.65070454545456,146.99519786834716L114.95268181818183,135.87199840545654L115.2546590909091,141.539199924469L115.35531818181818,145.30560073852538L116.05993181818182,145.19999895095825L116.16059090909091,147.1007996559143L116.26124999999999,140.02560052871704L116.3619090909091,138.5824023246765L116.56322727272726,156.14720067977905L116.66388636363637,148.96639976501464L116.86520454545455,130.73280057907104L116.96586363636364,153.61279973983764L117.06652272727273,127.49439821243286L117.3685,155.05600056648254L117.4691590909091,113.69600067138671L117.56981818181818,104.47360191345214L117.67047727272727,133.75999937057495L117.87179545454545,142.52480087280273L118.47574999999999,142.77119979858398L118.5764090909091,115.70239791870117L118.87838636363637,141.29280099868774L119.583,146.00960216522216L119.88497727272727,136.36480150222778L120.58959090909092,145.55199966430663L120.69025,133.37279806137084L120.79090909090908,144.42560157775878L120.99222727272728,133.68959817886352L121.09288636363635,134.0063982963562L121.19354545454546,168.32639966011047L121.49552272727273,149.6352005958557L121.59618181818182,122.98880062103271L121.7975,156.46400079727172L121.99881818181818,122.0736008644104L122.09947727272727,122.35520038604736L122.50211363636363,150.58560094833373L122.60277272727274,134.18240127563476L123.00540909090908,137.73759851455688L123.10606818181819,113.69600067138671L123.20672727272728,143.2991982460022L123.30738636363635,160.30080018043517L123.60936363636363,127.14239749908447L123.71002272727273,142.24320135116577L123.81068181818182,158.39999947547912L124.11265909090909,139.00479898452758L124.2133181818182,127.31840047836303L125.0185909090909,149.2127986907959L125.42122727272728,141.11679801940917L125.62254545454546,149.2127986907959L125.81883068181818,148.8607979774475L125.82386363636363,167.37599930763244L126.1258409090909,134.0415988922119L126.2265,151.11359939575195L126.42781818181818,150.72640070915222L126.52847727272727,158.3647988796234L126.62913636363636,155.05600056648254L126.72979545454545,158.32960090637206L127.03177272727274,153.014400100708L127.83704545454545,153.014400100708L128.03836363636364,145.19999895095825L128.23968181818182,140.7296019554138L128.441,150.6559995174408L128.5416590909091,148.26239833831787L128.64231818181818,151.5711992740631L128.84363636363636,152.73280057907104L129.04495454545454,155.19680032730102L129.14561363636363,158.9280005455017L129.24627272727272,148.12160120010375L129.54825,163.2223998069763L129.74956818181818,139.11040077209472L130.4541818181818,161.67359981536865L130.5548409090909,156.32320103645324L130.85681818181817,141.32800159454345L131.05813636363638,130.9791995048523L131.66209090909092,157.660800075531L131.76274999999998,132.6336012840271L131.9640681818182,134.0063982963562L132.16538636363637,144.2143980026245L132.56802272727273,154.9503987789154L132.9706590909091,145.55199966430663L133.17197727272728,157.23840079307556L133.37329545454546,157.20320019721984L133.67527272727273,146.88960132598876L133.77593181818182,155.3728006839752L133.8765909090909,145.09440240859985L133.97725,154.49279890060424L134.58120454545454,158.11839995384216L134.68186363636363,140.20159826278686L135.28581818181817,160.82880125045776L135.48713636363638,145.27040014266967L135.68845454545453,143.2991982460022L135.78911363636365,148.15680179595947L135.8897727272727,158.64640102386474L136.79570454545456,155.5136004447937L136.99702272727274,151.53600130081176L137.299,130.80320177078247L137.70163636363637,154.9855993747711L137.90295454545455,143.05279932022094L138.00361363636364,157.2735987663269L138.10427272727273,136.57599983215331L138.40625,154.4224003314972L138.5069090909091,133.47839984893798L138.7082272727273,134.74560031890869L138.80888636363636,133.86560115814208L138.90954545454545,167.6575988292694L139.21152272727272,150.58560094833373L139.31218181818184,149.2127986907959L140.31877272727272,133.9360023498535L140.52009090909092,157.23840079307556L140.62075000000002,135.6960006713867L140.92272727272726,145.58720026016235L141.02338636363638,163.46879873275756L141.12404545454547,154.17599878311157L141.4260227272727,159.5967987537384L141.52668181818183,111.9008017539978L141.62734090909092,140.6944013595581L143.13722727272727,159.87840089797973L143.43920454545454,153.15519986152648L143.64052272727272,135.44960174560546L143.74118181818181,156.35839900970458L143.9425,123.19999895095825L144.04315909090909,145.72799739837646L144.34513636363639,148.68480024337768L144.64711363636363,147.9807988166809L144.74777272727272,144.28479919433593L144.8484318181818,124.7135983467102L144.94909090909093,143.721600151062L145.15040909090908,143.61599836349487L145.35172727272726,154.21119937896728L145.55304545454547,149.7760003566742L145.75436363636362,154.14080080986022L145.8550227272727,141.9264012336731L145.9556818181818,179.13280031681063L146.157,161.56800065040588L146.3583181818182,154.03519902229309L146.45897727272725,158.32960090637206L146.55963636363634,146.6080018043518L146.66029545454546,125.34719858169555L146.76095454545455,152.94399890899658L147.76754545454546,155.23200092315673L148.17018181818182,127.17759809494018L148.57281818181818,144.9888006210327L148.67347727272727,154.9855993747711L148.77413636363636,119.60960111618041L148.97545454545454,141.82079944610595L149.2774318181818,142.10239896774291L149.57940909090908,160.44159994125366L149.78072727272726,142.10239896774291L149.98204545454547,150.79679927825927L150.08270454545456,158.57599983215331L150.2840227272727,151.14879999160766L150.6866590909091,144.88319883346557L150.7873181818182,162.02560052871704L150.88797727272726,165.12320051193237L151.08929545454546,155.90079913139343L151.18995454545455,148.19200239181518L151.4919318181818,146.185599899292L151.5925909090909,154.9503987789154L151.69325,151.07839879989623L151.7939090909091,160.8639992237091L151.8945681818182,133.40799865722656L151.99522727272728,156.25279984474182L152.49852272727273,130.45120105743408L152.59918181818182,157.8720010280609L152.8005,158.99839911460876L153.20313636363636,152.27520070075988L153.30379545454545,162.87039909362792L153.50511363636363,144.6015993118286L153.90775000000002,161.00479898452758L154.10906818181817,163.96159920692443L154.51170454545456,157.4847997188568L154.61236363636365,145.93920097351074L154.71302272727272,153.29599962234497L154.8136818181818,160.58239970207214L155.01500000000001,135.6255994796753L155.31697727272726,157.02719984054565L155.41763636363635,156.25279984474182L155.61895454545456,142.70079860687255L155.71961363636365,139.5679980278015L155.82027272727274,134.56960258483886L156.42422727272728,127.14239749908447L156.62554545454543,149.88159952163696L156.72620454545455,141.29280099868774L156.92752272727273,133.30240211486816L157.02818181818182,148.3327995300293L157.3301590909091,156.88640007972717L157.43081818181818,153.68320093154907L157.93411363636363,157.6255994796753L158.03477272727272,141.89120063781738L158.13543181818181,150.26880083084106L158.4374090909091,146.88960132598876L158.63872727272727,147.27679738998413L158.73938636363636,142.52480087280273L158.84004545454545,151.9231999874115L158.94070454545454,159.5967987537384L159.04136363636366,156.14720067977905L159.14202272727275,153.75359950065612L159.444,132.10559759140014L159.7459772727273,130.69759998321533L160.24927272727274,143.15840110778808L160.34993181818183,127.81119832992553L160.4505909090909,139.60319862365722L160.55124999999998,162.72959933280944L160.95388636363637,165.19359908103942L161.35652272727273,156.7808009147644L161.5578409090909,156.74560031890869L161.6585,156.99199924468994L162.06113636363636,155.86560115814208L162.46377272727273,159.1040009021759L163.16838636363636,151.53600130081176L163.36970454545454,149.91680011749267L163.6716818181818,173.43039951324462L163.873,154.4576009273529L163.97365909090908,151.67680106163024L164.1749772727273,158.08319935798644L164.27563636363635,133.33759746551513L164.37629545454544,161.70880041122436L164.57761363636365,160.12479982376098L164.67827272727274,149.31840047836303L164.98024999999998,132.2816005706787L166.59079545454546,155.79519996643066L166.69145454545455,145.93920097351074L166.7921136363636,155.02079997062683L166.89277272727273,151.28959975242614L167.2954090909091,162.97600088119506L167.59738636363636,149.2127986907959L167.69804545454545,144.49599752426147L168.00002272727275,163.85600004196166L168.1006818181818,166.00319967269897L168.2013409090909,161.2159999370575L168.6039772727273,161.53280005455017L168.70463636363638,160.40639934539794L168.80529545454544,146.04479751586913L169.00661363636362,167.23519954681396L169.10727272727274,161.39200029373168L169.20793181818183,138.79360065460205L169.40925,161.2512005329132L169.61056818181817,144.39040098190307L170.21452272727274,168.5728012084961L170.41584090909092,152.9791995048523L170.91913636363637,152.9791995048523L171.01979545454546,167.97439894676208L171.92572727272727,145.76319799423217L172.02638636363636,167.1648009777069L173.13363636363638,162.94080028533935L173.53627272727272,149.74079976081848L173.63693181818184,162.62400016784667L173.93890909090908,156.5695999622345L174.03956818181817,149.31840047836303L174.34154545454547,151.9584005832672L174.54286363636362,158.39999947547912L174.6435227272727,139.60319862365722L174.74418181818183,141.68000230789184L175.44879545454546,160.26559958457946L175.54945454545455,152.38079986572265L175.65011363636364,153.78880009651184L175.7507727272727,169.62880072593688L175.9520909090909,163.82079944610595L176.05275,152.27520070075988L176.25406818181818,156.64000115394592L176.35472727272725,160.96960101127624L176.45538636363636,135.23839817047119L176.55604545454545,154.4576009273529L177.0593409090909,148.57919845581054L177.2606590909091,156.32320103645324L177.76395454545454,162.37760124206542L177.86461363636363,139.74400100708007L178.16659090909093,155.5136004447937L178.87120454545456,155.3376000881195L179.0725227272727,142.0319977760315L180.07911363636364,157.3087993621826L180.2804318181818,160.61760029792785L180.38109090909091,163.78559885025024L180.5824090909091,160.30080018043517L180.6830681818182,155.61919960975646L180.88438636363634,161.49759945869445L180.98504545454546,164.31359992027282L181.589,158.61120042800903L181.6896590909091,155.75999937057495L182.29361363636363,156.64000115394592L182.39427272727272,148.54399785995483L183.30020454545456,154.03519902229309L183.70284090909092,160.0192006587982L183.9041590909091,162.5184010028839L184.30679545454547,159.1040009021759L184.91075,148.89599857330322L185.1120681818182,141.50399932861328L185.21272727272728,162.06080112457275L185.41404545454546,154.49279890060424L185.71602272727273,164.94720015525817L185.91734090909088,148.368000125885L186.018,160.79360065460205L186.31997727272727,147.34719858169555L186.42063636363636,144.9888006210327L186.62195454545454,163.85600004196166L186.72261363636363,165.9328011035919L186.82327272727272,161.77919898033142L186.9239318181818,157.59039888381957L187.22590909090908,167.1648009777069L187.32656818181817,147.73439989089965L187.42722727272727,163.08160004615783L187.82986363636365,144.91839942932128L188.0311818181818,168.2208004951477L188.1318409090909,149.6L188.23250000000002,151.32480034828185L188.4338181818182,151.5711992740631L188.63513636363635,133.09119853973388L188.83645454545456,162.58879957199096L189.1384318181818,156.9568012714386L189.4404090909091,158.3647988796234L189.5410681818182,152.76800117492675L189.64172727272728,149.45919761657714L189.94370454545455,138.47680053710937L190.14502272727273,163.1871992111206L190.24568181818182,163.50399932861328L190.5476590909091,144.84799823760986L190.64831818181818,165.721600151062L190.95029545454545,151.0432008266449L191.25227272727273,168.53760061264038L191.35293181818182,158.22399911880493L191.4535909090909,164.4543996810913L191.55425,150.79679927825927L191.85622727272727,144.35520038604736L192.25886363636366,169.80480108261108L192.4601818181818,159.20960006713867L192.5608409090909,147.5935975074768L192.6615,140.76480255126953L192.96347727272726,167.90400037765502L193.06413636363635,140.23679885864257L193.26545454545456,143.721600151062L193.6680909090909,161.77919898033142L193.76874999999998,162.62400016784667L193.8694090909091,160.1600004196167L194.17138636363637,149.6352005958557L194.57402272727273,146.43199882507324L194.67468181818182,146.99519786834716L194.87599999999998,160.8639992237091L194.9766590909091,153.3664008140564L195.07731818181819,159.9840000629425L195.17797727272728,156.428800201416L195.37929545454546,156.11200008392333L195.68127272727273,165.9328011035919L195.78193181818182,150.3039988040924L195.8825909090909,156.74560031890869L195.98325,149.6352005958557L196.38588636363636,150.83199987411498L196.48654545454545,170.5792010784149L196.9898409090909,150.19839963912963L197.19115909090908,136.57599983215331L197.2918181818182,154.73920044898986L197.3924772727273,163.08160004615783L197.79511363636365,142.8064003944397L198.0970909090909,141.0464020729065L198.29840909090908,156.9568012714386L198.60038636363637,168.85440073013305L198.70104545454544,145.8687997817993L198.80170454545453,152.94399890899658L198.90236363636365,154.4224003314972L199.00302272727274,157.23840079307556L199.20434090909092,143.96799907684326L199.40565909090907,163.99679980278015L199.70763636363637,170.26240096092224L199.80829545454546,162.06080112457275L200.0096136363636,161.49759945869445L200.11027272727273,133.47839984893798L200.21093181818182,158.18880114555358L200.5129090909091,164.8416009902954L200.71422727272727,156.18240127563476L200.81488636363636,162.307200050354L200.91554545454545,157.37920055389404L201.01620454545454,172.48000047206878L201.7208181818182,157.73120126724243L201.8214772727273,147.4528003692627L202.12345454545454,161.70880041122436L202.62675,161.28640112876892L203.02938636363638,160.44159994125366L203.23070454545453,150.6559995174408L203.63334090909092,147.17120084762573L203.734,154.1056002140045L203.93531818181816,135.09760103225707L204.33795454545455,161.99039993286132L204.4386136363636,154.80959901809692L204.53927272727273,158.5407992362976L204.7405909090909,161.4272008895874L204.84125,161.77919898033142L204.9419090909091,164.13759956359863L205.34454545454545,152.1344009399414L205.74718181818182,149.91680011749267L205.9485,141.36320219039916L206.0491590909091,156.81599888801574L206.2504772727273,155.26719889640808L206.75377272727272,167.37599930763244L206.85443181818184,165.47520122528076L207.15640909090908,165.15840110778808L207.45838636363638,173.67679975032806L207.8610227272727,166.67200050354003L208.06234090909092,160.96960101127624L208.46497727272728,163.29280099868774L208.86761363636364,168.60799918174743L208.9682727272727,146.11519870758056L209.06893181818182,170.82560000419616L209.47156818181818,159.7727991104126L209.57222727272725,169.38239917755126L209.87420454545455,164.31359992027282L209.97486363636364,164.48960027694702L210.07552272727273,155.1615997314453L210.3775,158.39999947547912L210.67947727272727,149.28319988250732L210.7801363636364,165.22879967689514L210.98145454545454,147.9807988166809L211.18277272727272,165.9328011035919L211.28343181818184,170.05120000839233L211.38409090909093,169.62880072593688L212.08870454545453,170.3327995300293L212.2900227272727,150.6559995174408L212.3906818181818,157.6960006713867L212.99463636363637,171.6L213.09529545454546,172.02240059375762L213.19595454545455,160.58239970207214L213.29661363636365,156.35839900970458L213.3972727272727,143.75680074691772L213.59859090909092,144.53119812011718L213.9005681818182,157.8368004322052L214.6051818181818,148.08640060424804L214.7058409090909,155.93599972724914L214.8065,155.65440020561218L215.7124318181818,159.6319993495941L216.01440909090908,146.6080018043518L216.11506818181817,156.7808009147644L216.41704545454547,150.62079892158508L216.51770454545456,164.06720099449157L216.61836363636363,161.88480076789855L216.71902272727272,160.6879988670349L216.8196818181818,152.8383997440338L217.1216590909091,165.58080039024352L217.22231818181817,163.9264012336731L217.32297727272726,158.15360054969787L217.42363636363635,156.14720067977905L217.8262727272727,172.90239975452423L217.9269318181818,153.04960069656372L218.02759090909092,153.78880009651184L218.3295681818182,162.58879957199096L218.53088636363634,169.55839953422546L218.73220454545455,157.73120126724243L218.93352272727273,164.94720015525817L219.03418181818182,141.9616018295288L219.13484090909088,151.85279879570007L219.3361590909091,164.6656006336212L219.43681818181818,159.87840089797973L219.94011363636363,139.99039993286132L220.2420909090909,164.52480087280273L220.44340909090909,156.3935996055603L220.74538636363636,163.82079944610595L221.04736363636363,155.40800127983093L221.14802272727272,155.65440020561218L221.3493409090909,154.84479961395263L221.5506590909091,165.40480003356933L222.15461363636365,164.31359992027282L222.25527272727274,169.3120006084442L222.4565909090909,160.3360007762909L222.6579090909091,162.16640028953552L223.16120454545455,158.7167995929718L223.56384090909089,159.56160078048705L223.6645,170.12160120010375L223.7651590909091,165.15840110778808L223.86581818181818,160.54719910621642L225.07372727272727,166.9888006210327L225.27504545454545,162.3424006462097L225.47636363636366,134.99199924468994L225.6776818181818,154.70399985313415L226.0803181818182,163.99679980278015L226.18097727272726,155.47839984893798L226.28163636363635,160.8991998195648L226.38229545454544,162.1311996936798L226.4779215909091,168.08000073432922L226.48295454545456,157.8368004322052L226.58361363636365,167.69279942512512L226.7849318181818,158.47040066719055L226.8855909090909,160.54719910621642L226.98624999999998,172.26879951953887L227.1875681818182,169.41759977340698L227.69086363636364,161.70880041122436L227.99284090909092,166.46079955101013L228.1941590909091,159.66719994544982L228.2948181818182,168.2208004951477L228.49613636363637,172.55040035247802L228.79811363636364,169.52319893836975L229.1000909090909,150.12800107002258L229.30140909090912,170.29759893417358L229.60338636363636,165.12320051193237L229.70404545454545,172.33919939994811L229.90536363636366,164.73599920272827L230.00602272727272,167.30560073852538L230.308,159.66719994544982L230.5093181818182,162.41279921531677L230.60997727272726,156.14720067977905L231.41525,170.7200008392334L231.51590909090908,167.8687997817993L231.71722727272729,164.73599920272827L232.22052272727274,158.64640102386474L232.7238181818182,169.41759977340698L232.82447727272728,165.5103991985321L232.92513636363637,173.50079939365386L233.12645454545452,162.5184010028839L233.22711363636364,161.2159999370575L233.42843181818182,153.47199997901916L233.62975,169.38239917755126L233.93172727272727,148.68480024337768L234.03238636363636,153.47199997901916L234.43502272727272,157.6255994796753L234.9383181818182,157.37920055389404L235.13963636363636,156.6048005580902L235.7435909090909,160.30080018043517L235.84425,159.9487994670868L235.94490909090908,163.25760040283203L236.0455681818182,159.6319993495941L236.1462272727273,155.1615997314453L236.44820454545453,154.0703996181488L236.64952272727274,169.17120084762573L236.95149999999998,151.9584005832672L237.05215909090907,158.43520007133483L237.35413636363637,174.55680022239684L237.55545454545455,164.73599920272827L237.75677272727273,171.56479940414428L237.85743181818182,150.55040035247802L237.9580909090909,155.61919960975646L238.36072727272727,147.34719858169555L238.76336363636364,169.2768000125885L238.86402272727275,160.05440125465392L238.96468181818182,142.8064003944397L239.36731818181818,157.76639924049377L239.4679772727273,147.27679738998413L239.66929545454545,155.79519996643066L239.76995454545454,161.63839921951293L239.97127272727275,171.6352005958557L240.07193181818184,149.2479992866516L240.1725909090909,160.47680053710937L240.37390909090908,157.8368004322052L240.47456818181817,165.5455997943878L240.5752272727273,134.25280246734619L240.67588636363638,144.9888006210327L240.97786363636362,147.9807988166809L241.17918181818183,152.3104012966156L241.27984090909092,157.6255994796753L241.88379545454546,168.67840037345886L241.98445454545455,160.05440125465392L242.08511363636362,159.03359971046447L242.48775,166.67200050354003L242.68906818181816,150.62079892158508L242.89038636363637,152.90880093574523L243.29302272727273,173.9584005832672L243.99763636363636,143.40480003356933L244.29961363636363,152.34559926986694L244.50093181818184,158.61120042800903L244.70225,154.88000020980834L244.80290909090908,153.75359950065612L245.00422727272726,166.00319967269897L245.20554545454547,148.96639976501464L245.40686363636362,161.70880041122436L245.50752272727271,149.56479940414428L245.60818181818183,173.11359939575195L245.91015909090908,164.17280015945434L246.01081818181817,163.50399932861328L246.31279545454547,165.05279932022094L246.41345454545456,165.26400027275085L246.6147727272727,95.8144021987915L246.91675,164.73599920272827L247.31938636363637,165.75680074691772L247.9233409090909,169.94560084342956L248.024,167.23519954681396L248.32597727272727,168.50240001678466L248.4266363636364,150.33919939994811L248.62795454545454,172.19839963912963L248.82927272727272,167.62240085601806L248.9299318181818,167.58720026016235L249.13125,169.4880009651184L249.23190909090908,171.91680011749267L249.43322727272727,162.87039909362792L249.53388636363638,155.97120032310485L249.63454545454547,175.1904004573822L249.73520454545454,166.6015993118286L249.93652272727272,171.28319988250732L250.13784090909093,160.51200113296508L250.23850000000002,154.77440104484558L250.64113636363635,164.48960027694702L250.74179545454547,176.2111993789673L250.94311363636365,157.41440114974975L251.24509090909092,167.79840121269226L251.4464090909091,152.34559926986694L251.74838636363634,166.67200050354003L252.3523409090909,162.90559968948364L252.95629545454545,163.78559885025024L253.35893181818182,161.9199987411499L253.6609090909091,170.5792010784149L254.16420454545457,157.8368004322052L254.36552272727272,153.75359950065612L254.66750000000002,143.58079776763915L255.27145454545456,159.66719994544982L255.37211363636365,157.4847997188568L255.5734318181818,162.02560052871704L255.8754090909091,172.6912001132965L256.17738636363634,159.66719994544982L256.27804545454546,170.01599941253662L256.3787045454546,161.63839921951293L257.28463636363637,169.34720120429992L257.3852954545454,166.10879883766174L257.48595454545455,163.0111988544464L257.58661363636367,142.17280015945434L257.7879318181818,164.2783993244171L257.98925,169.59360013008117L258.29122727272727,160.8639992237091L258.39188636363633,164.8064003944397L258.79452272727275,162.3424006462097L258.9958409090909,168.46719942092895L259.0965,169.4880009651184L259.1971590909091,146.78399953842163L259.2978181818182,164.8416009902954L260.1030909090909,158.96320114135742L261.00902272727274,170.08640060424804L261.2103409090909,168.99520049095153L261.5123181818182,166.7775996685028L262.01561363636364,154.73920044898986L262.3175909090909,167.05919919013976L262.41825,161.77919898033142L262.7202272727273,170.5440004825592L262.82088636363636,164.2431987285614L263.12286363636366,163.60960111618041L263.4248409090909,168.3968008518219L263.6261590909091,168.11519870758056L263.82747727272726,161.46239886283874L264.1294545454545,163.64479908943176L264.4314318181818,165.721600151062L264.5320909090909,139.49760208129882L264.63275,157.16799960136413L264.83406818181817,170.64959964752197L265.6393409090909,150.3039988040924L265.84065909090907,166.84800086021423L266.04197727272725,166.953600025177L266.24329545454543,151.64160046577453L266.74155795454544,153.96480045318603" style="fill: none;" fill="none"></path></g><g><path stroke="rgb(204, 51, 17)" stroke-width="2px" d="M45.29155795454546,54.48210487365722L65.42337613636364,59.39780960083007L85.55519431818182,64.56836853027343L105.6870125,64.2249017715454L125.81883068181818,62.37856731414794L145.95064886363636,63.773971176147455L166.08246704545454,58.84492263793945L186.21428522727274,57.43111858367919L206.34610340909092,53.887591934204096L226.4779215909091,53.50258312225341L246.60973977272727,50.69852600097656L266.74155795454544,49.736156082153315" style="fill: none;" fill="none"></path></g></g></g></g></g></g><g transform="translate(53, 176)" clip-path="url(#clip_1)"><clipPath id="clip_1"><rect width="276" height="24"></rect></clipPath><g><g><line x1="0" y1="0" x2="0" y2="5" style="visibility: inherit;" fill="rgb(0, 0, 0)" stroke="rgb(204, 204, 204)" stroke-width="1px"></line><line x1="25.164772727272727" y1="0" x2="25.164772727272727" y2="5" style="visibility: inherit;" fill="rgb(0, 0, 0)" stroke="rgb(204, 204, 204)" stroke-width="1px"></line><line x1="50.32954545454545" y1="0" x2="50.32954545454545" y2="5" style="visibility: inherit;" fill="rgb(0, 0, 0)" stroke="rgb(204, 204, 204)" stroke-width="1px"></line><line x1="75.49431818181817" y1="0" x2="75.49431818181817" y2="5" style="visibility: inherit;" fill="rgb(0, 0, 0)" stroke="rgb(204, 204, 204)" stroke-width="1px"></line><line x1="100.6590909090909" y1="0" x2="100.6590909090909" y2="5" style="visibility: inherit;" fill="rgb(0, 0, 0)" stroke="rgb(204, 204, 204)" stroke-width="1px"></line><line x1="125.82386363636363" y1="0" x2="125.82386363636363" y2="5" style="visibility: inherit;" fill="rgb(0, 0, 0)" stroke="rgb(204, 204, 204)" stroke-width="1px"></line><line x1="150.98863636363635" y1="0" x2="150.98863636363635" y2="5" style="visibility: inherit;" fill="rgb(0, 0, 0)" stroke="rgb(204, 204, 204)" stroke-width="1px"></line><line x1="176.1534090909091" y1="0" x2="176.1534090909091" y2="5" style="visibility: inherit;" fill="rgb(0, 0, 0)" stroke="rgb(204, 204, 204)" stroke-width="1px"></line><line x1="201.3181818181818" y1="0" x2="201.3181818181818" y2="5" style="visibility: inherit;" fill="rgb(0, 0, 0)" stroke="rgb(204, 204, 204)" stroke-width="1px"></line><line x1="226.48295454545456" y1="0" x2="226.48295454545456" y2="5" style="visibility: inherit;" fill="rgb(0, 0, 0)" stroke="rgb(204, 204, 204)" stroke-width="1px"></line><line x1="251.64772727272725" y1="0" x2="251.64772727272725" y2="5" style="visibility: inherit;" fill="rgb(0, 0, 0)" stroke="rgb(204, 204, 204)" stroke-width="1px"></line><line x1="276.8125" y1="0" x2="276.8125" y2="5" style="visibility: inherit;" fill="rgb(0, 0, 0)" stroke="rgb(204, 204, 204)" stroke-width="1px"></line></g><g transform="translate(0, 8)"><text x="0" y="0" dx="0em" dy="0.95em" style="text-anchor: middle; visibility: hidden; font-family: Roboto, sans-serif; font-size: 12px; font-weight: 200;" fill="rgb(33, 33, 33)" stroke="none" stroke-width="1px">-5k</text><text x="25.164772727272727" y="0" dx="0em" dy="0.95em" style="text-anchor: middle; visibility: inherit; font-family: Roboto, sans-serif; font-size: 12px; font-weight: 200;" fill="rgb(33, 33, 33)" stroke="none" stroke-width="1px">0</text><text x="50.32954545454545" y="0" dx="0em" dy="0.95em" style="text-anchor: middle; visibility: inherit; font-family: Roboto, sans-serif; font-size: 12px; font-weight: 200;" fill="rgb(33, 33, 33)" stroke="none" stroke-width="1px">5k</text><text x="75.49431818181817" y="0" dx="0em" dy="0.95em" style="text-anchor: middle; visibility: inherit; font-family: Roboto, sans-serif; font-size: 12px; font-weight: 200;" fill="rgb(33, 33, 33)" stroke="none" stroke-width="1px">10k</text><text x="100.6590909090909" y="0" dx="0em" dy="0.95em" style="text-anchor: middle; visibility: inherit; font-family: Roboto, sans-serif; font-size: 12px; font-weight: 200;" fill="rgb(33, 33, 33)" stroke="none" stroke-width="1px">15k</text><text x="125.82386363636363" y="0" dx="0em" dy="0.95em" style="text-anchor: middle; visibility: inherit; font-family: Roboto, sans-serif; font-size: 12px; font-weight: 200;" fill="rgb(33, 33, 33)" stroke="none" stroke-width="1px">20k</text><text x="150.98863636363635" y="0" dx="0em" dy="0.95em" style="text-anchor: middle; visibility: inherit; font-family: Roboto, sans-serif; font-size: 12px; font-weight: 200;" fill="rgb(33, 33, 33)" stroke="none" stroke-width="1px">25k</text><text x="176.1534090909091" y="0" dx="0em" dy="0.95em" style="text-anchor: middle; visibility: inherit; font-family: Roboto, sans-serif; font-size: 12px; font-weight: 200;" fill="rgb(33, 33, 33)" stroke="none" stroke-width="1px">30k</text><text x="201.3181818181818" y="0" dx="0em" dy="0.95em" style="text-anchor: middle; visibility: inherit; font-family: Roboto, sans-serif; font-size: 12px; font-weight: 200;" fill="rgb(33, 33, 33)" stroke="none" stroke-width="1px">35k</text><text x="226.48295454545456" y="0" dx="0em" dy="0.95em" style="text-anchor: middle; visibility: inherit; font-family: Roboto, sans-serif; font-size: 12px; font-weight: 200;" fill="rgb(33, 33, 33)" stroke="none" stroke-width="1px">40k</text><text x="251.64772727272725" y="0" dx="0em" dy="0.95em" style="text-anchor: middle; visibility: inherit; font-family: Roboto, sans-serif; font-size: 12px; font-weight: 200;" fill="rgb(33, 33, 33)" stroke="none" stroke-width="1px">45k</text><text x="276.8125" y="0" dx="0em" dy="0.95em" style="text-anchor: middle; visibility: hidden; font-family: Roboto, sans-serif; font-size: 12px; font-weight: 200;" fill="rgb(33, 33, 33)" stroke="none" stroke-width="1px">50k</text></g><line x1="0" y1="0" x2="276.8125" y2="0" fill="rgb(0, 0, 0)" stroke="rgb(204, 204, 204)" stroke-width="1px"></line></g></g></g></g></svg>