<svg viewBox="0 0 330 200" xmlns="http://www.w3.org/2000/svg"><g><g><g><g><g><line x1="53.1875" y1="176" x2="48.1875" y2="176" style="visibility: inherit;" fill="rgb(0, 0, 0)" stroke="rgb(204, 204, 204)" stroke-width="1px"></line><line x1="53.1875" y1="154" x2="48.1875" y2="154" style="visibility: inherit;" fill="rgb(0, 0, 0)" stroke="rgb(204, 204, 204)" stroke-width="1px"></line><line x1="53.1875" y1="132" x2="48.1875" y2="132" style="visibility: inherit;" fill="rgb(0, 0, 0)" stroke="rgb(204, 204, 204)" stroke-width="1px"></line><line x1="53.1875" y1="110" x2="48.1875" y2="110" style="visibility: inherit;" fill="rgb(0, 0, 0)" stroke="rgb(204, 204, 204)" stroke-width="1px"></line><line x1="53.1875" y1="88" x2="48.1875" y2="88" style="visibility: inherit;" fill="rgb(0, 0, 0)" stroke="rgb(204, 204, 204)" stroke-width="1px"></line><line x1="53.1875" y1="66" x2="48.1875" y2="66" style="visibility: inherit;" fill="rgb(0, 0, 0)" stroke="rgb(204, 204, 204)" stroke-width="1px"></line><line x1="53.1875" y1="43.99999999999998" x2="48.1875" y2="43.99999999999998" style="visibility: inherit;" fill="rgb(0, 0, 0)" stroke="rgb(204, 204, 204)" stroke-width="1px"></line><line x1="53.1875" y1="22.00000000000002" x2="48.1875" y2="22.00000000000002" style="visibility: inherit;" fill="rgb(0, 0, 0)" stroke="rgb(204, 204, 204)" stroke-width="1px"></line><line x1="53.1875" y1="0" x2="48.1875" y2="0" style="visibility: inherit;" fill="rgb(0, 0, 0)" stroke="rgb(204, 204, 204)" stroke-width="1px"></line></g><g transform="translate(43.1875, 0)"><text x="0" y="176" dx="0em" dy="0.3em" style="text-anchor: end; visibility: hidden; font-family: Roboto, sans-serif; font-size: 12px; font-weight: 200;" fill="rgb(33, 33, 33)" stroke="none" stroke-width="1px">0.25</text><text x="0" y="154" dx="0em" dy="0.3em" style="text-anchor: end; visibility: inherit; font-family: Roboto, sans-serif; font-size: 12px; font-weight: 200;" fill="rgb(33, 33, 33)" stroke="none" stroke-width="1px">0.3</text><text x="0" y="132" dx="0em" dy="0.3em" style="text-anchor: end; visibility: hidden; font-family: Roboto, sans-serif; font-size: 12px; font-weight: 200;" fill="rgb(33, 33, 33)" stroke="none" stroke-width="1px">0.35</text><text x="0" y="110" dx="0em" dy="0.3em" style="text-anchor: end; visibility: inherit; font-family: Roboto, sans-serif; font-size: 12px; font-weight: 200;" fill="rgb(33, 33, 33)" stroke="none" stroke-width="1px">0.4</text><text x="0" y="88" dx="0em" dy="0.3em" style="text-anchor: end; visibility: hidden; font-family: Roboto, sans-serif; font-size: 12px; font-weight: 200;" fill="rgb(33, 33, 33)" stroke="none" stroke-width="1px">0.45</text><text x="0" y="66" dx="0em" dy="0.3em" style="text-anchor: end; visibility: inherit; font-family: Roboto, sans-serif; font-size: 12px; font-weight: 200;" fill="rgb(33, 33, 33)" stroke="none" stroke-width="1px">0.5</text><text x="0" y="43.99999999999998" dx="0em" dy="0.3em" style="text-anchor: end; visibility: hidden; font-family: Roboto, sans-serif; font-size: 12px; font-weight: 200;" fill="rgb(33, 33, 33)" stroke="none" stroke-width="1px">0.55</text><text x="0" y="22.00000000000002" dx="0em" dy="0.3em" style="text-anchor: end; visibility: inherit; font-family: Roboto, sans-serif; font-size: 12px; font-weight: 200;" fill="rgb(33, 33, 33)" stroke="none" stroke-width="1px">0.6</text><text x="0" y="0" dx="0em" dy="0.3em" style="text-anchor: end; visibility: hidden; font-family: Roboto, sans-serif; font-size: 12px; font-weight: 200;" fill="rgb(33, 33, 33)" stroke="none" stroke-width="1px">0.65</text></g><line x1="53.1875" y1="0" x2="53.1875" y2="176" fill="rgb(0, 0, 0)" stroke="rgb(204, 204, 204)" stroke-width="1px"></line></g></g><g transform="translate(53, 0)" clip-path="url(#clip_0)"><clipPath id="clip_0"><rect width="276" height="176"></rect></clipPath><g><g><g><line x1="0" y1="0" x2="0" y2="176" fill="rgb(0, 0, 0)" stroke="rgb(66, 66, 66)" stroke-width="1px" opacity="0.25"></line><line x1="25.164772727272727" y1="0" x2="25.164772727272727" y2="176" fill="rgb(0, 0, 0)" stroke="rgb(66, 66, 66)" stroke-width="1px" opacity="0.25"></line><line x1="50.32954545454545" y1="0" x2="50.32954545454545" y2="176" fill="rgb(0, 0, 0)" stroke="rgb(66, 66, 66)" stroke-width="1px" opacity="0.25"></line><line x1="75.49431818181817" y1="0" x2="75.49431818181817" y2="176" fill="rgb(0, 0, 0)" stroke="rgb(66, 66, 66)" stroke-width="1px" opacity="0.25"></line><line x1="100.6590909090909" y1="0" x2="100.6590909090909" y2="176" fill="rgb(0, 0, 0)" stroke="rgb(66, 66, 66)" stroke-width="1px" opacity="0.25"></line><line x1="125.82386363636363" y1="0" x2="125.82386363636363" y2="176" fill="rgb(0, 0, 0)" stroke="rgb(66, 66, 66)" stroke-width="1px" opacity="0.25"></line><line x1="150.98863636363635" y1="0" x2="150.98863636363635" y2="176" fill="rgb(0, 0, 0)" stroke="rgb(66, 66, 66)" stroke-width="1px" opacity="0.25"></line><line x1="176.1534090909091" y1="0" x2="176.1534090909091" y2="176" fill="rgb(0, 0, 0)" stroke="rgb(66, 66, 66)" stroke-width="1px" opacity="0.25"></line><line x1="201.3181818181818" y1="0" x2="201.3181818181818" y2="176" fill="rgb(0, 0, 0)" stroke="rgb(66, 66, 66)" stroke-width="1px" opacity="0.25"></line><line x1="226.48295454545456" y1="0" x2="226.48295454545456" y2="176" fill="rgb(0, 0, 0)" stroke="rgb(66, 66, 66)" stroke-width="1px" opacity="0.25"></line><line x1="251.64772727272725" y1="0" x2="251.64772727272725" y2="176" fill="rgb(0, 0, 0)" stroke="rgb(66, 66, 66)" stroke-width="1px" opacity="0.25"></line><line x1="276.8125" y1="0" x2="276.8125" y2="176" fill="rgb(0, 0, 0)" stroke="rgb(66, 66, 66)" stroke-width="1px" opacity="0.25"></line></g><g><line x1="0" y1="176" x2="276.8125" y2="176" fill="rgb(0, 0, 0)" stroke="rgb(66, 66, 66)" stroke-width="1px" opacity="0.25"></line><line x1="0" y1="154" x2="276.8125" y2="154" fill="rgb(0, 0, 0)" stroke="rgb(66, 66, 66)" stroke-width="1px" opacity="0.25"></line><line x1="0" y1="132" x2="276.8125" y2="132" fill="rgb(0, 0, 0)" stroke="rgb(66, 66, 66)" stroke-width="1px" opacity="0.25"></line><line x1="0" y1="110" x2="276.8125" y2="110" fill="rgb(0, 0, 0)" stroke="rgb(66, 66, 66)" stroke-width="1px" opacity="0.25"></line><line x1="0" y1="88" x2="276.8125" y2="88" fill="rgb(0, 0, 0)" stroke="rgb(66, 66, 66)" stroke-width="1px" opacity="0.25"></line><line x1="0" y1="66" x2="276.8125" y2="66" fill="rgb(0, 0, 0)" stroke="rgb(66, 66, 66)" stroke-width="1px" opacity="0.25"></line><line x1="0" y1="43.99999999999998" x2="276.8125" y2="43.99999999999998" fill="rgb(0, 0, 0)" stroke="rgb(66, 66, 66)" stroke-width="1px" opacity="0.25"></line><line x1="0" y1="22.00000000000002" x2="276.8125" y2="22.00000000000002" fill="rgb(0, 0, 0)" stroke="rgb(66, 66, 66)" stroke-width="1px" opacity="0.25"></line><line x1="0" y1="0" x2="276.8125" y2="0" fill="rgb(0, 0, 0)" stroke="rgb(66, 66, 66)" stroke-width="1px" opacity="0.25"></line></g></g></g><g><g><line x1="0" y1="286" x2="276.8125" y2="286" fill="rgb(0, 0, 0)" stroke="rgb(153, 153, 153)" stroke-width="1.5px"></line></g></g><g><g><line x1="25.164772727272727" y1="0" x2="25.164772727272727" y2="176" fill="rgb(0, 0, 0)" stroke="rgb(153, 153, 153)" stroke-width="1.5px"></line></g></g><g><g><g><g><g><path stroke="rgb(0, 119, 187)" stroke-width="2px" d="M25.66806818181818,98.86799907684326L25.768727272727272,84.81115712617571L26.171363636363637,76.29486293722343L26.27202272727273,67.54381022407551L26.574,73.58131728056216L26.67465909090909,56.65680791769746L26.976636363636366,60.13449413481791L27.077295454545453,58.60718995989682L27.177954545454543,53.07661098978784L27.58059090909091,50.48731799955513L28.486522727272728,59.79505149550133L28.7885,56.17128947092733L29.191136363636364,59.30621792273236L29.392454545454545,71.73850391351698L29.59377272727273,70.2456990272008L29.69443181818182,69.0818686697079L29.89575,71.96488819226408L30.097068181818184,75.28562343823907L30.19772727272727,77.32031849408253L30.499704545454545,76.63268639294992L30.600363636363635,84.04035822743674L30.70102272727273,80.72148942124528L30.80168181818182,79.24135669433673L30.902340909090906,84.5681176300164L31.506295454545455,88.94814795651459L31.707613636363636,87.87307179652402L31.808272727272726,92.16111291215722L31.90893181818182,85.92292899695437L32.00959090909091,89.06839199164033L32.31156818181818,93.64809141501387L32.41222727272727,94.66653787196421L32.51288636363636,95.98101975037804L32.61354545454545,96.25168153917754L33.11684090909091,99.20011716725406L33.62013636363636,95.53311427983664L33.92211363636363,91.25134148955793L34.02277272727273,88.96137654147421L34.62672727272727,89.67017250560451L35.432,91.2808070418155L35.73397727272727,94.02042087635395L35.83463636363636,95.03791380565292L36.53925,95.02031202954353L36.841227272727274,98.2337066534229L37.042545454545454,96.57383888383224L37.747159090909086,86.24550879192326L37.847818181818184,89.28281585917193L38.149795454545455,91.2274823626755L38.250454545454545,91.31891554499838L38.955068181818184,85.39590526495391L39.15638636363636,91.3586455123754L39.357704545454546,94.88915634991831L39.45836363636364,95.46544673688291L39.559022727272726,89.92850027668396L40.26363636363636,90.60915133331794L40.76693181818182,90.16207565459263L40.96825,91.75422847106061L41.06890909090909,87.25812302537602L41.169568181818185,87.83519080207493L41.471545454545456,92.04006798015722L41.77352272727273,91.0755274817067L41.97484090909091,91.85603696644529L42.0755,88.60570278318139L42.37747727272727,84.54020697445407L42.98143181818182,83.56063108088509L43.08209090909091,81.23890530773626L43.283409090909096,82.41774040666779L43.58538636363637,85.55266101207636L43.78670454545454,77.44432287060359L43.88736363636364,82.96093181389153L44.08868181818181,89.32962919846838L44.29,90.35884719435933L44.3906590909091,93.64462989442004L45.09527272727273,93.77982857025829L45.79988636363637,96.51176895829124L45.90054545454545,100.83219009646497L46.00120454545455,101.77128324960451L46.40384090909091,104.15687047132793L47.41043181818182,102.70799205131038L47.51109090909091,98.91307216859326L47.71240909090909,101.05183233588396L47.91372727272728,99.24909526694606L48.11504545454545,101.35415838095822L48.41702272727272,102.09125948413111L48.51768181818182,102.61820958336577L48.61834090909091,106.71411655156454L48.92031818181818,102.21538255242862L49.92690909090909,95.97079195749183L50.12822727272727,98.157118259731L50.73218181818182,93.06657661592635L51.03415909090909,89.88447637413705L51.13481818181818,87.87429076811365L51.23547727272727,86.86599976769898L51.33613636363636,86.47777813309578L51.537454545454544,83.75226443022285L51.940090909090905,85.72152635446157L52.14140909090909,84.14970965165251L52.342727272727274,78.15012072274948L52.54404545454546,77.86789945046692L53.047340909090906,85.67053918206425L53.24865909090909,91.34203538850421L53.65129545454545,83.29003906666841L54.35590909090909,85.34947999913868L54.45656818181818,86.5517552770953L54.959863636363636,90.69185186500562L55.060522727272726,97.44517266844899L55.16118181818182,99.86228925262328L55.362500000000004,96.13721185754969L55.46315909090909,97.77870956415663L55.563818181818185,99.84565949149744L55.966454545454546,102.89392182803545L56.067113636363636,92.028038890767L56.26843181818182,91.52843145099322L56.57040909090909,97.92963163931938L56.973045454545456,97.0070632744268L57.07370454545455,99.5515713532307L57.17436363636363,102.62922942032408L57.27502272727273,94.55307008655066L57.476340909090915,89.11934104166156L57.778318181818186,89.97101043812245L57.87897727272727,88.99950678580296L57.97963636363636,85.44554487609115L58.28161363636363,89.06700032266255L58.583590909090915,92.81030857807357L59.18754545454546,93.49967853672842L59.38886363636364,99.68172286984529L59.69084090909091,98.35514877203022L59.7915,102.01443889843338L59.99281818181819,97.93338842921284L60.09347727272727,99.16645131357839L60.59677272727273,103.97661213541934L60.69743181818182,103.06535034041818L61.10006818181818,107.18641847117486L61.30138636363637,107.82857775121349L61.60336363636364,110.07412227070279L62.006,110.84991044194052L62.40863636363637,105.37491706572571L62.60995454545454,107.43902709390467L63.01259090909091,108.11752504487427L63.11325,104.3589713602986L63.21390909090909,97.54427029835304L63.41522727272727,95.12024297429626L63.51588636363637,90.43061594346817L63.91852272727272,93.31155481698934L64.01918181818182,92.85519904150081L64.42181818181818,86.74647878281519L64.52247727272727,93.97343251100575L64.62313636363636,94.0140894458768L65.52906818181819,99.51988174439253L66.03236363636363,103.56429415993803L66.73697727272727,103.61386426817076L66.83763636363636,107.2620778334399L67.34093181818182,111.97987079351347L67.4415909090909,102.06228381125479L67.64290909090909,102.55685539272378L67.84422727272727,103.1295700109441L68.24686363636363,97.38821169418759L69.15279545454545,104.42659082615077L69.25345454545455,101.94353166435437L69.35411363636365,101.12997832049516L69.45477272727273,103.81658000194165L69.75675,105.50412220851828L70.36070454545454,99.97410991653368L71.06531818181818,103.67829862786022L71.16597727272728,101.14686929004704L71.26663636363637,107.10538225413256L71.36729545454546,100.51764454558821L71.56861363636364,94.91868033246973L71.66927272727273,101.06001257017451L71.97125,95.57841120759508L72.07190909090909,101.08176981965464L72.57520454545454,99.70319346115173L72.67586363636363,94.65647386237202L73.0785,88.42482646347119L73.78311363636364,89.73314427410568L74.08509090909091,88.18702940978602L74.18575,90.8479271364538L74.38706818181818,87.91873408897513L74.58838636363636,88.93006114680324L74.89036363636363,93.2854554861164L75.99761363636364,98.93451016330985L76.29959090909091,89.95625990575233L76.40025,85.64663362216919L76.50090909090909,87.17557039650146L76.70222727272728,90.15761380250822L76.90354545454545,88.99145259030428L77.00420454545456,90.50710700235274L77.20552272727272,97.71879597175396L77.70881818181817,101.97851695589802L77.80947727272728,104.57586523257822L78.41343181818182,108.87587912085297L78.61474999999999,103.62469127893226L78.71540909090909,105.82422276308813L78.81606818181818,108.78060058765195L78.91672727272729,102.17054169503838L79.01738636363636,102.24948714797381L79.11804545454545,104.65693892461864L79.31936363636363,99.26004533325403L79.42002272727272,102.43724073765536L79.52068181818183,101.66671612617641L80.02397727272727,95.90004398496949L80.12463636363637,99.47923998528294L80.22529545454545,100.23651663549519L80.42661363636364,99.98526556557412L80.82925,95.8211378489471L81.03056818181818,98.74822377993245L81.23188636363636,98.10460135763813L81.63452272727272,95.21974148735744L81.73518181818183,95.4525676345222L81.8358409090909,98.29771054244853L82.23847727272727,100.04873987887794L82.64111363636364,97.14106578334415L82.74177272727273,102.98095932156795L83.04375,98.77246261656171L83.24506818181818,100.01401613690527L83.34572727272727,99.78061438680541L83.44638636363636,104.77135299283707L83.54704545454545,106.7550172447969L83.64770454545454,112.01191548520647L83.74836363636364,107.3095228788036L83.94968181818182,104.59097024031009L84.0503409090909,98.03907221708558L84.55363636363637,99.75436434299223L84.65429545454546,100.65572818359827L84.95627272727273,106.83935544741166L85.05693181818181,104.13701968643105L85.35890909090908,105.2161179297436L85.55519431818182,111.63450676645758L85.86220454545455,116.70705660402957L86.06352272727273,111.71555097283388L86.26484090909092,106.21119582083573L86.46615909090909,110.00887680743502L86.76813636363636,107.16998868602519L87.17077272727273,109.27018950065784L87.27143181818181,111.9347702296376L87.47275,113.53649317313275L87.77472727272728,113.51284327884618L88.17736363636362,107.48115891310978L88.68065909090909,110.68104283301247L89.38527272727273,111.43133902808296L89.48593181818181,111.18260569804889L89.68725,107.64114461627841L89.78790909090908,110.05503070017264L89.88856818181819,104.62432797839594L89.98922727272728,101.33829510290478L90.08988636363635,99.08926504919684L90.19054545454546,96.8187390750797L90.49252272727273,96.30646539206413L90.89515909090909,94.1646194738808L90.99581818181818,94.47655737543198L91.39845454545454,94.2689017427922L91.70043181818181,94.11281153913929L91.90175,92.2783298732876L92.10306818181817,92.59849695939263L92.40504545454544,95.31544780056916L92.50570454545455,91.23990201342345L92.60636363636364,92.60111135889771L92.70702272727273,92.88460087761047L92.80768181818182,95.44534113393914L93.009,97.0724063848282L93.10965909090909,92.54836667788874L93.21031818181818,99.19952952754826L93.41163636363636,98.68237615727428L93.51229545454545,98.69653903040029L93.61295454545454,97.68408465319257L93.71361363636363,99.24567561090154L93.91493181818183,101.76430861419755L94.11625000000001,104.88907776117203L94.2169090909091,106.07336997246693L94.92152272727272,107.20963284304158L95.22349999999999,102.53867008325619L95.32415909090909,99.80880298051576L95.42481818181818,99.3187224432825L95.62613636363636,99.72685056611897L95.92811363636363,105.49736554937235L96.12943181818183,99.90642940565803L96.33075,96.59938591329549L96.73338636363637,96.2146467114236L97.13602272727272,90.76878099543461L97.43799999999999,98.07310258957222L97.53865909090909,91.36339336287105L97.63931818181818,92.96745395944549L97.73997727272726,97.8827089096853L97.84063636363636,102.50003770820096L98.34393181818183,101.99163335411359L98.94788636363637,102.23367013199876L99.14920454545454,100.57710297403102L99.24986363636364,97.92019311932332L99.35052272727272,100.53177435708903L99.45118181818182,101.87899753611869L99.6525,95.64669694746927L99.95447727272727,98.81562748770783L100.05513636363636,105.61886498231502L100.35711363636364,105.73137795536648L100.45777272727273,107.06024008639696L100.55843181818182,108.07581622881932L100.75975,108.84463426604786L100.96106818181818,111.28337056459421L101.56502272727273,108.56783403475372L101.867,109.01465091871579L101.96765909090908,108.30798570305727L102.26963636363637,111.27558703414165L102.37029545454546,107.31562810413439L102.47095454545455,111.42526514475706L102.67227272727273,108.13673822115503L102.77293181818182,107.39466481236198L102.87359090909091,104.31999799753048L103.37688636363636,108.05599779914158L103.77952272727273,109.78159745064681L103.88018181818181,106.30103716427656L104.0815,111.80573290444528L104.28281818181819,104.68636056653062L104.48413636363635,105.14292494837701L104.58479545454546,106.84743249759909L104.68545454545455,108.15268935274335L104.78611363636362,110.49341993490984L104.88677272727273,100.46927864217874L105.18875,104.12395035204992L105.3900681818182,100.83075492660137L105.59138636363636,102.53967946541248L105.79270454545454,96.83091148530191L105.99402272727274,100.24222012276724L106.09468181818181,98.78479796572275L106.1953409090909,95.98151834538949L106.59797727272728,100.74936618564763L106.79929545454546,104.06802917264316L106.89995454545455,108.1504267043687L107.10127272727273,111.74098372341548L107.40325,115.89648494614384L107.80588636363636,116.25283581161396L108.10786363636363,120.14635174999145L108.4098409090909,122.84531623300471L108.51050000000001,110.56518376627466L108.71181818181817,112.6382657714984L108.91313636363635,101.41403894677467L109.11445454545455,99.70743529547491L109.61775,104.92109218134796L109.81906818181818,110.06218310798096L109.91972727272727,105.94636446778375L110.02038636363636,109.49772790561077L110.12104545454545,106.42835515281521L110.42302272727274,107.19911982006695L111.02697727272728,104.11320763874231L111.22829545454545,105.62148709936301L111.32895454545455,104.80093780615948L111.42961363636364,110.54364366047703L111.63093181818182,114.8584789041858L112.03356818181818,114.88743094243239L112.23488636363636,115.93428800974156L112.33554545454545,117.18445933884857L112.73818181818183,114.415613839267L112.8388409090909,113.28325295678223L112.9395,107.96972758976916L113.0401590909091,111.99635438390048L113.34213636363637,108.60671910286668L113.44279545454545,111.00324776745488L113.54345454545455,115.13572356978044L113.74477272727272,115.40535109530973L114.04674999999999,112.39641655645748L114.24806818181818,108.91837489451747L114.34872727272726,110.98013743024273L114.55004545454545,112.9941237711418L114.65070454545456,114.37991146536247L114.95268181818183,113.88032032512046L115.2546590909091,117.85268775340094L115.35531818181818,122.0438183759109L116.05993181818182,116.33383737335706L116.16059090909091,117.07325300869438L116.26124999999999,116.87632821765925L116.3619090909091,114.32749575466558L116.56322727272726,116.56554588756542L116.66388636363637,117.40499144567472L116.86520454545455,112.6472928801783L116.96586363636364,117.71976385232281L117.06652272727273,115.79058794125741L117.3685,114.30512927721284L117.4691590909091,114.01541584804957L117.56981818181818,110.88587371774292L117.67047727272727,112.52648585082092L117.87179545454545,117.58903780914245L118.47574999999999,119.10933431986182L118.5764090909091,119.38640106621273L118.87838636363637,116.69656121345953L119.583,119.26970530402002L119.88497727272727,119.93113451765183L120.58959090909092,109.97522185056991L120.69025,108.9305000347756L120.79090909090908,110.70504980470503L120.99222727272728,116.900144408814L121.09288636363635,107.12412866712083L121.19354545454546,107.87811556542339L121.49552272727273,104.94430359975476L121.59618181818182,109.36587370135769L121.7975,113.03288609413849L121.99881818181818,107.89839674200309L122.09947727272727,102.01455658524357L122.50211363636363,96.25709983571579L122.60277272727274,100.35499045429415L123.00540909090908,102.52509188512971L123.10606818181819,101.12098207348593L123.20672727272728,104.32328344232448L123.30738636363635,106.87975571912474L123.60936363636363,107.7505795093949L123.71002272727273,109.18992218368429L123.81068181818182,110.08053029471498L124.11265909090909,104.55487801635738L124.2133181818182,104.26778964404294L125.0185909090909,104.20301076356198L125.42122727272728,99.94271010682247L125.62254545454546,98.95963926188884L125.81883068181818,104.09407511120502L125.82386363636363,96.46546851484892L126.1258409090909,99.18292219837534L126.2265,104.96823000371478L126.42781818181818,109.10140721315166L126.52847727272727,109.21766667646784L126.62913636363636,105.81550049557643L126.72979545454545,100.72955076492751L127.03177272727274,102.79619570312136L127.83704545454545,104.69137674335151L128.03836363636364,100.47463908580104L128.23968181818182,98.36477552760087L128.441,102.31789772726695L128.5416590909091,103.26650746778489L128.64231818181818,98.65985756023977L128.84363636363636,102.04667164895763L129.04495454545454,105.54800478828396L129.14561363636363,105.43000369261901L129.24627272727272,100.83580279044394L129.54825,106.35462279044462L129.74956818181818,107.53316025963014L130.4541818181818,108.38704375950029L130.5548409090909,109.22153937096176L130.85681818181817,113.65538547582723L131.05813636363638,104.2302473856267L131.66209090909092,102.56322242676526L131.76274999999998,102.46650077574827L131.9640681818182,104.02065087860863L132.16538636363637,97.69298631107247L132.56802272727273,101.83648820658419L132.9706590909091,106.12003880685471L133.17197727272728,108.64643545698436L133.37329545454546,96.07899101750239L133.67527272727273,97.40949192204637L133.77593181818182,104.28294309281019L133.8765909090909,107.6706489828471L133.97725,110.45998447900209L134.58120454545454,112.21798614649647L134.68186363636363,113.91458696116811L135.28581818181817,107.17832812657778L135.48713636363638,107.11289506844427L135.68845454545453,104.6120052846528L135.78911363636365,108.46400484850318L135.8897727272727,108.25680455038228L136.79570454545456,110.49472401561687L136.99702272727274,111.7960512699695L137.299,110.16444621640544L137.70163636363637,116.25080170176716L137.90295454545455,113.72932129450699L138.00361363636364,110.06518957628066L138.10427272727273,110.51187081587244L138.40625,113.30308438049491L138.5069090909091,105.82717667257849L138.7082272727273,109.55765909763628L138.80888636363636,113.04709289204291L138.90954545454545,110.42358408329972L139.21152272727272,114.02442545257288L139.31218181818184,113.17758233453884L140.31877272727272,117.86262394582677L140.52009090909092,118.91996168132526L140.62075000000002,117.0335654649368L140.92272727272726,121.10420882402937L141.02338636363638,117.96538809268846L141.12404545454547,115.11844971772287L141.4260227272727,110.9590050249957L141.52668181818183,112.1171051624116L141.62734090909092,111.2893944468525L143.13722727272727,108.87245534835104L143.43920454545454,107.93801018277864L143.64052272727272,107.68220960509828L143.74118181818181,102.72638908098983L143.9425,105.3017497218029L144.04315909090909,108.86477505174665L144.34513636363639,107.20949750251219L144.64711363636363,108.58414833343014L144.74777272727272,113.60093315180526L144.8484318181818,113.61043927433835L144.94909090909093,114.23939545180872L145.15040909090908,116.67105612063237L145.35172727272726,121.08595038268412L145.55304545454547,116.53655584585763L145.75436363636362,108.0905011886248L145.8550227272727,109.34185105507574L145.9556818181818,86.67286570619048L146.157,91.23637926355453L146.3583181818182,94.98274191417202L146.45897727272725,95.82006735978635L146.55963636363634,92.82486105601295L146.66029545454546,98.10197527981076L146.76095454545455,101.72937810220962L147.76754545454546,95.41084102212173L148.17018181818182,100.16975744443043L148.57281818181818,102.59598226437184L148.67347727272727,106.90918393512854L148.77413636363636,108.91666518074533L148.97545454545454,108.91059908648366L149.2774318181818,109.53433910650044L149.57940909090908,116.64730522312549L149.78072727272726,105.49737462947814L149.98204545454547,104.08643752530259L150.08270454545456,102.2533937769685L150.2840227272727,107.25645424820964L150.6866590909091,104.44200872687682L150.7873181818182,105.50820836402342L150.88797727272726,107.45778709331782L151.08929545454546,111.44760775875719L151.18995454545455,114.42684715072815L151.4919318181818,118.28736289513563L151.5925909090909,121.54622669374157L151.69325,119.67440407891756L151.7939090909091,114.54016302901228L151.8945681818182,105.79654644916405L151.99522727272728,104.69889141610219L152.49852272727273,108.82820261857765L152.59918181818182,112.43018207557671L152.8005,113.00556434638207L153.20313636363636,115.53420767885659L153.30379545454545,117.63398632140948L153.50511363636363,118.19058747946018L153.90775000000002,121.70112832658404L154.10906818181817,118.51141579395161L154.51170454545456,122.76867453556324L154.61236363636365,121.33340676100013L154.71302272727272,116.82086631778742L154.8136818181818,117.47637977412816L155.01500000000001,116.62314236949214L155.31697727272726,118.92642824164324L155.41763636363635,118.41658573428953L155.61895454545456,105.76972834837582L155.71961363636365,108.04515579258334L155.82027272727274,107.62464001400707L156.42422727272728,109.41977589091753L156.62554545454543,111.34779887879873L156.72620454545455,108.3750185503213L156.92752272727273,98.08751721981004L157.02818181818182,104.11436513486059L157.3301590909091,106.51572888573305L157.43081818181818,111.32575651538639L157.93411363636363,109.62678031205179L158.03477272727272,114.00250202488044L158.13543181818181,107.05945292178815L158.4374090909091,103.93470784781002L158.63872727272727,109.94003705463669L158.73938636363636,109.74363359464877L158.84004545454545,107.6660697757036L158.94070454545454,108.87626333524263L159.04136363636366,107.90183735629448L159.14202272727275,110.34245374864813L159.444,108.07300830244849L159.7459772727273,105.50250764214842L160.24927272727274,113.77545660308462L160.34993181818183,115.92791089032407L160.4505909090909,113.24951963973926L160.55124999999998,118.18256790655452L160.95388636363637,113.33391081587312L161.35652272727273,111.93132038678976L161.5578409090909,109.15098887472976L161.6585,111.0486902516153L162.06113636363636,112.49702168593404L162.46377272727273,115.9037188627386L163.16838636363636,119.4713469449935L163.36970454545454,119.98061238267341L163.6716818181818,122.83695056323693L163.873,125.83005551950174L163.97365909090908,123.43745042493379L164.1749772727273,125.80730504045277L164.27563636363635,126.36057433708956L164.37629545454544,127.54051710269854L164.57761363636365,129.40326603444223L164.67827272727274,131.81013932399574L164.98024999999998,134.62752581750712L166.59079545454546,134.26797317071583L166.69145454545455,133.47797576132854L166.7921136363636,133.69097799846625L166.89277272727273,133.8298804294088L167.2954090909091,135.59609220603272L167.59738636363636,131.45688286583874L167.69804545454545,134.70119442189858L168.00002272727275,132.552275565074L168.1006818181818,127.50304831278874L168.2013409090909,128.19914398085373L168.6039772727273,123.87123013876048L168.70463636363638,121.40610762842446L168.80529545454544,114.35189746983009L169.00661363636362,115.37750727385722L169.10727272727274,120.66095713183678L169.20793181818183,119.69166148369371L169.40925,118.22529518006615L169.61056818181817,121.49036575017904L170.21452272727274,116.14372866742494L170.41584090909092,114.63615549855844L170.91913636363637,116.5485405676372L171.01979545454546,119.18488688643043L171.92572727272727,120.83599816002189L172.02638636363636,121.76319868181113L173.13363636363638,122.14447869194117L173.53627272727272,120.58683130740435L173.63693181818184,116.57574842213967L173.93890909090908,121.47097421144886L174.03956818181817,121.73627617766358L174.34154545454547,115.41904842981604L174.54286363636362,119.44434327002381L174.6435227272727,115.32310866817252L174.74418181818183,117.91919738803281L175.44879545454546,120.00927699882367L175.54945454545455,118.02714881848019L175.65011363636364,117.96803380445292L175.7507727272727,121.62403079327032L175.9520909090909,121.16562756707744L176.05275,125.38626507053203L176.25406818181818,130.4608387869247L176.35472727272725,130.5883547236009L176.45538636363636,131.01111903513822L176.55604545454545,119.65680693440456L177.0593409090909,119.43472610878482L177.2606590909091,120.18085298807205L177.76395454545454,119.47956754449707L177.86461363636363,102.09321157053444L178.16659090909093,101.51109051628711L178.87120454545456,100.96518185070576L179.0725227272727,102.8278639048167L180.07911363636364,103.23267786471496L180.2804318181818,109.36980980129643L180.38109090909091,113.62602938555123L180.5824090909091,113.22822690018216L180.6830681818182,116.90500411994635L180.88438636363634,121.12490395552555L180.98504545454546,123.94161358934618L181.589,126.7626525115547L181.6896590909091,126.56478710933722L182.29361363636363,126.624308335461L182.39427272727272,127.55787791104117L183.30020454545456,129.01409046612085L183.70284090909092,130.88348139013556L183.9041590909091,131.18873285668232L184.30679545454547,133.67665926889006L184.91075,126.79019460924351L185.1120681818182,130.05677468044652L185.21272727272728,130.05749682006027L185.41404545454546,124.65494707301363L185.71602272727273,119.61665194399748L185.91734090909088,113.90738676638242L186.018,110.9954477666393L186.31997727272727,112.13670275079387L186.42063636363636,114.6906325113819L186.62195454545454,106.31917029250081L186.72261363636363,111.76045298840182L186.82327272727272,112.77240786789869L186.9239318181818,117.10636750911789L187.22590909090908,122.45013070155782L187.32656818181817,124.64591791674141L187.42722727272727,130.25212622682432L187.82986363636365,125.92571307122869L188.0311818181818,118.3271427711859L188.1318409090909,123.28922863254078L188.23250000000002,125.12830537065085L188.4338181818182,121.98307513151364L188.63513636363635,123.6491679813307L188.83645454545456,125.44345063559783L189.1384318181818,127.60830581121957L189.4404090909091,123.25147560775264L189.5410681818182,111.05832739657149L189.64172727272728,109.13969517933712L189.94370454545455,110.76132582295587L190.14502272727273,111.23519376518115L190.24568181818182,111.86407440544771L190.5476590909091,116.83446744956024L190.64831818181818,118.04302099833592L190.95029545454545,116.42031920692058L191.25227272727273,117.52948781914174L191.35293181818182,119.36813871622078L191.4535909090909,118.77892456555358L191.55425,121.69823252651686L191.85622727272727,115.57400906825298L192.25886363636366,117.30460860202524L192.4601818181818,119.79934765580131L192.5608409090909,122.71781305387168L192.6615,121.67483142537965L192.96347727272726,116.91254814436817L193.06413636363635,115.56129369709598L193.26545454545456,113.00316492534019L193.6680909090909,115.84004816844765L193.76874999999998,111.81524385304482L193.8694090909091,111.19811904392749L194.17138636363637,113.81070657934644L194.57402272727273,114.71883584588079L194.67468181818182,119.1793522256253L194.87599999999998,119.10621661701538L194.9766590909091,119.41879441820446L195.07731818181819,114.62691445186314L195.17797727272728,116.97142305703083L195.37929545454546,115.51748079119133L195.68127272727273,116.84893285683995L195.78193181818182,116.11123972641415L195.8825909090909,107.34691450751113L195.98325,108.08742297073859L196.38588636363636,113.40468129259938L196.48654545454545,114.7582133836382L196.9898409090909,112.1439923012406L197.19115909090908,112.63799365438373L197.2918181818182,117.27579438755527L197.3924772727273,121.1550146466757L197.79511363636365,119.16831259664285L198.0970909090909,122.18068136635173L198.29840909090908,109.77781246181802L198.60038636363637,104.65203035542199L198.70104545454544,106.62122773530034L198.80170454545453,107.4827050393994L198.90236363636365,102.01883390183824L199.00302272727274,99.1121504780851L199.20434090909092,102.92893545125742L199.40565909090907,100.14244151379006L199.70763636363637,103.13899770020251L199.80829545454546,109.41749857639196L200.0096136363636,114.32454923488129L200.11027272727273,114.78529408899634L200.21093181818182,113.285964184949L200.5129090909091,117.73136767204034L200.71422727272727,114.65703037192307L200.81488636363636,113.6281267178942L200.91554545454545,117.01411429997289L201.01620454545454,117.16630263289218L201.7208181818182,118.19207275355225L201.8214772727273,121.75086523691743L202.12345454545454,120.01697882652218L202.62675,119.50368042564331L203.02938636363638,119.3629127124781L203.23070454545453,108.06902156291915L203.63334090909092,107.51411959545476L203.734,104.56830706313251L203.93531818181816,103.2810765813142L204.33795454545455,99.76856929454355L204.4386136363636,105.64931171887947L204.53927272727273,109.71878017563076L204.7405909090909,107.11130252103612L204.84125,104.77337278086492L204.9419090909091,105.78003556572091L205.34454545454545,111.35443176367302L205.74718181818182,114.40018906776685L205.9485,104.55737136529011L206.0491590909091,109.11883443647136L206.2504772727273,108.49415046620528L206.75377272727272,106.32153516991279L206.85443181818184,108.0797813235224L207.15640909090908,108.62820306108898L207.45838636363638,104.83178278225516L207.8610227272727,105.78420440332164L208.06234090909092,104.56018338182034L208.46497727272728,107.69576472263155L208.86761363636364,110.43858789998843L208.9682727272727,115.70112950442929L209.06893181818182,119.68941608821183L209.47156818181818,121.60687455911781L209.57222727272725,124.96058720391402L209.87420454545455,122.30732895768949L209.97486363636364,116.83939553949773L210.07552272727273,122.26265551138108L210.3775,124.39799021620917L210.67947727272727,124.49379135614068L210.7801363636364,126.87681192259875L210.98145454545454,128.33953134507732L211.18277272727272,135.45517798922177L211.28343181818184,129.8472605406795L211.38409090909093,132.11293405230828L212.08870454545453,131.24804088416087L212.2900227272727,125.90683650620929L212.3906818181818,128.28935231847896L212.99463636363637,126.88721683695914L213.09529545454546,127.64489565260709L213.19595454545455,131.59600619644672L213.29661363636365,133.770405902005L213.3972727272727,130.262564921561L213.59859090909092,132.31510836856046L213.9005681818182,133.15039738693665L214.6051818181818,129.07975717197803L214.7058409090909,131.9193809134747L214.8065,134.2946425053166L215.7124318181818,131.74637794846473L216.01440909090908,134.9089404137806L216.11506818181817,124.58604597376669L216.41704545454547,130.10144115084603L216.51770454545456,133.89929674202978L216.61836363636363,134.32096653701166L216.71902272727272,131.21566937137814L216.8196818181818,134.40050282868003L217.1216590909091,129.09165223949185L217.22231818181817,131.95208750229804L217.32297727272726,126.57567905838846L217.42363636363635,127.94971172322832L217.8262727272727,128.68474049845338L217.9269318181818,131.72666669618187L218.02759090909092,128.76640020070462L218.3295681818182,128.28896000019898L218.53088636363634,133.96646426348858L218.73220454545455,129.9594178518263L218.93352272727273,123.85387573724455L219.03418181818182,125.47368828730701L219.13484090909088,127.82911904105768L219.3361590909091,123.72300688728001L219.43681818181818,118.78670592580114L219.94011363636363,120.59203592068441L220.2420909090909,120.56243244820672L220.44340909090909,121.33218903553937L220.74538636363636,116.90777054320979L221.04736363636363,113.90259338818079L221.14802272727272,120.92633405985312L221.3493409090909,120.83690032656676L221.5506590909091,120.386810266635L222.15461363636365,119.80132943719134L222.25527272727274,116.22959628995811L222.4565909090909,117.73623704281351L222.6579090909091,116.68981370359869L223.16120454545455,118.67403174367736L223.56384090909089,121.43222804898491L223.6645,123.45260542661968L223.7651590909091,118.98334550289235L223.86581818181818,120.08701114143064L225.07372727272727,122.19351004617032L225.27504545454545,124.8989596520956L225.47636363636366,122.6918637414362L225.6776818181818,122.96707767780896L226.0803181818182,125.59517052057035L226.18097727272726,125.20605334892255L226.28163636363635,128.1294482343291L226.38229545454544,128.7453036123122L226.4779215909091,128.6967730832343L226.48295454545456,93.71269357611938L226.58361363636365,92.67502471575321L226.7849318181818,92.62552263232334L226.8855909090909,99.3921706607246L226.98624999999998,95.13775383802985L227.1875681818182,101.15157812272969L227.69086363636364,98.46361988874193L227.99284090909092,96.28645829640551L228.1941590909091,103.89701291575483L228.2948181818182,108.80171193469567L228.49613636363637,102.08834085871878L228.79811363636364,104.45030621895286L229.1000909090909,109.60767587610268L229.30140909090912,113.71690807868404L229.60338636363636,115.92801680084494L229.70404545454545,118.71881509348538L229.90536363636366,124.55693347923267L230.00602272727272,125.73684055512226L230.308,127.95595618699562L230.5093181818182,125.96236023260269L230.60997727272726,125.37372461217447L231.41525,128.7907518320483L231.51590909090908,133.60407690166252L231.71722727272729,128.99966899119752L232.22052272727274,121.57770211305859L232.7238181818182,121.19873236542918L232.82447727272728,117.78645874493697L232.92513636363637,114.4998134264354L233.12645454545452,107.35303123196995L233.22711363636364,109.28532788217993L233.42843181818182,114.87879454846025L233.62975,119.66211489219819L233.93172727272727,123.67230280082842L234.03238636363636,109.28987223960243L234.43502272727272,110.68968495479774L234.9383181818182,107.4835161991556L235.13963636363636,111.27276519188042L235.7435909090909,116.53988924546914L235.84425,120.35190025797975L235.94490909090908,112.26791128961585L236.0455681818182,112.3447204480917L236.1462272727273,115.0406479165272L236.44820454545453,109.29178193735923L236.64952272727274,107.15820353801112L236.95149999999998,108.5775837800657L237.05215909090907,106.12382577971415L237.35413636363637,101.07744208975848L237.55545454545455,99.69049837593035L237.75677272727273,102.08104834321554L237.85743181818182,106.32694336202815L237.9580909090909,110.54424902582535L238.36072727272727,116.399023575643L238.76336363636364,117.22872091805276L238.86402272727275,117.63224927313927L238.96468181818182,122.34702436680617L239.36731818181818,128.02912204761824L239.4679772727273,131.1454102393942L239.66929545454545,133.20646948191143L239.76995454545454,136.10862216865374L239.97127272727275,134.50095962448736L240.07193181818184,131.72966386345465L240.1725909090909,137.70549746871683L240.37390909090908,136.96334835756448L240.47456818181817,140.77901334347092L240.5752272727273,140.23551137550263L240.67588636363638,144.09356041524043L240.97786363636362,145.44060398137478L241.17918181818183,148.93214374478973L241.27984090909092,145.54052973118112L241.88379545454546,147.07287736231103L241.98445454545455,131.3315895631374L242.08511363636362,126.59803025434564L242.48775,125.78742757299676L242.68906818181816,125.22068463736L242.89038636363637,128.53421581065555L243.29302272727273,125.58079370506913L243.99763636363636,127.16871421916763L244.29961363636363,127.26024233147633L244.50093181818184,131.23221790950117L244.70225,131.92939573669983L244.80290909090908,127.50565551052588L245.00422727272726,123.17228990492315L245.20554545454547,124.01106043187161L245.40686363636362,124.51515425021094L245.50752272727271,123.96123933292607L245.60818181818183,128.3203155234204L245.91015909090908,122.86708338571306L246.01081818181817,125.34677559893773L246.31279545454547,128.62129854048592L246.41345454545456,123.13796810107203L246.6147727272727,116.8873713832805L246.91675,120.74383421138312L247.31938636363637,125.98785126860784L247.9233409090909,128.5602656780706L248.024,126.12343950680133L248.32597727272727,129.417095073562L248.4266363636364,126.45018565222722L248.62795454545454,123.01436732618602L248.82927272727272,123.56973029144339L248.9299318181818,128.0999569979405L249.13125,123.4299611407902L249.23190909090908,119.99256471619482L249.43322727272727,124.06210855089553L249.53388636363638,128.96549802520508L249.63454545454547,125.29574875979395L249.73520454545454,130.77097417964433L249.93652272727272,132.2270766441872L250.13784090909093,132.66196912034007L250.23850000000002,130.7785725251167L250.64113636363635,131.71471554535586L250.74179545454547,128.08244391528928L250.94311363636365,127.33459950907377L251.24509090909092,130.06713949522387L251.4464090909091,123.00922501278828L251.74838636363634,126.95310186320165L252.3523409090909,127.55899168527381L252.95629545454545,130.13269211181634L253.35893181818182,131.1026233076629L253.6609090909091,136.8243608510116L254.16420454545457,134.21232438405923L254.36552272727272,131.93189144421135L254.66750000000002,135.54670200605855L255.27145454545456,128.96603223555982L255.37211363636365,129.78862888402074L255.5734318181818,133.1249665390223L255.8754090909091,128.18126966691938L256.17738636363634,119.13834340098732L256.27804545454546,116.24450937560113L256.3787045454546,117.56045889542321L257.28463636363637,116.30721285062272L257.3852954545454,121.24689118370925L257.48595454545455,117.40300166880056L257.58661363636367,118.21150123126772L257.7879318181818,118.33635046822548L257.98925,122.4263152367716L258.29122727272727,126.81128364385768L258.39188636363633,126.48535566551925L258.79452272727275,121.16281993112067L258.9958409090909,126.2417376421788L259.0965,124.27876378144911L259.1971590909091,119.62568696480476L259.2978181818182,119.09871816761625L260.1030909090909,121.24244663829208L261.00902272727274,118.12060199124751L261.2103409090909,119.03774129697507L261.5123181818182,119.38356707705998L262.01561363636364,115.78321028543064L262.3175909090909,117.74368935339943L262.41825,120.11972103279795L262.7202272727273,124.7353488602814L262.82088636363636,128.0402146099726L263.12286363636366,129.94539338815682L263.4248409090909,133.52125366748993L263.6261590909091,133.13592789371273L263.82747727272726,135.56993456303593L264.1294545454545,136.4537413920717L264.4314318181818,136.21956715635267L264.5320909090909,136.27721029804775L264.63275,134.52508874791826L264.83406818181817,132.24417923740714L265.6393409090909,129.830561126937L265.84065909090907,129.5723051002647L266.04197727272725,125.19507401326531L266.24329545454543,125.25516620700864L266.74155795454544,129.47604956113076" style="fill: none;" fill="none"></path></g><g><path stroke="rgb(204, 51, 17)" stroke-width="2px" d="M45.29155795454546,12.627614498138428L65.42337613636364,11.80096960067749L85.55519431818182,15.312288462015959L105.6870125,15.110077841748417L125.81883068181818,17.062141766300996L145.95064886363636,18.438000668923948L166.08246704545454,19.808773405319748L186.21428522727274,22.05246139670079L206.34610340909092,23.231813354922892L226.4779215909091,23.11036140590776L246.60973977272727,23.770717849874945L266.74155795454544,24.30911969672403" style="fill: none;" fill="none"></path></g></g></g></g><g opacity="0.2"><g><g><g><path stroke="rgb(0, 119, 187)" stroke-width="2px" d="M25.66806818181818,98.86799907684326L25.768727272727272,72.15999937057495L26.171363636363637,61.73199987411499L26.27202272727273,46.199992656707764L26.574,92.26800537109375L26.67465909090909,-5.71999454498291L26.976636363636366,74.80000472068787L27.077295454545453,51.43599605560303L27.177954545454543,24.727996349334717L27.58059090909091,36.21198749542236L28.486522727272728,114.35599899291992L28.7885,33.79200553894043L29.191136363636364,79.552006483078L29.392454545454545,155.1879951953888L29.59377272727273,59.884007930755615L29.69443181818182,60.763996601104736L29.89575,93.10399985313416L30.097068181818184,100.1879951953888L30.19772727272727,92.88400268554688L30.499704545454545,71.27999758720398L30.600363636363635,142.6040050983429L30.70102272727273,54.11999559402466L30.80168181818182,67.23199462890625L30.902340909090906,128.2599983215332L31.506295454545455,125.2240059375763L31.707613636363636,78.89200186729431L31.808272727272726,128.2599983215332L31.90893181818182,33.04401254653931L32.00959090909091,115.89600539207458L32.31156818181818,132.92399859428406L32.41222727272727,103.44399785995483L32.51288636363636,107.36000514030457L32.61354545454545,98.60399460792542L33.11684090909091,124.91599416732788L33.62013636363636,63.44799613952637L33.92211363636363,53.6800012588501L34.02277272727273,68.81599521636963L34.62672727272727,95.91999506950378L35.432,105.51200008392334L35.73397727272727,118.27200627326965L35.83463636363636,104.05999517440796L36.53925,94.8640034198761L36.841227272727274,126.80800652503967L37.042545454545454,81.79599857330322L37.747159090909086,-5.808009147644043L37.847818181818184,116.37999391555786L38.149795454545455,108.59199976921082L38.250454545454545,92.1359965801239L38.955068181818184,32.42798900604248L39.15638636363636,144.71600151062012L39.357704545454546,126.49999475479126L39.45836363636364,100.6280026435852L39.559022727272726,40.30401086807251L40.26363636363636,96.71199536323547L40.76693181818182,86.15200018882751L40.96825,106.03999590873718L41.06890909090909,46.90400457382202L41.169568181818185,93.01599836349487L41.471545454545456,129.80000472068787L41.77352272727273,82.41199588775635L41.97484090909091,98.86799907684326L42.0755,59.40000629425049L42.37747727272727,48.00400352478027L42.98143181818182,74.7559974193573L43.08209090909091,60.36800956726074L43.283409090909096,93.01599836349487L43.58538636363637,113.7400016784668L43.78670454545454,4.532001972198486L43.88736363636364,132.57200574874878L44.08868181818181,146.60800075531006L44.29,99.61600518226624L44.3906590909091,123.1999979019165L45.09527272727273,94.9959990978241L45.79988636363637,121.08800148963928L45.90054545454545,139.69999527931213L46.00120454545455,110.21999454498291L46.40384090909091,125.62000608444214L47.41043181818182,89.67199420928955L47.51109090909091,64.76800537109375L47.71240909090909,120.29600119590759L47.91372727272728,83.02800631523132L48.11504545454545,120.29600119590759L48.41702272727272,108.72399544715881L48.51768181818182,107.36000514030457L48.61834090909091,143.5719952583313L48.92031818181818,61.73199987411499L49.92690909090909,39.776001930236816L50.12822727272727,117.83199882507324L50.73218181818182,47.25601053237915L51.03415909090909,61.24799823760986L51.13481818181818,69.78399848937988L51.23547727272727,77.79200291633606L51.33613636363636,82.98399901390076L51.537454545454544,59.224003314971924L51.940090909090905,103.44399785995483L52.14140909090909,70.00399565696716L52.342727272727274,24.156006336212158L52.54404545454546,75.32800054550171L53.047340909090906,155.8919939994812L53.24865909090909,142.38399481773376L53.65129545454545,10.823997020721436L54.35590909090909,103.88400530815125L54.45656818181818,97.37199997901917L54.959863636363636,127.95199966430664L55.060522727272726,158.22400069236755L55.16118181818182,121.61599731445312L55.362500000000004,62.61198854446411L55.46315909090909,112.55200123786926L55.563818181818185,118.44799613952637L55.966454545454546,130.3280005455017L56.067113636363636,-5.764001846313477L56.26843181818182,87.03200197219849L56.57040909090909,155.54000115394592L56.973045454545456,88.70400404930115L57.07370454545455,122.45200490951538L57.17436363636363,130.3280005455017L57.27502272727273,21.86799383163452L57.476340909090915,40.21599626541138L57.778318181818186,97.63600444793701L57.87897727272727,80.25600528717041L57.97963636363636,53.45999097824097L58.28161363636363,121.66000461578369L58.583590909090915,126.49999475479126L59.18754545454546,99.70399355888367L59.38886363636364,155.32000398635864L59.69084090909091,86.41600465774536L59.7915,134.947993516922L59.99281818181819,61.2039909362793L60.09347727272727,110.26400184631348L60.59677272727273,147.26800537109375L60.69743181818182,94.8640034198761L61.10006818181818,144.2759940624237L61.30138636363637,113.6080060005188L61.60336363636364,130.284006357193L62.006,117.83199882507324L62.40863636363637,56.10000944137573L62.60995454545454,126.01600623130798L63.01259090909091,114.22400331497192L63.11325,70.53200459480286L63.21390909090909,36.21198749542236L63.41522727272727,73.30400562286377L63.51588636363637,48.2239875793457L63.91852272727272,119.23999643325806L64.01918181818182,88.74799823760986L64.42181818181818,31.76801061630249L64.52247727272727,159.01600098609924L64.62313636363636,94.38000178337097L65.52906818181819,149.0720031261444L66.03236363636363,139.96399974822998L66.73697727272727,104.05999517440796L66.83763636363636,140.09599542617798L67.34093181818182,154.44000220298767L67.4415909090909,12.80401086807251L67.64290909090909,107.00799918174744L67.84422727272727,108.28400111198425L68.24686363636363,45.71599102020264L69.15279545454545,167.77199840545654L69.25345454545455,79.59600067138672L69.35411363636365,93.80799865722656L69.45477272727273,127.99599385261536L69.75675,120.69200134277344L70.36070454545454,50.20400142669678L71.06531818181818,137.0159957408905L71.16597727272728,78.36400604248047L71.26663636363637,160.73199725151062L71.36729545454546,41.2280068397522L71.56861363636364,44.52800369262695L71.66927272727273,156.3320014476776L71.97125,46.24399995803833L72.07190909090909,150.61199641227722L72.57520454545454,87.29600644111633L72.67586363636363,49.23599815368652L73.0785,32.34000062942505L73.78311363636364,101.50800442695618L74.08509090909091,74.27199578285217L74.18575,114.79600644111633L74.38706818181818,61.555996894836426L74.58838636363636,98.03200459480286L74.89036363636363,132.4840042591095L75.99761363636364,149.77600193023682L76.29959090909091,9.152008056640625L76.40025,46.859997272491455L76.50090909090909,100.93600130081177L76.70222727272728,116.99600434303284L76.90354545454545,78.49600172042847L77.00420454545456,104.14799666404724L77.20552272727272,162.62399649620056L77.70881818181817,140.3160057067871L77.80947727272728,127.95199966430664L78.41343181818182,147.5760040283203L78.61474999999999,56.36400079727173L78.71540909090909,125.62000608444214L78.81606818181818,135.3880009651184L78.91672727272729,42.68001174926758L79.01738636363636,102.9599962234497L79.11804545454545,126.32400488853455L79.31936363636363,50.688003063201904L79.42002272727272,131.03199934959412L79.52068181818183,94.73199462890625L80.02397727272727,43.99999475479126L80.12463636363637,131.6920039653778L80.22529545454545,107.052006483078L80.42661363636364,97.7240059375763L80.82925,58.3439884185791L81.03056818181818,125.09199714660645L81.23188636363636,92.31199955940247L81.63452272727272,69.25600266456604L81.73518181818183,97.54800295829773L81.8358409090909,123.90399670600891L82.23847727272727,115.8080039024353L82.64111363636364,70.97199892997742L82.74177272727273,155.54000115394592L83.04375,60.895992279052734L83.24506818181818,111.18799781799316L83.34572727272727,97.67999863624573L83.44638636363636,149.68800044059753L83.54704545454545,124.60799551010132L83.64770454545454,159.3239996433258L83.74836363636364,64.98798942565918L83.94968181818182,80.12399649620056L84.0503409090909,39.07199001312256L84.55363636363637,115.19199347496033L84.65429545454546,108.76800274848938L84.95627272727273,162.49200081825256L85.05693181818181,79.815997838974L85.35890909090908,114.92800211906433L85.55519431818182,169.4000062942505L85.86220454545455,162.36000514030457L86.06352272727273,66.79200029373169L86.26484090909092,56.67199945449829L86.46615909090909,144.18800568580627L86.76813636363636,81.61999559402466L87.17077272727273,128.17199683189392L87.27143181818181,135.91599678993225L87.47275,127.95199966430664L87.77472727272728,113.29999423027039L88.17736363636362,53.19599962234497L88.68065909090909,139.47999811172485L89.38527272727273,118.18400478363037L89.48593181818181,108.94400572776794L89.68725,75.76799488067627L89.78790909090908,131.7800054550171L89.88856818181819,55.7480034828186L89.98922727272728,71.7639992237091L90.08988636363635,78.84799456596375L90.19054545454546,76.38400530815125L90.49252272727273,91.69600224494934L90.89515909090909,74.88800621032715L90.99581818181818,97.28399848937988L91.39845454545454,92.40000104904175L91.70043181818181,92.70799970626831L91.90175,75.76799488067627L92.10306818181817,95.48000073432922L92.40504545454544,119.76800537109375L92.50570454545455,54.55998992919922L92.60636363636364,104.85199546813965L92.70702272727273,95.43600654602051L92.80768181818182,118.49200344085693L93.009,111.715993642807L93.10965909090909,51.83200931549072L93.21031818181818,159.05999517440796L93.41163636363636,94.02799582481384L93.51229545454545,98.82400488853455L93.61295454545454,88.5719952583313L93.71361363636363,113.29999423027039L93.91493181818183,124.4320056438446L94.11625000000001,133.01200008392334L94.2169090909091,116.73199987411499L94.92152272727272,117.4359986782074L95.22349999999999,60.50000524520874L95.32415909090909,75.23999905586243L95.42481818181818,94.90799760818481L95.62613636363636,103.40000367164612L95.92811363636363,157.43200039863586L96.12943181818183,49.58800411224365L96.33075,66.8359944820404L96.73338636363637,92.75199389457703L97.13602272727272,41.75598955154419L97.43799999999999,163.8119969367981L97.53865909090909,30.9760103225708L97.63931818181818,107.40399932861328L97.73997727272726,142.12000346183777L97.84063636363636,144.05599689483643L98.34393181818183,97.41599416732788L98.94788636363637,104.41200113296509L99.14920454545454,85.66799855232239L99.24986363636364,74.00800442695618L99.35052272727272,124.03600549697876L99.45118181818182,114.00400614738464L99.6525,39.555991649627686L99.95447727272727,127.33600234985352L100.05513636363636,166.84800243377686L100.35711363636364,106.74399471282959L100.45777272727273,119.01999926567078L100.55843181818182,117.21600151062012L100.75975,115.76399660110474L100.96106818181818,133.23199725151062L101.56502272727273,84.12800526618958L101.867,113.03600287437439L101.96765909090908,101.94799876213074L102.26963636363637,137.98399901390076L102.37029545454546,71.67599773406982L102.47095454545455,148.41199851036072L102.67227272727273,78.53999590873718L102.77293181818182,100.71600413322449L102.87359090909091,76.64799666404724L103.37688636363636,141.67999601364136L103.77952272727273,125.31199431419373L103.88018181818181,74.97599458694458L104.0815,161.34799456596375L104.28281818181819,40.61200952529907L104.48413636363635,109.2520043849945L104.58479545454546,122.18800044059753L104.68545454545455,119.90000104904175L104.78611363636362,131.55999517440796L104.88677272727273,10.252007007598877L105.18875,137.0159957408905L105.3900681818182,71.1919960975647L105.59138636363636,117.92000031471252L105.79270454545454,45.45199966430664L105.99402272727274,130.94399785995483L106.09468181818181,85.66799855232239L106.1953409090909,70.75200176239014L106.59797727272728,143.65999674797058L106.79929545454546,133.93599605560303L106.89995454545455,144.89200448989868L107.10127272727273,144.05599689483643L107.40325,153.29599595069885L107.80588636363636,119.45999360084534L108.10786363636363,155.1879951953888L108.4098409090909,147.1359965801239L108.51050000000001,0.0439915657043457L108.71181818181817,131.29600381851196L108.91313636363635,0.3959975242614746L109.11445454545455,84.34800243377686L109.61775,151.84400415420532L109.81906818181818,156.3320014476776L109.91972727272727,68.90399670600891L110.02038636363636,141.45999884605408L110.12104545454545,78.80400037765503L110.42302272727274,114.13600182533264L111.02697727272728,76.33999800682068L111.22829545454545,119.19600224494934L111.32895454545455,97.41599416732788L111.42961363636364,162.22799634933472L111.63093181818182,153.6919960975647L112.03356818181818,115.14799928665161L112.23488636363636,125.35600161552429L112.33554545454545,128.43600130081177L112.73818181818183,89.49600434303284L112.8388409090909,103.09200501441956L112.9395,60.14799928665161L113.0401590909091,148.23599553108215L113.34213636363637,78.10000157356262L113.44279545454545,132.57200574874878L113.54345454545455,152.32800579071045L113.74477272727272,117.83199882507324L114.04674999999999,85.31600570678711L114.24806818181818,77.6159999370575L114.34872727272726,129.53600025177002L114.55004545454545,131.1200008392334L114.65070454545456,126.85200071334839L114.95268181818183,109.3840000629425L115.2546590909091,153.60399460792542L115.35531818181818,159.76399397850037L116.05993181818182,64.94400835037231L116.16059090909091,123.72799372673035L116.26124999999999,115.1040050983429L116.3619090909091,91.38800358772278L116.56322727272726,136.70799708366394L116.66388636363637,124.96000146865845L116.86520454545455,69.82800579071045L116.96586363636364,163.37200260162354L117.06652272727273,98.4280047416687L117.3685,100.93600130081177L117.4691590909091,111.40799498558044L117.56981818181818,82.71999454498291L117.67047727272727,127.29199504852295L117.87179545454545,163.15200543403625L118.47574999999999,132.79200291633606L118.5764090909091,121.88000178337097L118.87838636363637,92.48800253868103L119.583,142.42800211906433L119.88497727272727,125.88399744033813L120.58959090909092,20.372007846832275L120.69025,99.52800369262695L120.79090909090908,126.67599773406982L120.99222727272728,172.65599584579468L121.09288636363635,19.139986991882324L121.19354545454546,114.66399765014648L121.49552272727273,78.53999590873718L121.59618181818182,149.1600046157837L121.7975,146.03599762916565L121.99881818181818,61.687992572784424L122.09947727272727,49.05999517440796L122.50211363636363,44.43998908996582L122.60277272727274,137.23600602149963L123.00540909090908,122.05600476264954L123.10606818181819,88.48399376869202L123.20672727272728,133.14399576187134L123.30738636363635,129.88800621032715L123.60936363636363,115.58799362182617L123.71002272727273,122.14400625228882L123.81068181818182,118.09600329399109L124.11265909090909,54.824007511138916L124.2133181818182,101.68399429321289L125.0185909090909,103.6200008392334L125.42122727272728,61.60000419616699L125.62254545454546,90.11200165748596L125.81883068181818,150.30399775505066L125.82386363636363,27.808009147644043L126.1258409090909,123.64000535011292L126.2265,157.03600025177002L126.42781818181818,146.3000020980835L126.52847727272727,110.26400184631348L126.62913636363636,75.19600486755371L126.72979545454545,54.956003189086914L127.03177272727274,121.39600014686584L127.83704545454545,121.74800610542297L128.03836363636364,62.52400016784668L128.23968181818182,79.37600350379944L128.441,137.89599752426147L128.5416590909091,111.80399513244629L128.64231818181818,57.200008392333984L128.84363636363636,132.5279984474182L129.04495454545454,137.06000304222107L129.14561363636363,104.36799383163452L129.24627272727272,59.48799467086792L129.54825,156.02400279045105L129.74956818181818,118.1399974822998L130.4541818181818,116.0719952583313L130.5548409090909,116.73199987411499L130.85681818181817,153.5600004196167L131.05813636363638,19.40400457382202L131.66209090909092,87.55999779701233L131.76274999999998,101.59600591659546L131.9640681818182,118.0080018043518L132.16538636363637,40.74400520324707L132.56802272727273,139.12800526618958L132.9706590909091,144.67199420928955L133.17197727272728,131.38400530815125L133.37329545454546,-17.028008937835693L133.67527272727273,109.3840000629425L133.77593181818182,166.14400362968445L133.8765909090909,138.16000199317932L133.97725,135.56400394439697L134.58120454545454,128.04000115394592L134.68186363636363,129.1839942932129L135.28581818181817,46.55199861526489L135.48713636363638,106.52399754524231L135.68845454545453,82.10399723052979L135.78911363636365,143.13200092315674L135.8897727272727,106.39200186729431L136.79570454545456,130.63599920272827L136.99702272727274,123.50799655914307L137.299,95.48000073432922L137.70163636363637,171.02800107002258L137.90295454545455,91.03599762916565L138.00361363636364,77.08800411224365L138.10427272727273,114.53200197219849L138.40625,138.42400646209717L138.5069090909091,38.544007301330566L138.7082272727273,143.13200092315674L138.80888636363636,144.45199704170227L138.90954545454545,86.8120048046112L139.21152272727272,146.4319977760315L139.31218181818184,105.55599427223206L140.31877272727272,160.0279984474182L140.52009090909092,128.43600130081177L140.62075000000002,100.0559995174408L140.92272727272726,157.73999905586243L141.02338636363638,89.71600151062012L141.12404545454547,89.49600434303284L141.4260227272727,73.52400279045105L141.52668181818183,122.54000639915466L141.62734090909092,103.83999800682068L143.13722727272727,87.12000346183777L143.43920454545454,99.52800369262695L143.64052272727272,105.38000440597534L143.74118181818181,58.12400436401367L143.9425,128.47999548912048L144.04315909090909,140.93200302124023L144.34513636363639,92.31199955940247L144.64711363636363,120.95600581169128L144.74777272727272,158.7519965171814L144.8484318181818,113.69599437713623L144.94909090909093,119.90000104904175L145.15040909090908,138.55600214004517L145.35172727272726,160.8199987411499L145.55304545454547,75.59200501441956L145.75436363636362,32.07600927352905L145.8550227272727,120.60399985313416L145.9556818181818,-117.34800243377686L146.157,132.30800127983093L146.3583181818182,128.70000576972961L146.45897727272725,103.35599637031555L146.55963636363634,65.868004322052L146.66029545454546,145.5960032939911L146.76095454545455,134.37600350379944L147.76754545454546,38.544007301330566L148.17018181818182,143.00000524520874L148.57281818181818,124.4320056438446L148.67347727272727,145.7279989719391L148.77413636363636,126.98399639129639L148.97545454545454,108.85600423812866L149.2774318181818,115.14799928665161L149.57940909090908,180.66400027275085L149.78072727272726,5.147999286651611L149.98204545454547,91.38800358772278L150.08270454545456,85.75600004196167L150.2840227272727,152.28399848937988L150.6866590909091,79.11199903488159L150.7873181818182,115.1040050983429L150.88797727272726,125.00399565696716L151.08929545454546,147.35599374771118L151.18995454545455,141.2400016784668L151.4919318181818,153.03200459480286L151.5925909090909,150.87600088119507L151.69325,102.82800054550171L151.7939090909091,68.3319935798645L151.8945681818182,27.103997230529785L151.99522727272728,94.81999611854553L152.49852272727273,145.99200344085693L152.59918181818182,144.84799718856812L152.8005,118.18400478363037L153.20313636363636,138.29199767112732L153.30379545454545,136.53199410438538L153.50511363636363,123.1999979019165L153.90775000000002,153.29599595069885L154.10906818181817,89.8040030002594L154.51170454545456,161.08400321006775L154.61236363636365,108.41599678993225L154.71302272727272,76.20800232887268L154.8136818181818,123.37600088119507L155.01500000000001,108.94400572776794L155.31697727272726,139.65600109100342L155.41763636363635,113.82800316810608L155.61895454545456,-8.051988124847412L155.71961363636365,128.52400279045105L155.82027272727274,103.83999800682068L156.42422727272728,125.57599878311157L156.62554545454543,128.70000576972961L156.72620454545455,81.61999559402466L156.92752272727273,5.50000524520874L157.02818181818182,158.35599637031555L157.3301590909091,128.1280026435852L157.43081818181818,154.61600518226624L157.93411363636363,94.3359944820404L158.03477272727272,153.38399744033813L158.13543181818181,44.57201099395752L158.4374090909091,75.81200218200684L158.63872727272727,163.98799991607666L158.73938636363636,107.97600245475769L158.84004545454545,88.96799540519714L158.94070454545454,119.76800537109375L159.04136363636366,99.13200354576111L159.14202272727275,132.30800127983093L159.444,87.64799928665161L159.7459772727273,82.36800169944763L160.24927272727274,188.23199725151062L160.34993181818183,135.29999947547913L160.4505909090909,89.14399838447571L160.55124999999998,162.58000230789185L160.95388636363637,69.6959969997406L161.35652272727273,99.30800652503967L161.5578409090909,84.12800526618958L161.6585,128.1280026435852L162.06113636363636,125.53200459480286L162.46377272727273,146.5639934539795L163.16838636363636,151.57999968528748L163.36970454545454,124.5640013217926L163.6716818181818,148.54399418830872L163.873,152.768000125885L163.97365909090908,101.90400457382202L164.1749772727273,147.1359965801239L164.27563636363635,131.33999800682068L164.37629545454544,138.16000199317932L164.57761363636365,146.1680064201355L164.67827272727274,153.47199892997742L164.98024999999998,159.9840042591095L166.59079545454546,131.03199934959412L166.69145454545455,126.36799907684326L166.7921136363636,135.6079981327057L166.89277272727273,135.08000230789185L167.2954090909091,151.4919981956482L167.59738636363636,94.20399880409241L167.69804545454545,163.89999842643738L168.00002272727275,113.21200585365295L168.1006818181818,82.06000304222107L168.2013409090909,134.46400499343872L168.6039772727273,84.92000555992126L168.70463636363638,99.22000503540039L168.80529545454544,50.86400604248047L169.00661363636362,124.60799551010132L169.10727272727274,168.21200585365295L169.20793181818183,110.96800065040588L169.40925,105.02799844741821L169.61056818181817,150.87600088119507L170.21452272727274,68.02399492263794L170.41584090909092,101.06799697875977L170.91913636363637,133.7600061893463L171.01979545454546,142.91200375556946L171.92572727272727,135.69599962234497L172.02638636363636,130.10800337791443L173.13363636363638,125.57599878311157L173.53627272727272,106.56800484657288L173.63693181818184,80.47600245475769L173.93890909090908,165.52800631523132L174.03956818181817,124.12399387359619L174.34154545454547,58.56399869918823L174.54286363636362,155.67199683189392L174.6435227272727,78.23199725151062L174.74418181818183,141.2839958667755L175.44879545454546,138.81999349594116L175.54945454545455,100.1879951953888L175.65011363636364,117.4359986782074L175.7507727272727,154.52800369262695L175.9520909090909,117.03999853134155L176.05275,163.37200260162354L176.25406818181818,176.13200223445892L176.35472727272725,131.73599815368652L176.45538636363636,134.815997838974L176.55604545454545,17.467998027801514L177.0593409090909,117.4359986782074L177.2606590909091,126.8959949016571L177.76395454545454,113.16799855232239L177.86461363636363,-54.383992195129395L178.16659090909093,96.27200102806091L178.87120454545456,96.05200386047363L179.0725227272727,119.59200239181519L180.07911363636364,106.87600350379944L180.2804318181818,164.60399723052979L180.38109090909091,151.9320056438446L180.5824090909091,109.64800453186035L180.6830681818182,149.9959990978241L180.88438636363634,159.10400247573853L180.98504545454546,149.2920002937317L181.589,152.15200281143188L181.6896590909091,124.78399848937988L182.29361363636363,127.15999937057495L182.39427272727272,135.96000409126282L183.30020454545456,142.12000346183777L183.70284090909092,147.7079997062683L183.9041590909091,133.93599605560303L184.30679545454547,156.06799697875977L184.91075,64.81201267242432L185.1120681818182,159.4559953212738L185.21272727272728,130.06399607658386L185.41404545454546,76.03199934959412L185.71602272727273,74.27199578285217L185.91734090909088,62.52400016784668L186.018,84.78799676895142L186.31997727272727,122.40799760818481L186.42063636363636,137.6760003566742L186.62195454545454,30.9760103225708L186.72261363636363,160.73199725151062L186.82327272727272,121.88000178337097L186.9239318181818,156.11200428009033L187.22590909090908,170.54399943351746L187.32656818181817,144.40800285339355L187.42722727272727,180.7080010175705L187.82986363636365,86.98799467086792L188.0311818181818,49.94001007080078L188.1318409090909,167.9480013847351L188.23250000000002,141.67999601364136L188.4338181818182,93.67600297927856L188.63513636363635,138.64400362968445L188.83645454545456,141.59199452400208L189.1384318181818,147.09200239181519L189.4404090909091,84.0400037765503L189.5410681818182,1.319993495941162L189.64172727272728,91.8720052242279L189.94370454545455,125.35600161552429L190.14502272727273,115.50000524520874L190.24568181818182,117.52400016784668L190.5476590909091,161.56800484657288L190.64831818181818,128.9200029373169L190.95029545454545,101.81600308418274L191.25227272727273,127.51200532913208L191.35293181818182,135.91599678993225L191.4535909090909,113.47599720954895L191.55425,147.97200417518616L191.85622727272727,60.455997943878174L192.25886363636366,132.88000440597534L192.4601818181818,142.25199913978577L192.5608409090909,148.98400163650513L192.6615,112.28799676895142L192.96347727272726,74.05199861526489L193.06413636363635,103.40000367164612L193.26545454545456,89.98000597953796L193.6680909090909,141.3719973564148L193.76874999999998,75.59200501441956L193.8694090909091,105.64399576187134L194.17138636363637,137.32399439811707L194.57402272727273,122.89199924468994L194.67468181818182,159.3239996433258L194.87599999999998,118.44799613952637L194.9766590909091,122.23199462890625L195.07731818181819,71.49999475479126L195.17797727272728,138.07200050354004L195.37929545454546,102.43200039863586L195.68127272727273,128.8320014476776L195.78193181818182,109.47200155258179L195.8825909090909,28.467987537384033L195.98325,114.75199913978577L196.38588636363636,161.2600061893463L196.48654545454545,126.94000220298767L196.9898409090909,88.61600255966187L197.19115909090908,117.08400583267212L197.2918181818182,159.01600098609924L197.3924772727273,156.06799697875977L197.79511363636365,101.28799414634705L198.0970909090909,149.2920002937317L198.29840909090908,-1.8480076789855957L198.60038636363637,58.519991397857666L198.70104545454544,124.34400415420532L198.80170454545453,115.2360007762909L198.90236363636365,52.84399366378784L199.00302272727274,72.95199966430664L199.20434090909092,137.28000020980835L199.40565909090907,75.06399607658386L199.70763636363637,130.10800337791443L199.80829545454546,165.92400646209717L200.0096136363636,158.4880051612854L200.11027272727273,118.9319977760315L200.21093181818182,99.79199504852295L200.5129090909091,157.73999905586243L200.71422727272727,86.98799467086792L200.81488636363636,104.36799383163452L200.91554545454545,147.48800253868103L201.01620454545454,118.53599762916565L201.7208181818182,127.4240038394928L201.8214772727273,153.77999758720398L202.12345454545454,104.41200113296509L202.62675,114.88399481773376L203.02938636363638,118.09600329399109L203.23070454545453,6.424001216888428L203.63334090909092,102.52000188827515L203.734,78.05599427223206L203.93531818181816,91.69600224494934L204.33795454545455,68.15600371360779L204.4386136363636,158.57599353790283L204.53927272727273,146.3439962863922L204.7405909090909,83.64400362968445L204.84125,83.73200511932373L204.9419090909091,114.84000062942505L205.34454545454545,161.5239975452423L205.74718181818182,141.8120048046112L205.9485,15.972012042999268L206.0491590909091,150.17200207710266L206.2504772727273,102.87199473381042L206.75377272727272,86.76799750328064L206.85443181818184,123.90399670600891L207.15640909090908,113.56399869918823L207.45838636363638,70.66400027275085L207.8610227272727,114.35599899291992L208.06234090909092,93.54399418830872L208.46497727272728,135.91599678993225L208.86761363636364,135.12399649620056L208.9682727272727,163.06400394439697L209.06893181818182,155.58399534225464L209.47156818181818,138.86400079727173L209.57222727272725,155.14400100708008L209.87420454545455,98.4280047416687L209.97486363636364,67.6279947757721L210.07552272727273,171.0719952583313L210.3775,143.61600255966187L210.67947727272727,125.35600161552429L210.7801363636364,148.32399702072144L210.98145454545454,141.50400614738464L211.18277272727272,199.4959977865219L211.28343181818184,79.37600350379944L211.38409090909093,152.50399565696716L212.08870454545453,123.46400237083435L212.2900227272727,77.83599710464478L212.3906818181818,149.73199462890625L212.99463636363637,114.26799750328064L213.09529545454546,134.46400499343872L213.19595454545455,167.15600109100342L213.29661363636365,153.34000325202942L213.3972727272727,98.6919960975647L213.59859090909092,150.7879993915558L213.9005681818182,140.6679985523224L214.6051818181818,92.44399523735046L214.7058409090909,157.47599458694458L214.8065,155.67199683189392L215.7124318181818,108.8119969367981L216.01440909090908,163.37200260162354L216.11506818181817,31.679996013641357L216.41704545454547,179.73999774456024L216.51770454545456,168.0799970626831L216.61836363636363,138.11599469184875L216.71902272727272,103.26799488067627L216.8196818181818,163.06400394439697L217.1216590909091,81.3119969367981L217.22231818181817,157.6960048675537L217.32297727272726,78.1880030632019L217.42363636363635,140.3160057067871L217.8262727272727,135.29999947547913L217.9269318181818,159.10400247573853L218.02759090909092,102.1240017414093L218.3295681818182,123.9919981956482L218.53088636363634,185.0640026330948L218.73220454545455,93.89600014686584L218.93352272727273,68.90399670600891L219.03418181818182,140.05200123786926L219.13484090909088,149.02799582481384L219.3361590909091,86.76799750328064L219.43681818181818,74.35999727249146L219.94011363636363,136.8400058746338L220.2420909090909,120.29600119590759L220.44340909090909,128.2599983215332L220.74538636363636,77.08800411224365L221.04736363636363,86.85599899291992L221.14802272727272,184.14000010490417L221.3493409090909,120.03199672698975L221.5506590909091,116.33599972724915L222.15461363636365,114.53200197219849L222.25527272727274,84.08399796485901L222.4565909090909,131.29600381851196L222.6579090909091,107.27200365066528L223.16120454545455,136.53199410438538L223.56384090909089,146.25599479675293L223.6645,141.63600182533264L223.7651590909091,78.76000618934631L223.86581818181818,130.02000188827515L225.07372727272727,141.15200018882751L225.27504545454545,149.24800610542297L225.47636363636366,102.82800054550171L225.6776818181818,125.44400310516357L226.0803181818182,149.24800610542297L226.18097727272726,121.70399880409241L226.28163636363635,154.44000220298767L226.38229545454544,134.28800201416016L226.4779215909091,128.2599983215332L226.48295454545456,-221.14402198791504L226.58361363636365,83.33600497245789L226.7849318181818,92.18000388145447L226.8855909090909,160.29200291633606L226.98624999999998,56.848002433776855L227.1875681818182,155.27599668502808L227.69086363636364,74.27199578285217L227.99284090909092,76.69200396537781L228.1941590909091,172.39200448989868L228.2948181818182,152.94400310516357L228.49613636363637,41.66800117492676L228.79811363636364,125.70799446105957L229.1000909090909,156.02400279045105L229.30140909090912,150.6999979019165L229.60338636363636,135.82799530029297L229.70404545454545,143.83599972724915L229.90536363636366,177.09999895095825L230.00602272727272,136.35600423812866L230.308,147.9279968738556L230.5093181818182,108.0199966430664L230.60997727272726,120.07600402832031L231.41525,159.5439968109131L231.51590909090908,176.9240025281906L231.71722727272729,87.55999779701233L232.22052272727274,54.78000020980835L232.7238181818182,117.78800463676453L232.82447727272728,87.0759961605072L232.92513636363637,84.92000555992126L233.12645454545452,43.031991481781006L233.22711363636364,126.67599773406982L233.42843181818182,165.2199945449829L233.62975,162.71199798583984L233.93172727272727,159.76399397850037L234.03238636363636,-20.152002811431885L234.43502272727272,123.28799939155579L234.9383181818182,78.62799739837646L235.13963636363636,145.3760061264038L235.7435909090909,163.94400572776794L235.84425,154.65999937057495L235.94490909090908,39.51201057434082L236.0455681818182,113.03600287437439L236.1462272727273,139.3039951324463L236.44820454545453,57.55198812484741L236.64952272727274,87.95599794387817L236.95149999999998,121.35200595855713L237.05215909090907,84.0400037765503L237.35413636363637,55.65998888015747L237.55545454545455,87.20800495147705L237.75677272727273,123.59599804878235L237.85743181818182,144.53999853134155L237.9580909090909,148.5L238.36072727272727,169.09199452400208L238.76336363636364,124.6959969997406L238.86402272727275,121.26400446891785L238.96468181818182,164.78000020980835L239.36731818181818,179.16800117492676L239.4679772727273,159.1920039653778L239.66929545454545,151.75600266456604L239.76995454545454,162.22799634933472L239.97127272727275,120.03199672698975L240.07193181818184,106.78800201416016L240.1725909090909,191.48799991607666L240.37390909090908,130.284006357193L240.47456818181817,175.11999821662903L240.5752272727273,135.34399366378784L240.67588636363638,178.81600177288055L240.97786363636362,157.56399607658386L241.17918181818183,180.3560016155243L241.27984090909092,115.01600360870361L241.88379545454546,160.86400604248047L241.98445454545455,-10.340000629425049L242.08511363636362,83.99599647521973L242.48775,118.49200344085693L242.68906818181816,120.11999821662903L242.89038636363637,158.35599637031555L243.29302272727273,98.99999475479126L243.99763636363636,141.45999884605408L244.29961363636363,128.08399534225464L244.50093181818184,166.97999811172485L244.70225,138.20399618148804L244.80290909090908,87.69199347496033L245.00422727272726,84.17199945449829L245.20554545454547,131.55999517440796L245.40686363636362,129.0519986152649L245.50752272727271,118.97600507736206L245.60818181818183,167.55200123786926L245.91015909090908,73.78799414634705L246.01081818181817,147.6640055179596L246.31279545454547,158.09200501441956L246.41345454545456,73.78799414634705L246.6147727272727,60.63200092315674L246.91675,155.45199966430664L247.31938636363637,173.18400478363037L247.9233409090909,151.71199536323547L248.024,104.19200396537781L248.32597727272727,159.05999517440796L248.4266363636364,99.74800086021423L248.62795454545454,92.09200239181519L248.82927272727272,128.56799697875977L248.9299318181818,168.8719973564148L249.13125,81.39999842643738L249.23190909090908,89.05599689483643L249.43322727272727,160.6880030632019L249.53388636363638,173.0960032939911L249.63454545454547,92.26800537109375L249.73520454545454,180.04800295829773L249.93652272727272,145.33199882507324L250.13784090909093,136.57600140571594L250.23850000000002,113.82800316810608L250.64113636363635,140.14000272750854L250.74179545454547,95.39199924468994L250.94311363636365,120.60399985313416L251.24509090909092,154.65999937057495L251.4464090909091,59.48799467086792L251.74838636363634,162.447993516922L252.3523409090909,133.01200008392334L252.95629545454545,153.29599595069885L253.35893181818182,139.83200407028198L253.6609090909091,188.3199987411499L254.16420454545457,110.70399618148804L254.36552272727272,111.40799498558044L254.66750000000002,168.0799970626831L255.27145454545456,69.74000430107117L255.37211363636365,137.19199872016907L255.5734318181818,163.15200543403625L255.8754090909091,83.68799781799316L256.17738636363634,37.75200700759888L256.27804545454546,90.20000314712524L256.3787045454546,129.40400457382202L257.28463636363637,105.02799844741821L257.3852954545454,165.70399618148804L257.48595454545455,82.80799603462219L257.58661363636367,125.48799729347229L257.7879318181818,119.45999360084534L257.98925,159.23599815368652L258.29122727272727,166.27599930763245L258.39188636363633,123.55200386047363L258.79452272727275,73.2599983215332L258.9958409090909,171.95199704170227L259.0965,106.61199903488159L259.1971590909091,77.7479956150055L259.2978181818182,114.35599899291992L260.1030909090909,140.5360028743744L261.00902272727274,90.02400016784668L261.2103409090909,127.29199504852295L261.5123181818182,122.4959990978241L262.01561363636364,83.3799991607666L262.3175909090909,135.3880009651184L262.41825,141.50400614738464L262.7202272727273,166.27599930763245L262.82088636363636,157.784006357193L263.12286363636366,147.09200239181519L263.4248409090909,165.70399618148804L263.6261590909091,129.66799592971802L263.82747727272726,157.47599458694458L264.1294545454545,144.40800285339355L264.4314318181818,134.1119990348816L264.5320909090909,136.79599857330322L264.63275,118.75599479675293L264.83406818181817,111.715993642807L265.6393409090909,108.10799813270569L265.84065909090907,127.24800086021423L266.04197727272725,85.79999423027039L266.24329545454543,125.79599595069885L266.74155795454544,167.46399974822998" style="fill: none;" fill="none"></path></g><g><path stroke="rgb(204, 51, 17)" stroke-width="2px" d="M45.29155795454546,12.627614498138428L65.42337613636364,11.056989192962646L85.55519431818182,21.316643714904785L105.6870125,14.616886138916016L125.81883068181818,23.10397481918335L145.95064886363636,23.50885248184204L166.08246704545454,25.589364528656006L186.21428522727274,32.5873122215271L206.34610340909092,29.27692985534668L226.4779215909091,22.440770626068115L246.60973977272727,27.64165735244751L266.74155795454544,27.634130477905273" style="fill: none;" fill="none"></path></g></g></g></g></g></g><g transform="translate(53, 176)" clip-path="url(#clip_1)"><clipPath id="clip_1"><rect width="276" height="24"></rect></clipPath><g><g><line x1="0" y1="0" x2="0" y2="5" style="visibility: inherit;" fill="rgb(0, 0, 0)" stroke="rgb(204, 204, 204)" stroke-width="1px"></line><line x1="25.164772727272727" y1="0" x2="25.164772727272727" y2="5" style="visibility: inherit;" fill="rgb(0, 0, 0)" stroke="rgb(204, 204, 204)" stroke-width="1px"></line><line x1="50.32954545454545" y1="0" x2="50.32954545454545" y2="5" style="visibility: inherit;" fill="rgb(0, 0, 0)" stroke="rgb(204, 204, 204)" stroke-width="1px"></line><line x1="75.49431818181817" y1="0" x2="75.49431818181817" y2="5" style="visibility: inherit;" fill="rgb(0, 0, 0)" stroke="rgb(204, 204, 204)" stroke-width="1px"></line><line x1="100.6590909090909" y1="0" x2="100.6590909090909" y2="5" style="visibility: inherit;" fill="rgb(0, 0, 0)" stroke="rgb(204, 204, 204)" stroke-width="1px"></line><line x1="125.82386363636363" y1="0" x2="125.82386363636363" y2="5" style="visibility: inherit;" fill="rgb(0, 0, 0)" stroke="rgb(204, 204, 204)" stroke-width="1px"></line><line x1="150.98863636363635" y1="0" x2="150.98863636363635" y2="5" style="visibility: inherit;" fill="rgb(0, 0, 0)" stroke="rgb(204, 204, 204)" stroke-width="1px"></line><line x1="176.1534090909091" y1="0" x2="176.1534090909091" y2="5" style="visibility: inherit;" fill="rgb(0, 0, 0)" stroke="rgb(204, 204, 204)" stroke-width="1px"></line><line x1="201.3181818181818" y1="0" x2="201.3181818181818" y2="5" style="visibility: inherit;" fill="rgb(0, 0, 0)" stroke="rgb(204, 204, 204)" stroke-width="1px"></line><line x1="226.48295454545456" y1="0" x2="226.48295454545456" y2="5" style="visibility: inherit;" fill="rgb(0, 0, 0)" stroke="rgb(204, 204, 204)" stroke-width="1px"></line><line x1="251.64772727272725" y1="0" x2="251.64772727272725" y2="5" style="visibility: inherit;" fill="rgb(0, 0, 0)" stroke="rgb(204, 204, 204)" stroke-width="1px"></line><line x1="276.8125" y1="0" x2="276.8125" y2="5" style="visibility: inherit;" fill="rgb(0, 0, 0)" stroke="rgb(204, 204, 204)" stroke-width="1px"></line></g><g transform="translate(0, 8)"><text x="0" y="0" dx="0em" dy="0.95em" style="text-anchor: middle; visibility: hidden; font-family: Roboto, sans-serif; font-size: 12px; font-weight: 200;" fill="rgb(33, 33, 33)" stroke="none" stroke-width="1px">-5k</text><text x="25.164772727272727" y="0" dx="0em" dy="0.95em" style="text-anchor: middle; visibility: inherit; font-family: Roboto, sans-serif; font-size: 12px; font-weight: 200;" fill="rgb(33, 33, 33)" stroke="none" stroke-width="1px">0</text><text x="50.32954545454545" y="0" dx="0em" dy="0.95em" style="text-anchor: middle; visibility: inherit; font-family: Roboto, sans-serif; font-size: 12px; font-weight: 200;" fill="rgb(33, 33, 33)" stroke="none" stroke-width="1px">5k</text><text x="75.49431818181817" y="0" dx="0em" dy="0.95em" style="text-anchor: middle; visibility: inherit; font-family: Roboto, sans-serif; font-size: 12px; font-weight: 200;" fill="rgb(33, 33, 33)" stroke="none" stroke-width="1px">10k</text><text x="100.6590909090909" y="0" dx="0em" dy="0.95em" style="text-anchor: middle; visibility: inherit; font-family: Roboto, sans-serif; font-size: 12px; font-weight: 200;" fill="rgb(33, 33, 33)" stroke="none" stroke-width="1px">15k</text><text x="125.82386363636363" y="0" dx="0em" dy="0.95em" style="text-anchor: middle; visibility: inherit; font-family: Roboto, sans-serif; font-size: 12px; font-weight: 200;" fill="rgb(33, 33, 33)" stroke="none" stroke-width="1px">20k</text><text x="150.98863636363635" y="0" dx="0em" dy="0.95em" style="text-anchor: middle; visibility: inherit; font-family: Roboto, sans-serif; font-size: 12px; font-weight: 200;" fill="rgb(33, 33, 33)" stroke="none" stroke-width="1px">25k</text><text x="176.1534090909091" y="0" dx="0em" dy="0.95em" style="text-anchor: middle; visibility: inherit; font-family: Roboto, sans-serif; font-size: 12px; font-weight: 200;" fill="rgb(33, 33, 33)" stroke="none" stroke-width="1px">30k</text><text x="201.3181818181818" y="0" dx="0em" dy="0.95em" style="text-anchor: middle; visibility: inherit; font-family: Roboto, sans-serif; font-size: 12px; font-weight: 200;" fill="rgb(33, 33, 33)" stroke="none" stroke-width="1px">35k</text><text x="226.48295454545456" y="0" dx="0em" dy="0.95em" style="text-anchor: middle; visibility: inherit; font-family: Roboto, sans-serif; font-size: 12px; font-weight: 200;" fill="rgb(33, 33, 33)" stroke="none" stroke-width="1px">40k</text><text x="251.64772727272725" y="0" dx="0em" dy="0.95em" style="text-anchor: middle; visibility: inherit; font-family: Roboto, sans-serif; font-size: 12px; font-weight: 200;" fill="rgb(33, 33, 33)" stroke="none" stroke-width="1px">45k</text><text x="276.8125" y="0" dx="0em" dy="0.95em" style="text-anchor: middle; visibility: hidden; font-family: Roboto, sans-serif; font-size: 12px; font-weight: 200;" fill="rgb(33, 33, 33)" stroke="none" stroke-width="1px">50k</text></g><line x1="0" y1="0" x2="276.8125" y2="0" fill="rgb(0, 0, 0)" stroke="rgb(204, 204, 204)" stroke-width="1px"></line></g></g></g></g></svg>