<svg viewBox="0 0 330 200" xmlns="http://www.w3.org/2000/svg"><g><g><g><g><g><line x1="53.1875" y1="176" x2="48.1875" y2="176" style="visibility: inherit;" fill="rgb(0, 0, 0)" stroke="rgb(204, 204, 204)" stroke-width="1px"></line><line x1="53.1875" y1="156.44444444444446" x2="48.1875" y2="156.44444444444446" style="visibility: inherit;" fill="rgb(0, 0, 0)" stroke="rgb(204, 204, 204)" stroke-width="1px"></line><line x1="53.1875" y1="136.88888888888889" x2="48.1875" y2="136.88888888888889" style="visibility: inherit;" fill="rgb(0, 0, 0)" stroke="rgb(204, 204, 204)" stroke-width="1px"></line><line x1="53.1875" y1="117.33333333333334" x2="48.1875" y2="117.33333333333334" style="visibility: inherit;" fill="rgb(0, 0, 0)" stroke="rgb(204, 204, 204)" stroke-width="1px"></line><line x1="53.1875" y1="97.77777777777779" x2="48.1875" y2="97.77777777777779" style="visibility: inherit;" fill="rgb(0, 0, 0)" stroke="rgb(204, 204, 204)" stroke-width="1px"></line><line x1="53.1875" y1="78.22222222222226" x2="48.1875" y2="78.22222222222226" style="visibility: inherit;" fill="rgb(0, 0, 0)" stroke="rgb(204, 204, 204)" stroke-width="1px"></line><line x1="53.1875" y1="58.66666666666667" x2="48.1875" y2="58.66666666666667" style="visibility: inherit;" fill="rgb(0, 0, 0)" stroke="rgb(204, 204, 204)" stroke-width="1px"></line><line x1="53.1875" y1="39.11111111111115" x2="48.1875" y2="39.11111111111115" style="visibility: inherit;" fill="rgb(0, 0, 0)" stroke="rgb(204, 204, 204)" stroke-width="1px"></line><line x1="53.1875" y1="19.555555555555564" x2="48.1875" y2="19.555555555555564" style="visibility: inherit;" fill="rgb(0, 0, 0)" stroke="rgb(204, 204, 204)" stroke-width="1px"></line><line x1="53.1875" y1="0" x2="48.1875" y2="0" style="visibility: inherit;" fill="rgb(0, 0, 0)" stroke="rgb(204, 204, 204)" stroke-width="1px"></line></g><g transform="translate(43.1875, 0)"><text x="0" y="176" dx="0em" dy="0.3em" style="text-anchor: end; visibility: hidden; font-family: Roboto, sans-serif; font-size: 12px; font-weight: 200;" fill="rgb(33, 33, 33)" stroke="none" stroke-width="1px">0.1</text><text x="0" y="156.44444444444446" dx="0em" dy="0.3em" style="text-anchor: end; visibility: inherit; font-family: Roboto, sans-serif; font-size: 12px; font-weight: 200;" fill="rgb(33, 33, 33)" stroke="none" stroke-width="1px">0.15</text><text x="0" y="136.88888888888889" dx="0em" dy="0.3em" style="text-anchor: end; visibility: hidden; font-family: Roboto, sans-serif; font-size: 12px; font-weight: 200;" fill="rgb(33, 33, 33)" stroke="none" stroke-width="1px">0.2</text><text x="0" y="117.33333333333334" dx="0em" dy="0.3em" style="text-anchor: end; visibility: inherit; font-family: Roboto, sans-serif; font-size: 12px; font-weight: 200;" fill="rgb(33, 33, 33)" stroke="none" stroke-width="1px">0.25</text><text x="0" y="97.77777777777779" dx="0em" dy="0.3em" style="text-anchor: end; visibility: hidden; font-family: Roboto, sans-serif; font-size: 12px; font-weight: 200;" fill="rgb(33, 33, 33)" stroke="none" stroke-width="1px">0.3</text><text x="0" y="78.22222222222226" dx="0em" dy="0.3em" style="text-anchor: end; visibility: inherit; font-family: Roboto, sans-serif; font-size: 12px; font-weight: 200;" fill="rgb(33, 33, 33)" stroke="none" stroke-width="1px">0.35</text><text x="0" y="58.66666666666667" dx="0em" dy="0.3em" style="text-anchor: end; visibility: hidden; font-family: Roboto, sans-serif; font-size: 12px; font-weight: 200;" fill="rgb(33, 33, 33)" stroke="none" stroke-width="1px">0.4</text><text x="0" y="39.11111111111115" dx="0em" dy="0.3em" style="text-anchor: end; visibility: inherit; font-family: Roboto, sans-serif; font-size: 12px; font-weight: 200;" fill="rgb(33, 33, 33)" stroke="none" stroke-width="1px">0.45</text><text x="0" y="19.555555555555564" dx="0em" dy="0.3em" style="text-anchor: end; visibility: hidden; font-family: Roboto, sans-serif; font-size: 12px; font-weight: 200;" fill="rgb(33, 33, 33)" stroke="none" stroke-width="1px">0.5</text><text x="0" y="0" dx="0em" dy="0.3em" style="text-anchor: end; visibility: hidden; font-family: Roboto, sans-serif; font-size: 12px; font-weight: 200;" fill="rgb(33, 33, 33)" stroke="none" stroke-width="1px">0.55</text></g><line x1="53.1875" y1="0" x2="53.1875" y2="176" fill="rgb(0, 0, 0)" stroke="rgb(204, 204, 204)" stroke-width="1px"></line></g></g><g transform="translate(53, 0)" clip-path="url(#clip_0)"><clipPath id="clip_0"><rect width="276" height="176"></rect></clipPath><g><g><g><line x1="0" y1="0" x2="0" y2="176" fill="rgb(0, 0, 0)" stroke="rgb(66, 66, 66)" stroke-width="1px" opacity="0.25"></line><line x1="25.164772727272727" y1="0" x2="25.164772727272727" y2="176" fill="rgb(0, 0, 0)" stroke="rgb(66, 66, 66)" stroke-width="1px" opacity="0.25"></line><line x1="50.32954545454545" y1="0" x2="50.32954545454545" y2="176" fill="rgb(0, 0, 0)" stroke="rgb(66, 66, 66)" stroke-width="1px" opacity="0.25"></line><line x1="75.49431818181817" y1="0" x2="75.49431818181817" y2="176" fill="rgb(0, 0, 0)" stroke="rgb(66, 66, 66)" stroke-width="1px" opacity="0.25"></line><line x1="100.6590909090909" y1="0" x2="100.6590909090909" y2="176" fill="rgb(0, 0, 0)" stroke="rgb(66, 66, 66)" stroke-width="1px" opacity="0.25"></line><line x1="125.82386363636363" y1="0" x2="125.82386363636363" y2="176" fill="rgb(0, 0, 0)" stroke="rgb(66, 66, 66)" stroke-width="1px" opacity="0.25"></line><line x1="150.98863636363635" y1="0" x2="150.98863636363635" y2="176" fill="rgb(0, 0, 0)" stroke="rgb(66, 66, 66)" stroke-width="1px" opacity="0.25"></line><line x1="176.1534090909091" y1="0" x2="176.1534090909091" y2="176" fill="rgb(0, 0, 0)" stroke="rgb(66, 66, 66)" stroke-width="1px" opacity="0.25"></line><line x1="201.3181818181818" y1="0" x2="201.3181818181818" y2="176" fill="rgb(0, 0, 0)" stroke="rgb(66, 66, 66)" stroke-width="1px" opacity="0.25"></line><line x1="226.48295454545456" y1="0" x2="226.48295454545456" y2="176" fill="rgb(0, 0, 0)" stroke="rgb(66, 66, 66)" stroke-width="1px" opacity="0.25"></line><line x1="251.64772727272725" y1="0" x2="251.64772727272725" y2="176" fill="rgb(0, 0, 0)" stroke="rgb(66, 66, 66)" stroke-width="1px" opacity="0.25"></line><line x1="276.8125" y1="0" x2="276.8125" y2="176" fill="rgb(0, 0, 0)" stroke="rgb(66, 66, 66)" stroke-width="1px" opacity="0.25"></line></g><g><line x1="0" y1="176" x2="276.8125" y2="176" fill="rgb(0, 0, 0)" stroke="rgb(66, 66, 66)" stroke-width="1px" opacity="0.25"></line><line x1="0" y1="156.44444444444446" x2="276.8125" y2="156.44444444444446" fill="rgb(0, 0, 0)" stroke="rgb(66, 66, 66)" stroke-width="1px" opacity="0.25"></line><line x1="0" y1="136.88888888888889" x2="276.8125" y2="136.88888888888889" fill="rgb(0, 0, 0)" stroke="rgb(66, 66, 66)" stroke-width="1px" opacity="0.25"></line><line x1="0" y1="117.33333333333334" x2="276.8125" y2="117.33333333333334" fill="rgb(0, 0, 0)" stroke="rgb(66, 66, 66)" stroke-width="1px" opacity="0.25"></line><line x1="0" y1="97.77777777777779" x2="276.8125" y2="97.77777777777779" fill="rgb(0, 0, 0)" stroke="rgb(66, 66, 66)" stroke-width="1px" opacity="0.25"></line><line x1="0" y1="78.22222222222226" x2="276.8125" y2="78.22222222222226" fill="rgb(0, 0, 0)" stroke="rgb(66, 66, 66)" stroke-width="1px" opacity="0.25"></line><line x1="0" y1="58.66666666666667" x2="276.8125" y2="58.66666666666667" fill="rgb(0, 0, 0)" stroke="rgb(66, 66, 66)" stroke-width="1px" opacity="0.25"></line><line x1="0" y1="39.11111111111115" x2="276.8125" y2="39.11111111111115" fill="rgb(0, 0, 0)" stroke="rgb(66, 66, 66)" stroke-width="1px" opacity="0.25"></line><line x1="0" y1="19.555555555555564" x2="276.8125" y2="19.555555555555564" fill="rgb(0, 0, 0)" stroke="rgb(66, 66, 66)" stroke-width="1px" opacity="0.25"></line><line x1="0" y1="0" x2="276.8125" y2="0" fill="rgb(0, 0, 0)" stroke="rgb(66, 66, 66)" stroke-width="1px" opacity="0.25"></line></g></g></g><g><g><line x1="0" y1="215.11111111111114" x2="276.8125" y2="215.11111111111114" fill="rgb(0, 0, 0)" stroke="rgb(153, 153, 153)" stroke-width="1.5px"></line></g></g><g><g><line x1="25.164772727272727" y1="0" x2="25.164772727272727" y2="176" fill="rgb(0, 0, 0)" stroke="rgb(153, 153, 153)" stroke-width="1.5px"></line></g></g><g><g><g><g><g><path stroke="rgb(0, 119, 187)" stroke-width="2px" d="M25.66806818181818,40.87111642625598L25.768727272727272,39.244917674371365L26.171363636363637,32.45573277100036L26.27202272727273,13.123831361003582L26.574,21.542281091368345L26.67465909090909,30.87603888454901L26.976636363636366,29.598251176266075L27.077295454545453,19.127285181367995L27.177954545454543,24.202769336919015L27.58059090909091,23.585342045362417L28.486522727272728,27.43248104569102L28.7885,21.641888019416164L29.191136363636364,31.4360410590372L29.392454545454545,38.136367635922966L29.59377272727273,39.884416597639934L29.69443181818182,40.57200974267638L29.89575,33.70783712564297L30.097068181818184,37.072465611874016L30.19772727272727,40.00325947048978L30.499704545454545,30.600587204918526L30.600363636363635,31.130213440079935L30.70102272727273,32.757337165795676L30.80168181818182,38.26523082461507L30.902340909090906,41.03898192120753L31.506295454545455,39.24275580697292L31.707613636363636,44.434357884735974L31.808272727272726,35.958497111527386L31.90893181818182,41.85037572840578L32.00959090909091,36.961837535652805L32.31156818181818,36.98615127235741L32.41222727272727,34.31190826385685L32.51288636363636,33.08351635797732L32.61354545454545,35.424760526645116L33.11684090909091,31.829215829981877L33.62013636363636,40.57508317635329L33.92211363636363,44.37054773935424L34.02277272727273,46.600212074477355L34.62672727272727,50.81714188374325L35.432,55.114447410210346L35.73397727272727,53.502014006298076L35.83463636363636,54.211742835999644L36.53925,53.403828817020624L36.841227272727274,59.29312720822264L37.042545454545454,58.59401261642724L37.747159090909086,55.137151021779275L37.847818181818184,57.87391153377055L38.149795454545455,57.878911541621925L38.250454545454545,59.39488833042441L38.955068181818184,59.31377911108953L39.15638636363636,61.1200657606618L39.357704545454546,58.66922505132251L39.45836363636364,62.53363438684211L39.559022727272726,54.619603108505935L40.26363636363636,58.4673648315543L40.76693181818182,61.47279630423761L40.96825,62.31698393366476L41.06890909090909,67.38916651929263L41.169568181818185,63.17138129268024L41.471545454545456,65.37312794444234L41.77352272727273,66.12356359547933L41.97484090909091,71.61324156151015L42.0755,73.80657653661143L42.37747727272727,76.68070624232709L42.98143181818182,72.33586903952674L43.08209090909091,70.38020727675868L43.283409090909096,71.03205382352041L43.58538636363637,69.07027315060472L43.78670454545454,66.670900424831L43.88736363636364,73.57626249251118L44.08868181818181,78.01341629702745L44.29,81.51324852329597L44.3906590909091,86.27100508266805L45.09527272727273,83.78712594172052L45.79988636363637,82.92130210130964L45.90054545454545,85.96078494529338L46.00120454545455,88.83695271750605L46.40384090909091,88.78844338725713L47.41043181818182,83.20124811288704L47.51109090909091,80.11343993643807L47.71240909090909,83.4333097301512L47.91372727272728,79.45008493982313L48.11504545454545,83.92364581445436L48.41702272727272,83.83455556714749L48.51768181818182,85.59286360511317L48.61834090909091,89.20150922431661L48.92031818181818,87.39546020793478L49.92690909090909,91.32441372233824L50.12822727272727,91.13275484379241L50.73218181818182,86.67332435255474L51.03415909090909,88.34709694126917L51.13481818181818,91.35543804765983L51.23547727272727,95.04465503628414L51.33613636363636,94.76648530239014L51.537454545454544,94.87988673706244L51.940090909090905,96.98452601527512L52.14140909090909,91.40033664577749L52.342727272727274,90.00816292592293L52.54404545454546,91.02764687249966L53.047340909090906,90.04823114364706L53.24865909090909,82.20480082696871L53.65129545454545,85.8076955356313L54.35590909090909,86.42587284098178L54.45656818181818,89.54014567379367L54.959863636363636,87.594808765724L55.060522727272726,81.88199424824774L55.16118181818182,81.418233047868L55.362500000000004,86.50776300428154L55.46315909090909,83.6062869741552L55.563818181818185,88.13672690093681L55.966454545454546,87.98616382495834L56.067113636363636,85.46094827509756L56.26843181818182,83.33297117736305L56.57040909090909,86.20111596704906L56.973045454545456,89.97924973183756L57.07370454545455,93.950590861717L57.17436363636363,94.83002535843875L57.27502272727273,95.89529454563505L57.476340909090915,95.320873940101L57.778318181818186,91.63197384537315L57.87897727272727,85.57417877033436L57.97963636363636,80.3255452343879L58.28161363636363,83.4161989573907L58.583590909090915,84.97360478794283L59.18754545454546,88.14700669452L59.38886363636364,90.82315613011846L59.69084090909091,91.24875256934746L59.7915,91.92512273253318L59.99281818181819,83.58131046786689L60.09347727272727,86.1625603927637L60.59677272727273,89.59644167075537L60.69743181818182,89.83181954108066L61.10006818181818,86.25378999300466L61.30138636363637,88.30183502197784L61.60336363636364,90.37583078122883L62.006,96.04402944533776L62.40863636363637,96.49509359217298L62.60995454545454,94.19456057037178L63.01259090909091,93.10185957097053L63.11325,95.10260766332276L63.21390909090909,98.73759277412834L63.41522727272727,98.14098922564907L63.51588636363637,100.0915130924347L63.91852272727272,101.96431805938633L64.01918181818182,98.67881928318855L64.42181818181818,98.17804850841048L64.52247727272727,94.88006494178137L64.62313636363636,98.05232566519732L65.52906818181819,99.0065603424984L66.03236363636363,101.07390451545962L66.73697727272727,98.70269145927871L66.83763636363636,101.38708922681823L67.34093181818182,101.54242487956756L67.4415909090909,100.36418280554392L67.64290909090909,99.00652012085907L67.84422727272727,98.25786747944356L68.24686363636363,101.98408090000729L69.15279545454545,102.73287295601165L69.25345454545455,101.44340730497292L69.35411363636365,95.43311086055344L69.45477272727273,96.11735493377186L69.75675,97.90650802382456L70.36070454545454,96.52865749080999L71.06531818181818,95.57019213545479L71.16597727272728,95.3098841572809L71.26663636363637,99.98796248691843L71.36729545454546,99.39147750578374L71.56861363636364,103.82566300327322L71.66927272727273,104.5076298022513L71.97125,107.7614003637928L72.07190909090909,108.88677139011531L72.57520454545454,107.76022800209952L72.67586363636363,108.31860544999712L73.0785,107.03767857899773L73.78311363636364,108.95115499621006L74.08509090909091,111.02919507909377L74.18575,112.2228091239507L74.38706818181818,110.09386171443846L74.58838636363636,112.49958658275503L74.89036363636363,113.44056143359167L75.99761363636364,108.89401674608774L76.29959090909091,109.56977069770244L76.40025,113.24034923804028L76.50090909090909,115.10458113985135L76.70222727272728,113.54007804208571L76.90354545454545,111.1229589879361L77.00420454545456,105.56052938804186L77.20552272727272,104.87612084888836L77.70881818181817,101.2446861485236L77.80947727272728,105.57568424830659L78.41343181818182,105.93011590811639L78.61474999999999,107.96608210718246L78.71540909090909,110.40076250307152L78.81606818181818,110.45259699655422L78.91672727272729,108.82920388121693L79.01738636363636,109.49970616743964L79.11804545454545,107.33017954521605L79.31936363636363,102.76107283352601L79.42002272727272,102.2431875574738L79.52068181818183,102.22295803002275L80.02397727272727,104.19941750329347L80.12463636363637,102.6889868519264L80.22529545454545,97.72746614868713L80.42661363636364,96.50440814792869L80.82925,94.12472252765195L81.03056818181818,92.58531745191203L81.23188636363636,94.48518588273967L81.63452272727272,96.96555599769525L81.73518181818183,95.01691106644877L81.8358409090909,95.28908667689899L82.23847727272727,90.77422293929824L82.64111363636364,86.25324540585568L82.74177272727273,92.29067647238266L83.04375,93.74285352721417L83.24506818181818,87.75950190969243L83.34572727272727,94.71795184375401L83.44638636363636,97.76953440678341L83.54704545454545,98.02849248380862L83.64770454545454,101.27702117859879L83.74836363636364,102.51500755437357L83.94968181818182,101.93177347674265L84.0503409090909,103.38588472713529L84.55363636363637,101.67129665526969L84.65429545454546,96.15056708078069L84.95627272727273,98.50351026559966L85.05693181818181,97.78560336640403L85.35890909090908,101.25006516449054L85.55519431818182,100.55865818363729L85.86220454545455,104.41070357070754L86.06352272727273,104.6352332061844L86.26484090909092,107.7901986318795L86.46615909090909,100.98486801733515L86.76813636363636,95.78700375287671L87.17077272727273,101.73932577804503L87.27143181818181,99.90388173661539L87.47275,100.4656711617051L87.77472727272728,98.96097030561539L88.17736363636362,99.92211804215067L88.68065909090909,104.73737307344344L89.38527272727273,109.45830216240081L89.48593181818181,111.34482745604436L89.68725,110.74687759990641L89.78790909090908,112.94650081024075L89.88856818181819,113.7215394838341L89.98922727272728,108.0244071944151L90.08988636363635,101.58676646187921L90.19054545454546,105.9696006731917L90.49252272727273,107.36410756254791L90.89515909090909,108.94378565229495L90.99581818181818,110.57669601139524L91.39845454545454,109.1012483527281L91.70043181818181,112.79521262921938L91.90175,112.67409154160362L92.10306818181817,115.0838382106274L92.40504545454544,113.35323170109753L92.50570454545455,118.58537543638096L92.60636363636364,119.56701575724333L92.70702272727273,122.39040335854959L92.80768181818182,124.68896328565802L93.009,123.59748956536028L93.10965909090909,126.19382926832596L93.21031818181818,127.25160216467232L93.41163636363636,121.17533102358406L93.51229545454545,119.5473978484906L93.61295454545454,114.73434732178913L93.71361363636363,115.92117921151866L93.91493181818183,114.53315051867803L94.11625000000001,109.80303516281838L94.2169090909091,103.14842102590706L94.92152272727272,105.91233452456488L95.22349999999999,108.36856783761917L95.32415909090909,104.81028860410812L95.42481818181818,107.14597112709386L95.62613636363636,109.72915204859552L95.92811363636363,114.04085915268021L96.12943181818183,117.20957351342757L96.33075,118.11368277093783L96.73338636363637,118.49715917420642L97.13602272727272,118.04050940872253L97.43799999999999,121.58365844826875L97.53865909090909,123.00467015928928L97.63931818181818,124.54953667717743L97.73997727272726,125.59573876736386L97.84063636363636,122.07083133349819L98.34393181818183,123.81077059581233L98.94788636363637,121.38738267315989L99.14920454545454,121.73682213979507L99.24986363636364,120.31087289361601L99.35052272727272,117.71338513987843L99.45118181818182,117.35466924721489L99.6525,117.70844696369149L99.95447727272727,116.44284690385793L100.05513636363636,113.5281626536033L100.35711363636364,113.79525732777749L100.45777272727273,114.01999782526504L100.55843181818182,117.57408670223708L100.75975,120.11961115274099L100.96106818181818,118.49556168568732L101.56502272727273,116.38076162656816L101.867,117.98570759848032L101.96765909090908,119.85255912985816L102.26963636363637,119.41290353578104L102.37029545454546,122.525480109032L102.47095454545455,120.34013186873833L102.67227272727273,120.2037185485196L102.77293181818182,121.31294643443779L102.87359090909091,124.21987400855384L103.37688636363636,124.83753101857359L103.77952272727273,120.63751113628679L103.88018181818181,117.92522658302185L104.0815,117.20114877013118L104.28281818181819,113.11161157391776L104.48413636363635,115.93520582661444L104.58479545454546,117.91715162248286L104.68545454545455,116.25912566243727L104.78611363636362,117.46947978337481L104.88677272727273,119.48573178079283L105.18875,117.44791361183489L105.3900681818182,115.96587739032017L105.59138636363636,117.72573417965594L105.79270454545454,121.77751621560544L105.99402272727274,124.64972034355664L106.09468181818181,125.6585258258839L106.1953409090909,126.85978439636827L106.59797727272728,123.00118408139238L106.79929545454546,123.3691546497953L106.89995454545455,120.2859280606499L107.10127272727273,121.83671281043206L107.40325,123.29108616219459L107.80588636363636,126.84108889953146L108.10786363636363,126.91502431601548L108.4098409090909,129.0270775425425L108.51050000000001,127.76383603160826L108.71181818181817,127.79243027989126L108.91313636363635,122.15096474993544L109.11445454545455,120.91044603034013L109.61775,121.15113498257007L109.81906818181818,121.09397728977366L109.91972727272727,123.39311272068807L110.02038636363636,118.55922378646918L110.12104545454545,118.38970177894996L110.42302272727274,120.20833153764619L111.02697727272728,118.42287586513021L111.22829545454545,121.0360549835156L111.32895454545455,123.83378282782219L111.42961363636364,125.4873822705988L111.63093181818182,126.84264407151335L112.03356818181818,125.91909065611549L112.23488636363636,127.1451368830997L112.33554545454545,128.99951229348696L112.73818181818183,131.46240575382538L112.8388409090909,128.9270098541427L112.9395,129.37119751050972L113.0401590909091,130.47105548501756L113.34213636363637,129.38803865196311L113.44279545454545,130.05990117835142L113.54345454545455,131.19648882523933L113.74477272727272,131.4606621295033L114.04674999999999,134.53788504602213L114.24806818181818,134.29582984025143L114.34872727272726,135.79104667998726L114.55004545454545,133.9609200545911L114.65070454545456,133.0295393019803L114.95268181818183,131.7258741002843L115.2546590909091,126.31684206863994L115.35531818181818,127.49529138253808L116.05993181818182,128.0591844049627L116.16059090909091,126.39602143050378L116.26124999999999,127.78948583569489L116.3619090909091,127.96804810493913L116.56322727272726,125.21888776126923L116.66388636363637,128.90464340534223L116.86520454545455,131.9636904444738L116.96586363636364,130.30118760418225L117.06652272727273,129.44244646022247L117.3685,129.63953508692228L117.4691590909091,132.13620395244678L117.56981818181818,134.18373938504226L117.67047727272727,134.21958765943543L117.87179545454545,123.81700719532431L118.47574999999999,124.67832861036084L118.5764090909091,125.64516265843662L118.87838636363637,126.18677965226024L119.583,127.3195681308378L119.88497727272727,127.05232257060231L120.58959090909092,130.88326780038562L120.69025,133.63494118353134L120.79090909090908,128.20709191431965L120.99222727272728,129.09482738180287L121.09288636363635,125.4781441270278L121.19354545454546,121.98455146098166L121.49552272727273,125.0550739145573L121.59618181818182,123.67276668535335L121.7975,126.68397883297335L121.99881818181818,124.86500336212445L122.09947727272727,127.32676991357683L122.50211363636363,127.64938204236346L122.60277272727274,128.34648840565913L123.00540909090908,126.51770673902982L123.10606818181819,118.97384692073803L123.20672727272728,122.5018845898262L123.30738636363635,122.97062924690871L123.60936363636363,118.88298892116262L123.71002272727273,116.96020152060994L123.81068181818182,117.3377813004778L124.11265909090909,119.0543142060101L124.2133181818182,120.82212743126956L125.0185909090909,120.46542566684136L125.42122727272728,122.72181622088475L125.62254545454546,125.03025664664445L125.81883068181818,124.11976426309437L125.82386363636363,126.03809919873359L126.1258409090909,129.1295782125082L126.2265,130.24968693949893L126.42781818181818,133.5848962499198L126.52847727272727,133.29733987154037L126.62913636363636,130.07000566805064L126.72979545454545,131.3659382219731L127.03177272727274,132.39147746828434L127.83704545454545,131.22984083070207L128.03836363636364,132.6601011370599L128.23968181818182,133.9199577543618L128.441,134.68618445291787L128.5416590909091,137.13578796875348L128.64231818181818,138.61687556812512L128.84363636363636,139.20674353889373L129.04495454545454,140.00749128507147L129.14561363636363,142.03838651149056L129.24627272727272,143.1113478146499L129.54825,144.27256835655254L129.74956818181818,144.98913377762133L130.4541818181818,142.52862031873332L130.5548409090909,144.30740264178618L130.85681818181817,143.63595117604575L131.05813636363638,142.29635634284807L131.66209090909092,144.2039651026537L131.76274999999998,143.40596851592483L131.9640681818182,145.15177191889984L132.16538636363637,137.75872751577393L132.56802272727273,139.2127211734983L132.9706590909091,141.7298488584624L133.17197727272728,140.8976637917147L133.37329545454546,140.28949728386078L133.67527272727273,138.00561442075994L133.77593181818182,140.96416407580784L133.8765909090909,142.0937034830125L133.97725,145.2027332633937L134.58120454545454,147.6605931757408L134.68186363636363,145.30448921137378L135.28581818181817,141.83857337552965L135.48713636363638,142.30573811193432L135.68845454545453,141.99480845518357L135.78911363636365,139.45043856225445L135.8897727272727,140.2698391737855L136.79570454545456,138.01138860279502L136.99702272727274,138.02820503511128L137.299,137.8751621135568L137.70163636363637,134.79626826243063L137.90295454545455,135.75646343181677L138.00361363636364,136.6323726162162L138.10427272727273,137.47153560449965L138.40625,136.59975992160298L138.5069090909091,135.15418391359051L138.7082272727273,134.90916531522055L138.80888636363636,135.20100406323954L138.90954545454545,133.6606370816321L139.21152272727272,132.85706231084683L139.31218181818184,134.02682278466057L140.31877272727272,136.00654049966712L140.52009090909092,136.90437552228818L140.62075000000002,139.636693645905L140.92272727272726,137.94217958230263L141.02338636363638,137.43791730364796L141.12404545454547,141.0829254366746L141.4260227272727,139.38067706889692L141.52668181818183,140.07798730949662L141.62734090909092,141.23747731637386L143.13722727272727,140.1651075275635L143.43920454545454,140.83481886181954L143.64052272727272,140.39720338027692L143.74118181818181,141.05934983853084L143.9425,136.26577080747046L144.04315909090909,137.1767939896832L144.34513636363639,133.31120368847962L144.64711363636363,133.09795011125087L144.74777272727272,137.141755241863L144.8484318181818,137.19469087074947L144.94909090909093,135.72482178087708L145.15040909090908,136.302739722147L145.35172727272726,135.89984375803303L145.55304545454547,134.25439279389153L145.75436363636362,131.63926415377784L145.8550227272727,130.69756007718246L145.9556818181818,126.15402678590166L146.157,127.09844635937313L146.3583181818182,124.56531329332785L146.45897727272725,127.27998187913924L146.55963636363634,127.90451704227581L146.66029545454546,127.44579889331217L146.76095454545455,131.44859686055344L147.76754545454546,134.20240383183992L148.17018181818182,134.16989681276115L148.57281818181818,134.38312940965616L148.67347727272727,135.5880161880136L148.77413636363636,138.0256589110837L148.97545454545454,139.67589303955745L149.2774318181818,139.7139926254231L149.57940909090908,138.44588235247767L149.78072727272726,138.22369404076642L149.98204545454547,137.92594687569667L150.08270454545456,140.19628537879066L150.2840227272727,141.42216795948255L150.6866590909091,136.73310716854596L150.7873181818182,137.440951953163L150.88797727272726,138.37134589570815L151.08929545454546,136.00941159893654L151.18995454545455,137.6226927218764L151.4919318181818,136.13348992799416L151.5925909090909,138.8529406983444L151.69325,140.78417972779044L151.7939090909091,139.42469487107653L151.8945681818182,142.0184028708124L151.99522727272728,141.57585138216933L152.49852272727273,143.49293296656796L152.59918181818182,146.13350644054955L152.8005,145.32246696262212L153.20313636363636,146.05528668871642L153.30379545454545,144.06700227406296L153.50511363636363,145.66065756584544L153.90775000000002,140.29352536825476L154.10906818181817,138.9557282890743L154.51170454545456,137.2119777728398L154.61236363636365,136.82375804282077L154.71302272727272,138.04271558119683L154.8136818181818,136.57799935017474L155.01500000000001,135.20108824809725L155.31697727272726,134.22000187956263L155.41763636363635,129.89524580595233L155.61895454545456,129.73416555790376L155.71961363636365,131.8067935743078L155.82027272727274,130.9695807212919L156.42422727272728,134.15066709547213L156.62554545454543,137.35782260814713L156.72620454545455,138.65635138757492L156.92752272727273,138.07284957375845L157.02818181818182,140.132942437987L157.3301590909091,139.0615149205338L157.43081818181818,140.4243410281542L157.93411363636363,139.30812894241507L158.03477272727272,136.32060438503336L158.13543181818181,140.0147661384466L158.4374090909091,140.54697861024442L158.63872727272727,142.39485858387914L158.73938636363636,143.34612852722194L158.84004545454545,144.6637822404584L158.94070454545454,143.36611494755473L159.04136363636366,144.70523649986075L159.14202272727275,144.31862412044012L159.444,143.50525045461532L159.7459772727273,145.14334739639065L160.24927272727274,145.7219901911517L160.34993181818183,146.58694648234942L160.4505909090909,145.23385164015832L160.55124999999998,146.94157737744527L160.95388636363637,146.7341751803366L161.35652272727273,147.9007578254872L161.5578409090909,146.1737929349164L161.6585,144.81508048526294L162.06113636363636,142.84521665179062L162.46377272727273,141.33047282500064L163.16838636363636,138.98551419267417L163.36970454545454,137.18794036375576L163.6716818181818,140.10701296747112L163.873,139.44884502177447L163.97365909090908,139.7677830327535L164.1749772727273,140.7627380982458L164.27563636363635,142.3504643863318L164.37629545454544,141.37408479153675L164.57761363636365,144.21089866515274L164.67827272727274,146.62323109918813L164.98024999999998,147.7265969490268L166.59079545454546,146.3690482766495L166.69145454545455,143.88005458434017L166.7921136363636,143.70111573942137L166.89277272727273,143.50878194325702L167.2954090909091,143.15185910680077L167.59738636363636,140.71862893630762L167.69804545454545,140.31218833390272L168.00002272727275,140.72470267345892L168.1006818181818,139.7974768561524L168.2013409090909,136.78839633141905L168.6039772727273,139.46191234801333L168.70463636363638,142.42345432578898L168.80529545454544,144.34573094572065L169.00661363636362,145.46564673257762L169.10727272727274,147.42397071042595L169.20793181818183,149.10824049254634L169.40925,149.2278163062169L169.61056818181817,148.4632571495875L170.21452272727274,149.8715093998353L170.41584090909092,149.63315821833905L170.91913636363637,148.1749093317265L171.01979545454546,149.45555160227224L171.92572727272727,148.89897429815124L172.02638636363636,144.8037439639443L173.13363636363638,146.3589250997934L173.53627272727272,145.31414367761312L173.63693181818184,143.9592625956286L173.93890909090908,144.171336625135L174.03956818181817,145.70762493680363L174.34154545454547,145.03695129378042L174.54286363636362,144.46072267347967L174.6435227272727,142.65145054693642L174.74418181818183,136.7834611056122L175.44879545454546,137.29071512746336L175.54945454545455,136.10848784282575L175.65011363636364,138.44715043820895L175.7507727272727,139.5076799143635L175.9520909090909,140.19228987041657L176.05275,138.11368311771943L176.25406818181818,138.22195896039017L176.35472727272725,138.22554071158152L176.45538636363636,135.35409733191779L176.55604545454545,136.422776710478L177.0593409090909,135.93747702142142L177.2606590909091,134.28044037630647L177.76395454545454,135.24137419478205L177.86461363636363,137.13092560451392L178.16659090909093,138.06885511802017L178.87120454545456,140.39530282299128L179.0725227272727,143.0835948020786L180.07911363636364,137.4305239757743L180.2804318181818,134.99449416035696L180.38109090909091,135.30517826508338L180.5824090909091,136.2066606623706L180.6830681818182,129.20750601309862L180.88438636363634,131.6691554052614L180.98504545454546,131.44801776839805L181.589,133.60348242696946L181.6896590909091,132.32064529351868L182.29361363636363,133.87649171302613L182.39427272727272,134.4241314054354L183.30020454545456,136.4384294617913L183.70284090909092,137.72329751669045L183.9041590909091,137.77283423493446L184.30679545454547,136.7692398271474L184.91075,138.54511586401478L185.1120681818182,141.3675821080763L185.21272727272728,140.18833475008236L185.41404545454546,141.28203469606072L185.71602272727273,141.42938668876207L185.91734090909088,137.74084793409753L186.018,138.22667447652694L186.31997727272727,139.73947347734023L186.42063636363636,142.39557070646302L186.62195454545454,143.49148008428273L186.72261363636363,144.90019868097733L186.82327272727272,143.9308898745692L186.9239318181818,144.9945120840117L187.22590909090908,146.1981721638931L187.32656818181817,143.96484381960803L187.42722727272727,146.17884812791755L187.82986363636365,148.11669668855583L188.0311818181818,144.92102736471844L188.1318409090909,145.01736903072936L188.23250000000002,139.49554325368723L188.4338181818182,141.7066998035118L188.63513636363635,144.67060753193476L188.83645454545456,140.28248066410373L189.1384318181818,141.78134382070223L189.4404090909091,143.45494255096722L189.5410681818182,145.59478164319106L189.64172727272728,146.4372587761301L189.94370454545455,148.7364661241488L190.14502272727273,149.07313061725014L190.24568181818182,150.82715096811938L190.5476590909091,152.34710278974416L190.64831818181818,151.73994810362453L190.95029545454545,153.39546441649546L191.25227272727273,153.11369549619127L191.35293181818182,155.34365939413448L191.4535909090909,155.52022651483728L191.55425,146.91042599232762L191.85622727272727,147.5431168924099L192.25886363636366,147.7996497623086L192.4601818181818,148.6015513259269L192.5608409090909,149.63615167335877L192.6615,147.86080332375155L192.96347727272726,144.33090085121253L193.06413636363635,147.0949664377408L193.26545454545456,148.3076029324114L193.6680909090909,147.7797757598978L193.76874999999998,147.87966504546335L193.8694090909091,150.2810318579319L194.17138636363637,149.46981764028854L194.57402272727273,151.23892489709473L194.67468181818182,152.02543259667902L194.87599999999998,148.86911161051984L194.9766590909091,150.27980019956277L195.07731818181819,150.73590903492607L195.17797727272728,153.09022918519693L195.37929545454546,151.59525096475667L195.68127272727273,150.06203696913482L195.78193181818182,151.31432241474522L195.8825909090909,149.86786776828208L195.98325,149.1644588083959L196.38588636363636,150.87414632709581L196.48654545454545,151.09873166174938L196.9898409090909,149.68556962253774L197.19115909090908,148.78919039889752L197.2918181818182,150.17658227336526L197.3924772727273,150.43572400033713L197.79511363636365,148.92850737126224L198.0970909090909,150.64223414708903L198.29840909090908,147.9175660594777L198.60038636363637,149.18874264419358L198.70104545454544,149.5271130302971L198.80170454545453,151.6151129288292L198.90236363636365,151.85946811052176L199.00302272727274,148.42249934207211L199.20434090909092,150.25722723832789L199.40565909090907,151.89674910440667L199.70763636363637,148.55774109841548L199.80829545454546,150.98516710420165L200.0096136363636,150.70976135569555L200.11027272727273,153.04322979278666L200.21093181818182,151.7641510071149L200.5129090909091,150.91804726835204L200.71422727272727,153.83299822202494L200.81488636363636,153.8712095836671L200.91554545454545,153.75697740229148L201.01620454545454,155.26554639353648L201.7208181818182,156.2673474691927L201.8214772727273,155.38941248076074L202.12345454545454,156.92638244730122L202.62675,157.0893884922236L203.02938636363638,156.42258303787835L203.23070454545453,155.6073468733219L203.63334090909092,157.03647895662806L203.734,152.02189811740922L203.93531818181816,152.87873031901464L204.33795454545455,153.88845703720813L204.4386136363636,153.48307823420686L204.53927272727273,153.73228165990454L204.7405909090909,155.1298978315894L204.84125,153.24321914928427L204.9419090909091,150.78645275727453L205.34454545454545,150.74602969910688L205.74718181818182,151.46840452469115L205.9485,152.70129738037835L206.0491590909091,153.24379014710465L206.2504772727273,151.36972216797432L206.75377272727272,153.1795943541259L206.85443181818184,153.23230138023402L207.15640909090908,154.3396492726909L207.45838636363638,153.2711957204252L207.8610227272727,151.76985379561305L208.06234090909092,154.06380183750457L208.46497727272728,151.360710643351L208.86761363636364,152.27583982052863L208.9682727272727,154.11243352114042L209.06893181818182,153.49692347252028L209.47156818181818,153.81514240049614L209.57222727272725,153.50313921374376L209.87420454545455,154.5325586005257L209.97486363636364,152.20108070940964L210.07552272727273,147.943817444716L210.3775,149.3570801204443L210.67947727272727,150.24572756231493L210.7801363636364,151.19804384416938L210.98145454545454,152.6496169596507L211.18277272727272,153.94821099175027L211.28343181818184,152.94236774868148L211.38409090909093,153.40599757893622L212.08870454545453,155.05917547759776L212.2900227272727,154.7518355034023L212.3906818181818,156.04358540482056L212.99463636363637,153.41629360373872L213.09529545454546,153.1402641193448L213.19595454545455,153.34161539846733L213.29661363636365,153.43287621978257L213.3972727272727,153.64016630191605L213.59859090909092,154.6949941702528L213.9005681818182,156.00807262285474L214.6051818181818,156.4936656151367L214.7058409090909,154.79523262660413L214.8065,152.54699796656075L215.7124318181818,153.11274244650247L216.01440909090908,152.25693490675062L216.11506818181817,153.60653009329113L216.41704545454547,151.66881046112198L216.51770454545456,151.94299590264L216.61836363636363,152.33056285222517L216.71902272727272,151.58817328495581L216.8196818181818,152.21068904268594L217.1216590909091,153.57273117026756L217.22231818181817,155.3187469262775L217.32297727272726,155.15753869517047L217.42363636363635,156.217073502869L217.8262727272727,155.73918840930614L217.9269318181818,153.3535363861042L218.02759090909092,150.43596045533545L218.3295681818182,151.50614232278951L218.53088636363634,151.60103920908153L218.73220454545455,151.27969095935663L218.93352272727273,153.05163301276383L219.03418181818182,152.44833650776906L219.13484090909088,153.30554723802783L219.3361590909091,152.00805906246657L219.43681818181818,153.07747524789474L219.94011363636363,153.95781683951964L220.2420909090909,154.87527961493183L220.44340909090909,156.66312941443175L220.74538636363636,157.5642833783705L221.04736363636363,158.67647735413888L221.14802272727272,158.09345192766799L221.3493409090909,158.26490695030444L221.5506590909091,156.76481643990533L222.15461363636365,158.2659348723783L222.25527272727274,156.22600784199878L222.4565909090909,153.8816292054226L222.6579090909091,154.25524406732052L223.16120454545455,155.5223419089202L223.56384090909089,153.96406307589763L223.6645,153.76623434187218L223.7651590909091,156.13041090162383L223.86581818181818,155.3287478242246L225.07372727272727,155.99569510736745L225.27504545454545,155.15665888706988L225.47636363636366,154.80437055887245L225.6776818181818,149.9347781786851L226.0803181818182,151.5596114057215L226.18097727272726,150.80436165320748L226.28163636363635,151.47788091569234L226.38229545454544,153.46467053289723L226.4779215909091,152.66753669171825L226.48295454545456,155.43882753879194L226.58361363636365,153.75201126788053L226.7849318181818,154.89734350146782L226.8855909090909,157.2657424249755L226.98624999999998,155.89294602552945L227.1875681818182,157.49689591730873L227.69086363636364,159.26898417795417L227.99284090909092,160.20679689644686L228.1941590909091,160.8239838468931L228.2948181818182,160.07705191066978L228.49613636363637,160.22223582296243L228.79811363636364,160.07912359422252L229.1000909090909,158.52276676238137L229.30140909090912,158.45573434968625L229.60338636363636,157.32376066015016L229.70404545454545,156.6491621154805L229.90536363636366,156.33144588435033L230.00602272727272,155.65830113273103L230.308,155.97549296753056L230.5093181818182,157.12141035003268L230.60997727272726,158.62989146778176L231.41525,158.8572131700874L231.51590909090908,161.05646962293034L231.71722727272729,160.19242260189097L232.22052272727274,160.78758020928947L232.7238181818182,161.05726666077942L232.82447727272728,160.10318460606013L232.92513636363637,158.55224402766981L233.12645454545452,156.71444204667614L233.22711363636364,152.26788628330627L233.42843181818182,147.89443066194042L233.62975,147.45876543879788L233.93172727272727,149.33511111714031L234.03238636363636,150.452800246939L234.43502272727272,152.88627570693205L234.9383181818182,154.0790703062421L235.13963636363636,153.0405852451376L235.7435909090909,153.31839326047302L235.84425,156.23579823759923L235.94490909090908,155.45488526233984L236.0455681818182,154.80681890144672L236.1462272727273,155.21307013669198L236.44820454545453,156.00109640506963L236.64952272727274,156.600808830128L236.95149999999998,156.99974996046154L237.05215909090907,158.10190842922862L237.35413636363637,156.91536200184328L237.55545454545455,156.73138113808136L237.75677272727273,157.3167321667971L237.85743181818182,154.95323701043708L237.9580909090909,153.45186866726283L238.36072727272727,152.47219317553993L238.76336363636364,153.02977400811548L238.86402272727275,153.4807520351095L238.96468181818182,154.07436585662975L239.36731818181818,154.39350704035223L239.4679772727273,151.48926761527477L239.66929545454545,150.30691855319662L239.76995454545454,152.53204886368405L239.97127272727275,154.18266630397582L240.07193181818184,155.52742194801942L240.1725909090909,155.6973463452856L240.37390909090908,156.425211460852L240.47456818181817,159.02020137738887L240.5752272727273,158.6257365760724L240.67588636363638,155.77542967092012L240.97786363636362,156.22170870411972L241.17918181818183,157.1513600298205L241.27984090909092,156.4275126993916L241.88379545454546,156.90636169707466L241.98445454545455,150.68843683616439L242.08511363636362,151.14670437555685L242.48775,149.0951448299791L242.68906818181816,146.70900809398708L242.89038636363637,145.6605072081249L243.29302272727273,145.41694549462645L243.99763636363636,146.32805096474593L244.29961363636363,145.98644603984792L244.50093181818184,146.84842381007988L244.70225,146.92020354219375L244.80290909090908,146.58978338566047L245.00422727272726,150.19960494545393L245.20554545454547,151.3208000223163L245.40686363636362,153.53449780718725L245.50752272727271,153.80984811132436L245.60818181818183,154.17499637336292L245.91015909090908,153.04087455296863L246.01081818181817,153.66283141343374L246.31279545454547,153.62419294872274L246.41345454545456,144.2692401396157L246.6147727272727,119.29796111466783L246.91675,120.7089648222996L247.31938636363637,120.40269050914043L247.9233409090909,123.47104370189568L248.024,124.07362841268622L248.32597727272727,128.40582107335544L248.4266363636364,124.57252775047085L248.62795454545454,127.11438600261155L248.82927272727272,131.2676585386385L248.9299318181818,135.3576036602097L249.13125,139.9772210901499L249.23190909090908,142.28883226318175L249.43322727272727,142.80874879535085L249.53388636363638,145.2322294046989L249.63454545454547,147.44856196616686L249.73520454545454,150.7417502857957L249.93652272727272,149.0201086082666L250.13784090909093,149.95418673330693L250.23850000000002,152.96943462640112L250.64113636363635,155.15515782576526L250.74179545454547,156.00373064207588L250.94311363636365,155.41029095969066L251.24509090909092,156.95299514157227L251.4464090909091,155.53716226703975L251.74838636363634,155.3775795657603L252.3523409090909,156.16871077781764L252.95629545454545,156.184550962209L253.35893181818182,157.20005132876173L253.6609090909091,157.08146862232124L254.16420454545457,157.6357214971293L254.36552272727272,158.05632728651346L254.66750000000002,158.0242058722542L255.27145454545456,157.50249641665448L255.37211363636365,157.0798914516214L255.5734318181818,154.23163547474337L255.8754090909091,150.8155830104057L256.17738636363634,152.0042468010399L256.27804545454546,152.83155529854486L256.3787045454546,153.42359994492938L257.28463636363637,153.96426189850908L257.3852954545454,153.93068039834526L257.48595454545455,155.26543461989718L257.58661363636367,156.10297975679458L257.7879318181818,156.9975704322212L257.98925,156.88750228348286L258.29122727272727,155.65030758271567L258.39188636363633,154.7284765437672L258.79452272727275,153.94967333103745L258.9958409090909,153.63986176050017L259.0965,155.3322312038807L259.1971590909091,155.09536392438753L259.2978181818182,152.3047606480139L260.1030909090909,151.40850653967752L261.00902272727274,150.96561150467406L261.2103409090909,152.26833896614852L261.5123181818182,153.64026081065305L262.01561363636364,156.27516805546122L262.3175909090909,157.07040692576075L262.41825,157.44976648775213L262.7202272727273,156.6374120173725L262.82088636363636,156.3678043410598L263.12286363636366,154.0992019672735L263.4248409090909,152.02617041232742L263.6261590909091,153.29715318646333L263.82747727272726,153.67446033341693L264.1294545454545,153.2474588331054L264.4314318181818,154.3689351067434L264.5320909090909,155.19835251042656L264.63275,157.43105049387418L264.83406818181817,157.3167455293426L265.6393409090909,153.33013784169358L265.84065909090907,153.94272425987273L266.04197727272725,152.1982294158421L266.24329545454543,153.072628500659L266.74155795454544,153.69140996635508" style="fill: none;" fill="none"></path></g><g><path stroke="rgb(204, 51, 17)" stroke-width="2px" d="M45.29155795454546,8.84027014838327L65.42337613636364,19.17869313557944L85.55519431818182,24.27012844171717L105.6870125,28.529658287338968L125.81883068181818,32.50911558824427L145.95064886363636,35.67539644031122L166.08246704545454,36.647791863969104L186.21428522727274,37.01226129509057L206.34610340909092,37.06177371935635L226.4779215909091,36.41622976537734L246.60973977272727,35.97422544075698L266.74155795454544,35.2105491814552" style="fill: none;" fill="none"></path></g></g></g></g><g opacity="0.2"><g><g><g><path stroke="rgb(0, 119, 187)" stroke-width="2px" d="M25.66806818181818,40.87111642625598L25.768727272727272,37.78133879767525L26.171363636363637,20.846226586235908L26.27202272727273,-34.02667617797847L26.574,47.59822485182021L26.67465909090909,65.2764432695177L26.976636363636366,24.209780799018016L27.077295454545453,-30.037333594428134L27.177954545454543,50.218661202324775L27.58059090909091,20.181332270304367L28.486522727272728,49.984002219306106L28.7885,-14.119104173448342L29.191136363636364,94.6879954867893L29.392454545454545,83.11110877990724L29.59377272727273,52.01777945624458L29.69443181818182,45.48622406853571L29.89575,-16.62221103244356L30.097068181818184,62.30399513244629L30.19772727272727,62.42133627997505L30.499704545454545,-42.59200880262584L30.600363636363635,35.31733788384333L30.70102272727273,45.79910659790041L30.80168181818182,82.95466168721518L30.902340909090906,63.790219200982L31.506295454545455,24.366227891710082L31.707613636363636,87.804439968533L31.808272727272726,-35.39555909898545L31.90893181818182,91.79378255208334L32.00959090909091,-4.732441796196827L32.31156818181818,37.194668028089744L32.41222727272727,11.263999515109614L32.51288636363636,22.44978014628093L32.61354545454545,55.772439744737426L33.11684090909091,0.46933661566842666L33.62013636363636,117.09866269429526L33.92211363636363,77.67467138502334L34.02277272727273,66.2151141696506L34.62672727272727,88.00000466240779L35.432,93.08444192674426L35.73397727272727,39.22844526502822L35.83463636363636,60.5048885345459L36.53925,46.229330274793845L36.841227272727274,111.66222529941138L37.042545454545454,52.36977958679199L37.747159090909086,24.327110290527365L37.847818181818184,82.28977902730307L38.149795454545455,57.92355812920466L38.250454545454545,72.94222259521484L38.955068181818184,58.58844078911677L39.15638636363636,77.28355365329318L39.357704545454546,36.725338406033L39.45836363636364,97.15199640062121L39.559022727272726,-16.309340159098294L40.26363636363636,92.96711243523494L40.76693181818182,88.43021668328181L40.96825,69.89155091179744L41.06890909090909,112.91377872890898L41.169568181818185,25.30488713582358L41.471545454545456,85.14488601684572L41.77352272727273,72.86399904886882L41.97484090909091,120.93155818515356L42.0755,93.5146656036377L42.37747727272727,102.51022190517851L42.98143181818182,33.28356064690485L43.08209090909091,52.80000326368545L43.283409090909096,76.89244757758247L43.58538636363637,51.43110868665908L43.78670454545454,45.095106336805564L43.88736363636364,135.67644606696234L44.08868181818181,117.91999827490913L44.29,112.992002275255L44.3906590909091,129.06666713290747L45.09527272727273,61.44355943467883L45.79988636363637,75.13244692484538L45.90054545454545,113.3048848046197L46.00120454545455,114.71288532680937L46.40384090909091,88.3520047929552L47.41043181818182,32.93156051635744L47.51109090909091,52.330661985609275L47.71240909090909,113.3048848046197L47.91372727272728,43.60889392428928L48.11504545454545,124.17777707841663L48.41702272727272,83.0328852335612L48.51768181818182,101.41511556837295L48.61834090909091,121.67466439141167L48.92031818181818,71.14311599731445L49.92690909090909,126.68088976542155L50.12822727272727,89.40800518459746L50.73218181818182,46.542224460177955L51.03415909090909,103.4097752041287L51.13481818181818,118.4284454981486L51.23547727272727,128.24533155229358L51.33613636363636,92.26311217414009L51.537454545454544,95.90044297112361L51.940090909090905,115.92533281114368L52.14140909090909,41.144893010457366L52.342727272727274,77.47910669114856L52.54404545454546,100.20266808403865L53.047340909090906,81.23377863566081L53.24865909090909,11.616011301676439L53.65129545454545,118.23288663228354L54.35590909090909,91.98933558993872L54.45656818181818,117.56799814436172L54.959863636363636,70.08711560567221L55.060522727272726,30.46755960252551L55.16118181818182,77.24444770812988L55.362500000000004,132.31288602617053L55.46315909090909,57.4933344523112L55.563818181818185,128.9102200402154L55.966454545454546,86.63111008538142L56.067113636363636,62.734218809339744L56.26843181818182,64.18133693271213L56.57040909090909,112.01422542995878L56.973045454545456,123.98222404056128L57.07370454545455,129.69244384765625L57.17436363636363,102.7448925442166L57.27502272727273,105.48267004224991L57.476340909090915,90.15111139085559L57.778318181818186,58.432005352444136L57.87897727272727,31.054218716091597L57.97963636363636,33.087995953030074L58.28161363636363,111.23200162251791L58.583590909090915,98.99022059970434L59.18754545454546,116.70755661858455L59.38886363636364,114.90845002068416L59.69084090909091,95.07911321851944L59.7915,98.01244375440811L59.99281818181819,8.487116071912986L60.09347727272727,109.39377742343481L60.59677272727273,120.5013345082601L60.69743181818182,91.95021798875598L61.10006818181818,54.05155669318306L61.30138636363637,106.73422347174751L61.60336363636364,109.04177729288739L62.006,147.05777973598907L62.40863636363637,100.55466821458606L62.60995454545454,73.48977576361763L63.01259090909091,83.26755587259929L63.11325,113.10933176676434L63.21390909090909,131.45244450039337L63.41522727272727,92.77155939737958L63.51588636363637,117.64622169070776L63.91852272727272,118.81955740186905L64.01918181818182,69.10933876037598L64.42181818181818,93.67111269632977L64.52247727272727,65.19821972317168L64.62313636363636,126.60266621907553L65.52906818181819,107.59467082553442L66.03236363636363,119.67999892764624L66.73697727272727,77.36177719963923L66.83763636363636,125.54666582743327L67.34093181818182,102.94044558207196L67.4415909090909,89.76000531514487L67.64290909090909,86.78755717807348L67.84422727272727,91.51999431186255L68.24686363636363,135.51999897427032L69.15279545454545,109.47200096978084L69.25345454545455,89.83821720547148L69.35411363636365,41.34044604831272L69.45477272727273,102.27555126614043L69.75675,114.00888506571452L70.36070454545454,84.1280032263862L71.06531818181818,86.94400427076553L71.16597727272728,92.96711243523494L71.26663636363637,142.0906661351522L71.36729545454546,94.0231128268772L71.56861363636364,143.73333146837024L71.66927272727273,110.64533085293242L71.97125,137.045334815979L72.07190909090909,119.01511043972441L72.57520454545454,97.62133767869739L72.67586363636363,113.34400240580243L73.0785,95.50933689541289L73.78311363636364,126.17244254218208L74.08509090909091,129.73155562082928L74.18575,122.96533542209204L74.38706818181818,90.93333519829646L74.58838636363636,134.15111022525363L74.89036363636363,121.90933503044975L75.99761363636364,67.9751148223877L76.29959090909091,115.65155622694229L76.40025,146.2755559285482L76.50090909090909,131.8826681772868L76.70222727272728,99.45955022176108L76.90354545454545,89.36888758341473L77.00420454545456,55.49866316053603L77.20552272727272,98.71644401550293L77.70881818181817,68.56177393595378L77.80947727272728,144.5546670489841L78.41343181818182,109.1200008392334L78.61474999999999,126.28977786170113L78.71540909090909,132.31288602617053L78.81606818181818,110.91910743713379L78.91672727272729,94.21866586473254L79.01738636363636,115.53422673543295L79.11804545454545,87.804439968533L79.31936363636363,61.63911247253418L79.42002272727272,97.58222007751465L79.52068181818183,102.04089228312176L80.02397727272727,121.98755274878609L80.12463636363637,89.09511099921333L80.22529545454545,53.07377984788684L80.42661363636364,85.49688614739314L80.82925,72.70755195617676L81.03056818181818,78.7306717766656L81.23188636363636,111.58400175306534L81.63452272727272,119.28888702392578L81.73518181818183,77.47910669114856L81.8358409090909,97.73866717020672L82.23847727272727,50.14044931199817L82.64111363636364,45.564447614881736L82.74177272727273,146.6275560590956L83.04375,106.81244701809355L83.24506818181818,33.909337361653655L83.34572727272727,157.34400124020047L83.44638636363636,125.23377747005888L83.54704545454545,100.35911517673071L83.64770454545454,130.51377942827014L83.74836363636364,113.65688493516711L83.94968181818182,96.68266677856445L84.0503409090909,116.47288597954646L84.55363636363637,86.2400040096707L84.65429545454546,46.46400091383193L84.95627272727273,119.67999892764624L85.05693181818181,91.32444127400717L85.35890909090908,132.43022134568957L85.55519431818182,94.33599535624188L85.86220454545455,139.07911205291748L86.06352272727273,106.65599992540149L86.26484090909092,136.1848874621921L86.46615909090909,39.7368924882677L86.76813636363636,49.00622537400989L87.17077272727273,155.310224003262L87.27143181818181,83.38488536410864L87.47275,105.5217759874132L87.77472727272728,85.41866260104712L88.17736363636362,108.57244767083064L88.68065909090909,148.0746683544583L89.38527272727273,151.94666396247015L89.48593181818181,128.3235550986396L89.68725,105.36532889472115L89.78790909090908,132.74310970306396L89.88856818181819,120.69688754611548L89.98922727272728,56.750216590033645L90.08988636363635,43.64799986945259L90.19054545454546,145.4151085747613L90.49252272727273,119.91466956668432L90.89515909090909,123.16088845994739L90.99581818181818,125.27288924323189L91.39845454545454,95.82221942477759L91.70043181818181,146.04089111751983L91.90175,111.58400175306534L92.10306818181817,136.77155823177765L92.40504545454544,97.77777311537002L92.50570454545455,165.67466905381946L92.60636363636364,128.40177864498565L92.70702272727273,147.8008917702569L92.80768181818182,145.376002629598L93.009,113.77422608269588L93.10965909090909,149.56088659498428L93.21031818181818,136.77155823177765L93.41163636363636,66.488890753852L93.51229545454545,104.8959992726644L93.61295454545454,71.41689258151584L93.71361363636363,126.60266621907553L93.91493181818183,102.04089228312176L94.11625000000001,67.23199696011014L94.2169090909091,43.25689379374187L94.92152272727272,130.78755601247153L95.22349999999999,130.4746676550971L95.32415909090909,72.7857755025228L95.42481818181818,128.16711383395727L95.62613636363636,132.97778034210205L95.92811363636363,152.84622308943008L96.12943181818183,145.72800276014542L96.33075,126.25066608852812L96.73338636363637,121.9484468036228L97.13602272727272,113.9306615193685L97.43799999999999,153.4719998041789L97.53865909090909,135.79377555847168L97.63931818181818,138.45333533816867L97.73997727272726,135.01155757904053L97.84063636363636,90.34666442871095L98.34393181818183,139.4702239566379L98.94788636363637,99.57689136928984L99.14920454545454,124.88177733951147L99.24986363636364,107.47732967800566L99.35052272727272,94.33599535624188L99.45118181818182,114.12622621324329L99.6525,120.89244641198054L99.95447727272727,105.05244636535645L100.05513636363636,87.29600440131296L100.35711363636364,116.19910939534506L100.45777272727273,116.042662302653L100.55843181818182,149.56088659498428L100.75975,143.0293312072754L100.96106818181818,103.87911648220488L101.56502272727273,97.347561094496L101.867,132.43022134568957L101.96765909090908,136.6542229122586L102.26963636363637,115.45600318908691L102.37029545454546,150.53866926829022L102.47095454545455,100.6719977060954L102.67227272727273,118.97599866655139L102.77293181818182,131.2959974077013L102.87359090909091,150.38222217559814L103.37688636363636,130.3964441087511L103.77952272727273,82.83733219570586L103.88018181818181,93.5146656036377L104.0815,110.68444845411514L104.28281818181819,76.30577680799698L104.48413636363635,141.34755410088434L104.58479545454546,135.75466378529867L104.68545454545455,101.33689202202693L104.78611363636362,128.36266687181262L104.88677272727273,137.6319997575548L105.18875,99.10755009121367L105.3900681818182,102.62755139668783L105.59138636363636,133.56444528367786L105.79270454545454,158.24355453915067L105.99402272727274,150.4995574951172L106.09468181818181,134.73777516682944L106.1953409090909,137.67111153072784L106.59797727272728,88.27378124660918L106.79929545454546,126.68088976542155L106.89995454545455,92.53688875834149L107.10127272727273,135.79377555847168L107.40325,136.3804463280572L107.80588636363636,158.79111353556317L108.10786363636363,127.58044306437175L108.4098409090909,148.03555658128528L108.51050000000001,116.39466243320044L108.71181818181817,128.04977851443823L108.91313636363635,71.37777498033313L109.11445454545455,109.74577755398222L109.61775,123.31733555263945L109.81906818181818,120.57955805460612L109.91972727272727,144.08533159891766L110.02038636363636,75.05422337849936L110.12104545454545,116.86400371127661L110.42302272727274,136.57599936591254L111.02697727272728,102.35377481248645L111.22829545454545,144.5546670489841L111.32895454545455,149.01333342658148L111.42961363636364,140.3697772555881L111.63093181818182,139.04000027974448L112.03356818181818,117.60710991753474L112.23488636363636,138.17955292595758L112.33554545454545,145.68889098697238L112.73818181818183,153.62844689687094L112.8388409090909,106.10844675699872L112.9395,133.3688864178128L113.0401590909091,140.3697772555881L113.34213636363637,119.64088715447322L113.44279545454545,136.1066639158461L113.54345454545455,141.42577764723038L113.74477272727272,133.83822186787924L114.04674999999999,162.2328912946913L114.24806818181818,132.11733298831516L114.34872727272726,149.24799823760986L114.55004545454545,117.48978042602539L114.65070454545456,124.64711252848308L114.95268181818183,119.99288728502063L115.2546590909091,77.6355537838406L115.35531818181818,138.10133520762128L116.05993181818182,133.1342216067844L116.16059090909091,111.42755466037329L116.26124999999999,140.3306654824151L116.3619090909091,129.5751085281372L116.56322727272726,100.47644466824003L116.66388636363637,162.07644420199924L116.86520454545455,159.495113796658L116.96586363636364,115.33866204155818L117.06652272727273,121.71377616458471L117.3685,131.41333272722034L117.4691590909091,154.60622374216717L117.56981818181818,152.6115582784017L117.67047727272727,134.54222212897406L117.87179545454545,30.19378301832412L118.47574999999999,132.43022134568957L118.5764090909091,134.3466690911187L118.87838636363637,131.0613325966729L119.583,137.51466443803577L119.88497727272727,124.64711252848308L120.58959090909092,165.36177486843533L120.69025,158.4000016318427L120.79090909090908,79.3564484914144L120.99222727272728,137.08444658915204L121.09288636363635,92.9279948340522L121.19354545454546,90.54221746656631L121.49552272727273,152.689775996738L121.59618181818182,111.23200162251791L121.7975,153.78488816155328L121.99881818181818,108.49422412448462L122.09947727272727,149.48266887664795L122.50211363636363,130.55289120144317L122.60277272727274,134.62044567532013L123.00540909090908,110.05867173936633L123.10606818181819,51.07910855611166L123.20672727272728,154.25422361161975L123.30738636363635,127.18933116065132L123.60936363636363,82.09422598944772L123.71002272727273,99.65511491563586L123.81068181818182,120.73599931928848L124.11265909090909,134.50311035580108L124.2133181818182,136.7324464586046L125.0185909090909,117.2551097869873L125.42122727272728,143.0293312072754L125.62254545454546,145.80622047848175L125.81883068181818,115.92533281114368L125.82386363636363,143.3031136194865L126.1258409090909,156.95288933648004L126.2265,140.3306654824151L126.42781818181818,163.60178004370795L126.52847727272727,130.7093324661255L126.62913636363636,101.02399783664282L126.72979545454545,143.0293312072754L127.03177272727274,141.62133068508575L127.83704545454545,120.7751110924615L128.03836363636364,145.53244389428033L128.23968181818182,145.25866731007895L128.441,141.58222473992242L128.5416590909091,159.18221961127387L128.64231818181818,151.94666396247015L128.84363636363636,144.5155552758111L129.04495454545454,147.2142210006714L129.14561363636363,160.31644354926215L129.24627272727272,152.76799954308404L129.54825,154.72355323367648L129.74956818181818,151.43822256724042L130.4541818181818,120.38399918874106L130.5548409090909,160.31644354926215L130.85681818181817,137.59288798438178L131.05813636363638,130.24000284406875L131.66209090909092,161.37244394090442L131.76274999999998,136.22399923536514L131.9640681818182,160.86400254567465L132.16538636363637,71.22132788764107L132.56802272727273,152.29866409301758L132.9706590909091,164.3839980231391L133.17197727272728,133.40799819098578L133.37329545454546,134.81599871317547L133.67527272727273,117.45066865285239L133.77593181818182,167.5911109712389L133.8765909090909,152.2595581478543L133.97725,173.18400128682453L134.58120454545454,169.78133238686456L134.68186363636363,124.0995535320706L135.28581818181817,110.64533085293242L135.48713636363638,146.51022073957657L135.68845454545453,139.19644154442682L135.78911363636365,116.55110952589249L135.8897727272727,147.64444467756485L136.79570454545456,117.68533346388077L136.99702272727274,138.17955292595758L137.299,136.49777581956653L137.70163636363637,107.08622360229492L137.90295454545455,144.39821995629205L138.00361363636364,144.5155552758111L138.10427272727273,145.0240024990506L138.40625,128.75377877553305L138.5069090909091,122.14399984147815L138.7082272727273,132.70399792989096L138.80888636363636,137.82755279541016L138.90954545454545,119.79733424716528L139.21152272727272,125.6248893737793L139.31218181818184,144.5546670489841L140.31877272727272,153.8239999347263L140.52009090909092,144.98489072587756L140.62075000000002,164.22755675845676L140.92272727272726,122.6915530098809L141.02338636363638,132.89955679575604L141.12404545454547,173.88799863391452L141.4260227272727,124.06044175889758L141.52668181818183,146.35377947489422L141.62734090909092,151.67288737826877L143.13722727272727,130.51377942827014L143.43920454545454,146.86222087012396L143.64052272727272,136.4586640463935L143.74118181818181,147.01866796281604L143.9425,93.123559527927L144.04315909090909,145.376002629598L144.34513636363639,98.52089097764758L144.64711363636363,131.17866791619196L144.74777272727272,173.53600141737198L144.8484318181818,137.67111153072784L144.94909090909093,122.49599997202556L145.15040909090908,141.50400119357639L145.35172727272726,132.27378008100723L145.55304545454547,119.44533411661784L145.75436363636362,108.10310639275447L145.8550227272727,122.22222338782417L145.9556818181818,85.26222716437448L146.157,135.59822252061633L146.3583181818182,101.76711569892036L146.45897727272725,151.7119991514418L146.55963636363634,133.52533351050482L146.66029545454546,123.31733555263945L146.76095454545455,167.4737785657247L147.76754545454546,158.98666657341852L148.17018181818182,133.87733364105225L148.57281818181818,136.30222278171115L148.67347727272727,146.43199719323053L148.77413636363636,159.96444341871475L148.97545454545454,154.52800019582114L149.2774318181818,140.0568888982137L149.57940909090908,127.03288989596899L149.78072727272726,136.22399923536514L149.98204545454547,135.2462223900689L150.08270454545456,160.62933190663657L150.2840227272727,152.45511118570965L150.6866590909091,94.53156005011665L150.7873181818182,143.81155501471625L150.88797727272726,146.74489137861465L151.08929545454546,114.7520029279921L151.18995454545455,152.14222282833526L151.4919318181818,122.73066478305395L151.5925909090909,163.32799763149686L151.69325,158.16533099280463L151.7939090909091,127.18933116065132L151.8945681818182,165.36177486843533L151.99522727272728,137.59288798438178L152.49852272727273,160.7466672261556L152.59918181818182,169.8986677063836L152.8005,138.02311166127524L153.20313636363636,152.650664223565L153.30379545454545,126.17244254218208L153.50511363636363,160.00355519188776L153.90775000000002,91.98933558993872L154.10906818181817,126.91555457644995L154.51170454545456,121.51822312672934L154.61236363636365,133.32978047264947L154.71302272727272,149.01333342658148L154.8136818181818,123.39555327097575L155.01500000000001,122.80888832939995L155.31697727272726,125.39022456275093L155.41763636363635,90.97244114345976L155.61895454545456,128.2844433254666L155.71961363636365,150.46044572194418L155.82027272727274,123.43466504414877L156.42422727272728,162.78044446309408L156.62554545454543,166.22222222222223L156.72620454545455,150.34311040242514L156.92752272727273,132.82133324941L157.02818181818182,158.67377821604413L157.3301590909091,129.4186672634549L157.43081818181818,152.689775996738L157.93411363636363,129.26222017076282L158.03477272727272,109.4328833685981L158.13543181818181,173.2622219191657L158.4374090909091,145.336890856425L158.63872727272727,159.02577834659152L158.73938636363636,151.90755801730685L158.84004545454545,156.5226656595866L158.94070454545454,131.68710931142172L159.04136363636366,156.75733047061496L159.14202272727275,140.8391127056546L159.444,136.1848874621921L159.7459772727273,159.8862198723687L160.24927272727274,150.92977534400092L160.34993181818183,154.3715531031291L160.4505909090909,133.05599806043838L160.55124999999998,162.31110901302762L160.95388636363637,144.86755540635852L161.35652272727273,158.4000016318427L161.5578409090909,130.63110891977948L161.6585,132.58666843838165L162.06113636363636,125.11644215053984L162.46377272727273,127.69777838389079L163.16838636363636,117.88088650173613L163.36970454545454,121.00977590348987L163.6716818181818,166.37866640090942L163.873,133.52533351050482L163.97365909090908,142.63822513156467L164.1749772727273,149.71733368767633L164.27563636363635,156.64000097910565L164.37629545454544,132.58666843838165L164.57761363636365,169.7422235276964L164.67827272727274,168.33422300550674L164.98024999999998,157.6568895975749L166.59079545454546,134.15111022525363L166.69145454545455,121.47911135355632L166.7921136363636,142.0906661351522L166.89277272727273,141.77777777777777L167.2954090909091,139.93955357869467L167.59738636363636,118.81955740186905L167.69804545454545,136.6542229122586L168.00002272727275,144.43733172946506L168.1006818181818,131.45244450039337L168.2013409090909,109.70667160881892L168.6039772727273,163.52355649736194L168.70463636363638,169.07733212576971L168.80529545454544,161.6462205251058L169.00661363636362,155.54488881429037L169.10727272727274,165.04888651106094L169.20793181818183,164.2666685316298L169.40925,150.30399862925213L169.61056818181817,141.58222473992242L170.21452272727274,162.5457796520657L170.41584090909092,147.48799758487277L170.91913636363637,135.05066935221356L171.01979545454546,160.981332037184L171.92572727272727,143.88977856106231L172.02638636363636,107.94667095608183L173.13363636363638,160.35555532243518L173.53627272727272,135.91111087799072L173.63693181818184,131.76533285776776L173.93890909090908,146.0800028906928L174.03956818181817,159.5342197418213L174.34154545454547,139.00088850657147L174.54286363636362,139.27466509077286L174.6435227272727,126.36800140804716L174.74418181818183,83.97155613369414L175.44879545454546,141.85600132412384L175.54945454545455,125.46844228108725L175.65011363636364,159.495113796658L175.7507727272727,149.05244519975452L175.9520909090909,146.35377947489422L176.05275,119.40622234344482L176.25406818181818,139.19644154442682L176.35472727272725,138.25777647230362L176.45538636363636,109.51110691494414L176.55604545454545,146.04089111751983L177.0593409090909,131.5697798199124L177.2606590909091,119.36711057027182L177.76395454545454,143.88977856106231L177.86461363636363,154.1368882921007L178.16659090909093,146.51022073957657L178.87120454545456,161.33333216773138L179.0725227272727,167.27822261386447L180.07911363636364,86.5528865390354L180.2804318181818,113.07022582160103L180.38109090909091,138.10133520762128L180.5824090909091,144.32000223795575L180.6830681818182,66.2151141696506L180.88438636363634,153.8239999347263L180.98504545454546,129.45777903662787L181.589,153.00266435411243L181.6896590909091,120.7751110924615L182.29361363636363,147.8791094885932L182.39427272727272,139.35288863711887L183.30020454545456,154.56711196899414L183.70284090909092,149.2871100107829L183.9041590909091,138.21866469913058L184.30679545454547,127.73689015706381L184.91075,154.52800019582114L185.1120681818182,166.76977830462985L185.21272727272728,129.5751085281372L185.41404545454546,151.12533420986603L185.71602272727273,142.75555462307403L185.91734090909088,104.54399914211699L186.018,142.59911335839166L186.31997727272727,153.35466448465985L186.42063636363636,166.30044576856827L186.62195454545454,153.35466448465985L186.72261363636363,157.57866605122885L186.82327272727272,135.2071106168959L186.9239318181818,154.56711196899414L187.22590909090908,157.03111288282608L187.32656818181817,123.86488872104223L187.42722727272727,166.10488690270319L187.82986363636365,165.5573337343004L188.0311818181818,116.16000345018176L188.1318409090909,145.88444402482776L188.23250000000002,89.79911126030818L188.4338181818182,161.6071087519328L188.63513636363635,171.34577708774142L188.83645454545456,100.78933885362414L189.1384318181818,155.271112230089L189.4404090909091,158.51733112335205L189.5410681818182,164.85333347320557L189.64172727272728,154.01955297258166L189.94370454545455,169.42933225631714L190.14502272727273,152.10311105516223L190.24568181818182,166.61333412594266L190.5476590909091,166.02666918436688L190.64831818181818,146.2755559285482L190.95029545454545,168.2951112323337L191.25227272727273,150.57777521345352L191.35293181818182,175.41333447562323L191.4535909090909,157.10933060116238L191.55425,69.42222128974068L191.85622727272727,153.2373349931505L192.25886363636366,150.1084455913968L192.4601818181818,155.81866539849176L192.5608409090909,158.9475548002455L192.6615,131.8826681772868L192.96347727272726,112.56177859836157L193.06413636363635,171.9715567164951L193.26545454545456,159.2213313844469L193.6680909090909,143.0293312072754L193.76874999999998,148.77866861555313L193.8694090909091,171.89333317014908L194.17138636363637,142.16888968149823L194.57402272727273,167.16089020835028L194.67468181818182,159.10400189293756L194.87599999999998,120.46222273508708L194.9766590909091,162.97599750094943L195.07731818181819,154.84088855319553L195.17797727272728,174.27911053763495L195.37929545454546,138.14044698079428L195.68127272727273,136.26311100853815L195.78193181818182,162.5848914252387L195.8825909090909,136.84977595011395L195.98325,142.83377816942004L196.38588636363636,166.26133399539523L196.48654545454545,153.11999967363147L196.9898409090909,136.967111269633L197.19115909090908,140.72177738613556L197.2918181818182,162.66310914357504L197.3924772727273,152.76799954308404L197.79511363636365,135.36355770958795L198.0970909090909,166.06577512953018L198.29840909090908,123.39555327097575L198.60038636363637,160.62933190663657L198.70104545454544,152.5724465052287L198.80170454545453,170.40711201561822L198.90236363636365,154.05866474575467L199.00302272727274,117.48978042602539L199.20434090909092,166.76977830462985L199.40565909090907,166.65244589911566L199.70763636363637,118.50666904449463L199.80829545454546,172.83200115627713L200.0096136363636,148.23110961914062L200.11027272727273,174.0444457266066L200.21093181818182,140.25244193606906L200.5129090909091,143.3031136194865L200.71422727272727,180.06755680508087L200.81488636363636,154.21511183844672L200.91554545454545,152.72888776991104L201.01620454545454,168.84266731474136L201.7208181818182,165.28355715009903L201.8214772727273,147.48799758487277L202.12345454545454,170.75911214616565L202.62675,158.55644289652508L203.02938636363638,150.42133394877118L203.23070454545453,148.27022139231366L203.63334090909092,169.8986677063836L203.734,106.89067056443957L203.93531818181816,160.59022013346356L204.33795454545455,162.97599750094943L204.4386136363636,149.83466900719537L204.53927272727273,155.9751124911838L204.7405909090909,167.70844337675308L204.84125,136.26311100853815L204.9419090909091,128.675555229187L205.34454545454545,150.38222217559814L205.74718181818182,157.96977795494928L205.9485,163.79733308156332L206.0491590909091,158.12622504764133L206.2504772727273,134.50311035580108L206.75377272727272,169.46844402949017L206.85443181818184,153.70666461520725L207.15640909090908,164.3057803048028L207.45838636363638,143.6551137500339L207.8610227272727,138.25777647230362L208.06234090909092,174.70933421452838L208.46497727272728,127.03288989596899L208.86761363636364,160.51200241512723L208.9682727272727,170.6417768266466L209.06893181818182,147.95733303493927L209.47156818181818,156.67911275227866L209.57222727272725,150.69511053297256L209.87420454545455,163.79733308156332L209.97486363636364,131.217779689365L210.07552272727273,109.6284480624729L210.3775,162.07644420199924L210.67947727272727,158.24355453915067L210.7801363636364,159.76889038085938L210.98145454545454,165.71377499898276L211.18277272727272,165.63555728064642L211.28343181818184,143.88977856106231L211.38409090909093,157.57866605122885L212.08870454545453,169.93777656555176L212.2900227272727,151.9857757356432L212.3906818181818,167.6693345175849L212.99463636363637,129.7706673940023L213.09529545454546,150.65599875979953L213.19595454545455,155.15377691056995L213.29661363636365,154.25422361161975L213.3972727272727,155.50577704111737L213.59859090909092,164.18844498528375L213.9005681818182,167.82577869627212L214.6051818181818,160.86400254567465L214.7058409090909,139.50933572981094L214.8065,132.31288602617053L215.7124318181818,158.20444276597766L216.01440909090908,144.5546670489841L216.11506818181817,165.75288677215576L216.41704545454547,134.22933377159967L216.51770454545456,154.4106648763021L216.61836363636363,155.81866539849176L216.71902272727272,144.90666717953155L216.8196818181818,157.81333086225723L217.1216590909091,165.8311103185018L217.22231818181817,171.032888730367L217.32297727272726,153.70666461520725L217.42363636363635,165.75288677215576L217.8262727272727,151.43822256724042L217.9269318181818,131.8826681772868L218.02759090909092,124.17777707841663L218.3295681818182,161.13777912987604L218.53088636363634,152.45511118570965L218.73220454545455,148.3875567118327L218.93352272727273,168.99911149342856L219.03418181818182,147.01866796281604L219.13484090909088,161.020443810357L219.3361590909091,140.3306654824151L219.43681818181818,162.70222091674805L219.94011363636363,161.8808911641439L220.2420909090909,163.1324445936415L220.44340909090909,172.7537776099311L220.74538636363636,165.67466905381946L221.04736363636363,168.68622313605414L221.14802272727272,152.84622308943008L221.3493409090909,159.8080021540324L221.5506590909091,143.26400184631348L222.15461363636365,171.7760007646349L222.25527272727274,137.8666645685832L222.4565909090909,132.782221476237L222.6579090909091,157.61777782440186L223.16120454545455,166.92622248331708L223.56384090909089,139.93955357869467L223.6645,151.9857757356432L223.7651590909091,177.40799993938873L223.86581818181818,148.1137801276313L225.07372727272727,161.99822065565323L225.27504545454545,147.60533290439182L225.47636363636366,151.63377560509576L225.6776818181818,106.10844675699872L226.0803181818182,166.18311044904922L226.18097727272726,144.00711388058136L226.28163636363635,157.53955427805585L226.38229545454544,171.34577708774142L226.4779215909091,145.49333212110733L226.48295454545456,180.38044516245523L226.58361363636365,138.57066482967804L226.7849318181818,165.205333603753L226.8855909090909,178.5813327365451L226.98624999999998,143.53777843051486L227.1875681818182,171.93244494332208L227.69086363636364,175.217778523763L227.99284090909092,168.64711136288113L228.1941590909091,166.37866640090942L228.2948181818182,153.35466448465985L228.49613636363637,161.52889103359647L228.79811363636364,158.79111353556317L229.1000909090909,144.5155552758111L229.30140909090912,157.85244263543024L229.60338636363636,147.13599745432538L229.70404545454545,150.57777521345352L229.90536363636366,153.4719998041789L230.00602272727272,149.5999983681573L230.308,158.83021948072647L230.5093181818182,167.4346667925517L230.60997727272726,172.20622152752347L231.41525,160.90310849083795L231.51590909090908,180.84977769851685L231.71722727272729,152.41599941253662L232.22052272727274,166.1439986758762L232.7238181818182,163.4844447241889L232.82447727272728,151.51644611358643L232.92513636363637,144.59377882215713L233.12645454545452,140.17422421773276L233.22711363636364,112.24888441297745L233.42843181818182,108.5333300696479L233.62975,143.53777843051486L233.93172727272727,166.22222222222223L234.03238636363636,160.51200241512723L234.43502272727272,174.78755484686957L234.9383181818182,164.81422170003256L235.13963636363636,143.6942196951972L235.7435909090909,155.81866539849176L235.84425,182.49244303173492L235.94490909090908,148.4266684850057L236.0455681818182,148.9742216534085L236.1462272727273,158.86933125389947L236.44820454545453,163.09333282046848L236.64952272727274,161.99822065565323L236.95149999999998,160.59022013346356L237.05215909090907,168.02133464813232L237.35413636363637,146.23644415537518L237.55545454545455,155.0755533642239L237.75677272727273,162.5848914252387L237.85743181818182,133.6817806031969L237.9580909090909,139.93955357869467L238.36072727272727,143.6551137500339L238.76336363636364,158.04800150129532L238.86402272727275,157.53955427805585L238.96468181818182,159.41689025031195L239.36731818181818,157.26577769385443L239.4679772727273,125.35111278957793L239.66929545454545,139.66577699449329L239.76995454545454,172.55822165807086L239.97127272727275,169.03822326660156L240.07193181818184,167.6302227444119L240.1725909090909,157.22666592068143L240.37390909090908,162.97599750094943L240.47456818181817,182.3751106262207L240.5752272727273,155.0755533642239L240.67588636363638,130.1226675245497L240.97786363636362,160.23822000291614L241.17918181818183,165.51822196112738L241.27984090909092,149.91288672553168L241.88379545454546,161.21600267622208L241.98445454545455,94.72711308797201L242.08511363636362,155.271112230089L242.48775,130.63110891977948L242.68906818181816,125.23377747005888L242.89038636363637,136.22399923536514L243.29302272727273,143.22489007314047L243.99763636363636,154.52800019582114L244.29961363636363,142.91200171576605L244.50093181818184,154.60622374216717L244.70225,147.5662211312188L244.80290909090908,143.6160019768609L245.00422727272726,182.68799898359512L245.20554545454547,161.41155571407742L245.40686363636362,173.45777787102594L245.50752272727271,156.28800084855823L245.60818181818183,157.4613307317098L245.91015909090908,142.83377816942004L246.01081818181817,159.2604431576199L246.31279545454547,153.27644676632355L246.41345454545456,60.074664857652465L246.6147727272727,-105.44355010986324L246.91675,133.40799819098578L247.31938636363637,117.64622169070776L247.9233409090909,151.086222436693L248.024,129.4968908098009L248.32597727272727,167.39555501937866L248.4266363636364,90.07288784450957L248.62795454545454,149.99111027187774L248.82927272727272,168.64711136288113L248.9299318181818,172.16710975435046L249.13125,181.55377795961166L249.23190909090908,163.09333282046848L249.43322727272727,147.48799758487277L249.53388636363638,167.04355488883124L249.63454545454547,167.39555501937866L249.73520454545454,180.38044516245523L249.93652272727272,133.52533351050482L250.13784090909093,158.3608898586697L250.23850000000002,180.10666566424896L250.64113636363635,174.8266666200426L250.74179545454547,163.64088598887128L250.94311363636365,150.06933381822375L251.24509090909092,170.8373327785068L251.4464090909091,142.794666396247L251.74838636363634,153.94133525424533L252.3523409090909,163.28889168633356L252.95629545454545,156.32711262173123L253.35893181818182,166.33955462773642L253.6609090909091,156.01422426435684L254.16420454545457,162.62399737040204L254.36552272727272,161.84177939097088L254.66750000000002,157.7351131439209L255.27145454545456,152.80711131625705L255.37211363636365,153.27644676632355L255.5734318181818,128.597331682841L255.8754090909091,120.07111083136665L256.17738636363634,162.70222091674805L256.27804545454546,160.27733177608914L256.3787045454546,158.75200176239014L257.28463636363637,158.83021948072647L257.3852954545454,153.62844689687094L257.48595454545455,167.27822261386447L257.58661363636367,163.64088598887128L257.7879318181818,165.04888651106094L257.98925,155.8968889448378L258.29122727272727,144.5155552758111L258.39188636363633,146.43199719323053L258.79452272727275,146.94044441647003L258.9958409090909,150.8515576256646L259.0965,170.56355619430542L259.1971590909091,152.96355840894913L259.2978181818182,127.18933116065132L260.1030909090909,143.3422195646498L261.00902272727274,146.979556189643L261.2103409090909,163.99288611941867L261.5123181818182,165.98755741119385L262.01561363636364,179.9893332587348L262.3175909090909,164.22755675845676L262.41825,160.86400254567465L262.7202272727273,149.3262217839559L262.82088636363636,153.94133525424533L263.12286363636366,133.6817806031969L263.4248409090909,133.3688864178128L263.6261590909091,164.73599815368652L263.82747727272726,157.07022465599908L264.1294545454545,149.40444533030194L264.4314318181818,164.46222156948514L264.5320909090909,162.66310914357504L264.63275,177.5253323449029L264.83406818181817,156.28800084855823L265.6393409090909,117.45066865285239L265.84065909090907,159.45600202348498L266.04197727272725,136.49777581956653L266.24329545454543,160.94222026401096L266.74155795454544,159.2604431576199" style="fill: none;" fill="none"></path></g><g><path stroke="rgb(204, 51, 17)" stroke-width="2px" d="M45.29155795454546,8.84027014838327L65.42337613636364,28.483273824056003L85.55519431818182,32.97648281521269L105.6870125,38.91865158081057L125.81883068181818,44.82593388027617L145.95064886363636,47.34500948588054L166.08246704545454,40.74841350979277L186.21428522727274,38.7235647837321L206.34610340909092,37.315564261542434L226.4779215909091,32.85720676845976L246.60973977272727,33.38324292500815L266.74155795454544,30.494310167100707" style="fill: none;" fill="none"></path></g></g></g></g></g></g><g transform="translate(53, 176)" clip-path="url(#clip_1)"><clipPath id="clip_1"><rect width="276" height="24"></rect></clipPath><g><g><line x1="0" y1="0" x2="0" y2="5" style="visibility: inherit;" fill="rgb(0, 0, 0)" stroke="rgb(204, 204, 204)" stroke-width="1px"></line><line x1="25.164772727272727" y1="0" x2="25.164772727272727" y2="5" style="visibility: inherit;" fill="rgb(0, 0, 0)" stroke="rgb(204, 204, 204)" stroke-width="1px"></line><line x1="50.32954545454545" y1="0" x2="50.32954545454545" y2="5" style="visibility: inherit;" fill="rgb(0, 0, 0)" stroke="rgb(204, 204, 204)" stroke-width="1px"></line><line x1="75.49431818181817" y1="0" x2="75.49431818181817" y2="5" style="visibility: inherit;" fill="rgb(0, 0, 0)" stroke="rgb(204, 204, 204)" stroke-width="1px"></line><line x1="100.6590909090909" y1="0" x2="100.6590909090909" y2="5" style="visibility: inherit;" fill="rgb(0, 0, 0)" stroke="rgb(204, 204, 204)" stroke-width="1px"></line><line x1="125.82386363636363" y1="0" x2="125.82386363636363" y2="5" style="visibility: inherit;" fill="rgb(0, 0, 0)" stroke="rgb(204, 204, 204)" stroke-width="1px"></line><line x1="150.98863636363635" y1="0" x2="150.98863636363635" y2="5" style="visibility: inherit;" fill="rgb(0, 0, 0)" stroke="rgb(204, 204, 204)" stroke-width="1px"></line><line x1="176.1534090909091" y1="0" x2="176.1534090909091" y2="5" style="visibility: inherit;" fill="rgb(0, 0, 0)" stroke="rgb(204, 204, 204)" stroke-width="1px"></line><line x1="201.3181818181818" y1="0" x2="201.3181818181818" y2="5" style="visibility: inherit;" fill="rgb(0, 0, 0)" stroke="rgb(204, 204, 204)" stroke-width="1px"></line><line x1="226.48295454545456" y1="0" x2="226.48295454545456" y2="5" style="visibility: inherit;" fill="rgb(0, 0, 0)" stroke="rgb(204, 204, 204)" stroke-width="1px"></line><line x1="251.64772727272725" y1="0" x2="251.64772727272725" y2="5" style="visibility: inherit;" fill="rgb(0, 0, 0)" stroke="rgb(204, 204, 204)" stroke-width="1px"></line><line x1="276.8125" y1="0" x2="276.8125" y2="5" style="visibility: inherit;" fill="rgb(0, 0, 0)" stroke="rgb(204, 204, 204)" stroke-width="1px"></line></g><g transform="translate(0, 8)"><text x="0" y="0" dx="0em" dy="0.95em" style="text-anchor: middle; visibility: hidden; font-family: Roboto, sans-serif; font-size: 12px; font-weight: 200;" fill="rgb(33, 33, 33)" stroke="none" stroke-width="1px">-5k</text><text x="25.164772727272727" y="0" dx="0em" dy="0.95em" style="text-anchor: middle; visibility: inherit; font-family: Roboto, sans-serif; font-size: 12px; font-weight: 200;" fill="rgb(33, 33, 33)" stroke="none" stroke-width="1px">0</text><text x="50.32954545454545" y="0" dx="0em" dy="0.95em" style="text-anchor: middle; visibility: inherit; font-family: Roboto, sans-serif; font-size: 12px; font-weight: 200;" fill="rgb(33, 33, 33)" stroke="none" stroke-width="1px">5k</text><text x="75.49431818181817" y="0" dx="0em" dy="0.95em" style="text-anchor: middle; visibility: inherit; font-family: Roboto, sans-serif; font-size: 12px; font-weight: 200;" fill="rgb(33, 33, 33)" stroke="none" stroke-width="1px">10k</text><text x="100.6590909090909" y="0" dx="0em" dy="0.95em" style="text-anchor: middle; visibility: inherit; font-family: Roboto, sans-serif; font-size: 12px; font-weight: 200;" fill="rgb(33, 33, 33)" stroke="none" stroke-width="1px">15k</text><text x="125.82386363636363" y="0" dx="0em" dy="0.95em" style="text-anchor: middle; visibility: inherit; font-family: Roboto, sans-serif; font-size: 12px; font-weight: 200;" fill="rgb(33, 33, 33)" stroke="none" stroke-width="1px">20k</text><text x="150.98863636363635" y="0" dx="0em" dy="0.95em" style="text-anchor: middle; visibility: inherit; font-family: Roboto, sans-serif; font-size: 12px; font-weight: 200;" fill="rgb(33, 33, 33)" stroke="none" stroke-width="1px">25k</text><text x="176.1534090909091" y="0" dx="0em" dy="0.95em" style="text-anchor: middle; visibility: inherit; font-family: Roboto, sans-serif; font-size: 12px; font-weight: 200;" fill="rgb(33, 33, 33)" stroke="none" stroke-width="1px">30k</text><text x="201.3181818181818" y="0" dx="0em" dy="0.95em" style="text-anchor: middle; visibility: inherit; font-family: Roboto, sans-serif; font-size: 12px; font-weight: 200;" fill="rgb(33, 33, 33)" stroke="none" stroke-width="1px">35k</text><text x="226.48295454545456" y="0" dx="0em" dy="0.95em" style="text-anchor: middle; visibility: inherit; font-family: Roboto, sans-serif; font-size: 12px; font-weight: 200;" fill="rgb(33, 33, 33)" stroke="none" stroke-width="1px">40k</text><text x="251.64772727272725" y="0" dx="0em" dy="0.95em" style="text-anchor: middle; visibility: inherit; font-family: Roboto, sans-serif; font-size: 12px; font-weight: 200;" fill="rgb(33, 33, 33)" stroke="none" stroke-width="1px">45k</text><text x="276.8125" y="0" dx="0em" dy="0.95em" style="text-anchor: middle; visibility: hidden; font-family: Roboto, sans-serif; font-size: 12px; font-weight: 200;" fill="rgb(33, 33, 33)" stroke="none" stroke-width="1px">50k</text></g><line x1="0" y1="0" x2="276.8125" y2="0" fill="rgb(0, 0, 0)" stroke="rgb(204, 204, 204)" stroke-width="1px"></line></g></g></g></g></svg>